<?xml version="1.0" encoding="UTF-8" standalone="no"?>
<svg width="112.889mm" height="73.025mm"
 viewBox="0 0 320 207"
 xmlns="http://www.w3.org/2000/svg" xmlns:xlink="http://www.w3.org/1999/xlink"  version="1.2" baseProfile="tiny">
<title>Qt SVG Document</title>
<desc>MATLAB, The MathWorks, Inc. Version 25.2.0.3150157 R2025b Update 4</desc>
<defs>
</defs>
<g fill="none" stroke="black" stroke-width="1" fill-rule="evenodd" stroke-linecap="square" stroke-linejoin="bevel" >

<g fill="#ffffff" fill-opacity="1" stroke="none" transform="matrix(0.75,0,0,0.75,-8,-11.625)"
font-family="MS Shell Dlg 2" font-size="8.25" font-weight="400" font-style="normal" 
>
<path vector-effect="none" fill-rule="evenodd" d="M9,14 L436,14 L436,290 L9,290 L9,14"/>
</g>

<g fill="#ffffff" fill-opacity="1" stroke="none" transform="matrix(7.5e-05,0,0,7.5e-05,-8,-11.625)"
font-family="MS Shell Dlg 2" font-size="8.25" font-weight="400" font-style="normal" 
>
<path vector-effect="none" fill-rule="evenodd" d="M620000,220000 L620000,2.48e+06 L4.34e+06,2.48e+06 L4.34e+06,220000 L620000,220000"/>
</g>

<g fill="#212121" fill-opacity="0.14902" stroke="#212121" stroke-opacity="0.14902" stroke-dasharray="1,3" stroke-dashoffset="0" stroke-width="0.666667" stroke-linecap="butt" stroke-linejoin="round" transform="matrix(0.75,0,0,0.75,-8,-11.625)"
font-family="MS Shell Dlg 2" font-size="8.25" font-weight="400" font-style="normal" 
>
<polyline fill="none" vector-effect="none" points="62.7487,248 62.7487,22 " />
<polyline fill="none" vector-effect="none" points="69.7933,248 69.7933,22 " />
<polyline fill="none" vector-effect="none" points="75.5491,248 75.5491,22 " />
<polyline fill="none" vector-effect="none" points="80.4155,248 80.4155,22 " />
<polyline fill="none" vector-effect="none" points="84.6311,248 84.6311,22 " />
<polyline fill="none" vector-effect="none" points="88.3494,248 88.3494,22 " />
<polyline fill="none" vector-effect="none" points="113.558,248 113.558,22 " />
<polyline fill="none" vector-effect="none" points="126.358,248 126.358,22 " />
<polyline fill="none" vector-effect="none" points="135.44,248 135.44,22 " />
<polyline fill="none" vector-effect="none" points="142.485,248 142.485,22 " />
<polyline fill="none" vector-effect="none" points="148.241,248 148.241,22 " />
<polyline fill="none" vector-effect="none" points="153.107,248 153.107,22 " />
<polyline fill="none" vector-effect="none" points="157.323,248 157.323,22 " />
<polyline fill="none" vector-effect="none" points="161.041,248 161.041,22 " />
<polyline fill="none" vector-effect="none" points="164.367,248 164.367,22 " />
<polyline fill="none" vector-effect="none" points="186.25,248 186.25,22 " />
<polyline fill="none" vector-effect="none" points="199.05,248 199.05,22 " />
<polyline fill="none" vector-effect="none" points="208.132,248 208.132,22 " />
<polyline fill="none" vector-effect="none" points="215.176,248 215.176,22 " />
<polyline fill="none" vector-effect="none" points="220.932,248 220.932,22 " />
<polyline fill="none" vector-effect="none" points="225.799,248 225.799,22 " />
<polyline fill="none" vector-effect="none" points="230.014,248 230.014,22 " />
<polyline fill="none" vector-effect="none" points="233.733,248 233.733,22 " />
<polyline fill="none" vector-effect="none" points="258.941,248 258.941,22 " />
<polyline fill="none" vector-effect="none" points="271.742,248 271.742,22 " />
<polyline fill="none" vector-effect="none" points="280.824,248 280.824,22 " />
<polyline fill="none" vector-effect="none" points="287.868,248 287.868,22 " />
<polyline fill="none" vector-effect="none" points="293.624,248 293.624,22 " />
<polyline fill="none" vector-effect="none" points="298.49,248 298.49,22 " />
<polyline fill="none" vector-effect="none" points="302.706,248 302.706,22 " />
<polyline fill="none" vector-effect="none" points="306.424,248 306.424,22 " />
<polyline fill="none" vector-effect="none" points="309.75,248 309.75,22 " />
<polyline fill="none" vector-effect="none" points="331.633,248 331.633,22 " />
<polyline fill="none" vector-effect="none" points="344.433,248 344.433,22 " />
<polyline fill="none" vector-effect="none" points="353.515,248 353.515,22 " />
<polyline fill="none" vector-effect="none" points="360.56,248 360.56,22 " />
<polyline fill="none" vector-effect="none" points="366.315,248 366.315,22 " />
<polyline fill="none" vector-effect="none" points="371.182,248 371.182,22 " />
<polyline fill="none" vector-effect="none" points="375.397,248 375.397,22 " />
<polyline fill="none" vector-effect="none" points="379.116,248 379.116,22 " />
<polyline fill="none" vector-effect="none" points="404.324,248 404.324,22 " />
<polyline fill="none" vector-effect="none" points="417.125,248 417.125,22 " />
<polyline fill="none" vector-effect="none" points="426.207,248 426.207,22 " />
<polyline fill="none" vector-effect="none" points="433.251,248 433.251,22 " />
</g>

<g fill="#212121" fill-opacity="0.14902" stroke="#212121" stroke-opacity="0.14902" stroke-width="0.666667" stroke-linecap="butt" stroke-linejoin="round" transform="matrix(0.75,0,0,0.75,-8,-11.625)"
font-family="MS Shell Dlg 2" font-size="8.25" font-weight="400" font-style="normal" 
>
<polyline fill="none" vector-effect="none" points="91.6756,248 91.6756,22 " />
<polyline fill="none" vector-effect="none" points="237.059,248 237.059,22 " />
<polyline fill="none" vector-effect="none" points="382.442,248 382.442,22 " />
<polyline fill="none" vector-effect="none" points="434,248 62,248 " />
<polyline fill="none" vector-effect="none" points="434,202.8 62,202.8 " />
<polyline fill="none" vector-effect="none" points="434,157.6 62,157.6 " />
<polyline fill="none" vector-effect="none" points="434,112.4 62,112.4 " />
<polyline fill="none" vector-effect="none" points="434,67.2 62,67.2 " />
<polyline fill="none" vector-effect="none" points="434,22 62,22 " />
</g>

<g fill="#212121" fill-opacity="1" stroke="#212121" stroke-opacity="1" stroke-width="0.666667" stroke-linecap="square" stroke-linejoin="round" transform="matrix(0.75,0,0,0.75,-8,-11.625)"
font-family="MS Shell Dlg 2" font-size="8.25" font-weight="400" font-style="normal" 
>
<polyline fill="none" vector-effect="none" points="62,248 434,248 " />
<polyline fill="none" vector-effect="none" points="91.6756,248 91.6756,244.28 " />
<polyline fill="none" vector-effect="none" points="237.059,248 237.059,244.28 " />
<polyline fill="none" vector-effect="none" points="382.442,248 382.442,244.28 " />
<polyline fill="none" vector-effect="none" points="62.7487,248 62.7487,246.14 " />
<polyline fill="none" vector-effect="none" points="69.7933,248 69.7933,246.14 " />
<polyline fill="none" vector-effect="none" points="75.5491,248 75.5491,246.14 " />
<polyline fill="none" vector-effect="none" points="80.4155,248 80.4155,246.14 " />
<polyline fill="none" vector-effect="none" points="84.6311,248 84.6311,246.14 " />
<polyline fill="none" vector-effect="none" points="88.3494,248 88.3494,246.14 " />
<polyline fill="none" vector-effect="none" points="91.6756,248 91.6756,246.14 " />
<polyline fill="none" vector-effect="none" points="113.558,248 113.558,246.14 " />
<polyline fill="none" vector-effect="none" points="126.358,248 126.358,246.14 " />
<polyline fill="none" vector-effect="none" points="135.44,248 135.44,246.14 " />
<polyline fill="none" vector-effect="none" points="142.485,248 142.485,246.14 " />
<polyline fill="none" vector-effect="none" points="148.241,248 148.241,246.14 " />
<polyline fill="none" vector-effect="none" points="153.107,248 153.107,246.14 " />
<polyline fill="none" vector-effect="none" points="157.323,248 157.323,246.14 " />
<polyline fill="none" vector-effect="none" points="161.041,248 161.041,246.14 " />
<polyline fill="none" vector-effect="none" points="164.367,248 164.367,246.14 " />
<polyline fill="none" vector-effect="none" points="186.25,248 186.25,246.14 " />
<polyline fill="none" vector-effect="none" points="199.05,248 199.05,246.14 " />
<polyline fill="none" vector-effect="none" points="208.132,248 208.132,246.14 " />
<polyline fill="none" vector-effect="none" points="215.176,248 215.176,246.14 " />
<polyline fill="none" vector-effect="none" points="220.932,248 220.932,246.14 " />
<polyline fill="none" vector-effect="none" points="225.799,248 225.799,246.14 " />
<polyline fill="none" vector-effect="none" points="230.014,248 230.014,246.14 " />
<polyline fill="none" vector-effect="none" points="233.733,248 233.733,246.14 " />
<polyline fill="none" vector-effect="none" points="237.059,248 237.059,246.14 " />
<polyline fill="none" vector-effect="none" points="258.941,248 258.941,246.14 " />
<polyline fill="none" vector-effect="none" points="271.742,248 271.742,246.14 " />
<polyline fill="none" vector-effect="none" points="280.824,248 280.824,246.14 " />
<polyline fill="none" vector-effect="none" points="287.868,248 287.868,246.14 " />
<polyline fill="none" vector-effect="none" points="293.624,248 293.624,246.14 " />
<polyline fill="none" vector-effect="none" points="298.49,248 298.49,246.14 " />
<polyline fill="none" vector-effect="none" points="302.706,248 302.706,246.14 " />
<polyline fill="none" vector-effect="none" points="306.424,248 306.424,246.14 " />
<polyline fill="none" vector-effect="none" points="309.75,248 309.75,246.14 " />
<polyline fill="none" vector-effect="none" points="331.633,248 331.633,246.14 " />
<polyline fill="none" vector-effect="none" points="344.433,248 344.433,246.14 " />
<polyline fill="none" vector-effect="none" points="353.515,248 353.515,246.14 " />
<polyline fill="none" vector-effect="none" points="360.56,248 360.56,246.14 " />
<polyline fill="none" vector-effect="none" points="366.315,248 366.315,246.14 " />
<polyline fill="none" vector-effect="none" points="371.182,248 371.182,246.14 " />
<polyline fill="none" vector-effect="none" points="375.397,248 375.397,246.14 " />
<polyline fill="none" vector-effect="none" points="379.116,248 379.116,246.14 " />
<polyline fill="none" vector-effect="none" points="382.442,248 382.442,246.14 " />
<polyline fill="none" vector-effect="none" points="404.324,248 404.324,246.14 " />
<polyline fill="none" vector-effect="none" points="417.125,248 417.125,246.14 " />
<polyline fill="none" vector-effect="none" points="426.207,248 426.207,246.14 " />
<polyline fill="none" vector-effect="none" points="433.251,248 433.251,246.14 " />
</g>

<g fill="#212121" fill-opacity="1" stroke="#212121" stroke-opacity="1" stroke-width="1" stroke-linecap="square" stroke-linejoin="bevel" transform="matrix(0.75,0,0,0.75,53.5,190.125)"
font-family="Helvetica" font-size="13" font-weight="400" font-style="normal" 
>
<text fill="#212121" fill-opacity="1" stroke="none" xml:space="preserve" x="0" y="0" font-family="Helvetica" font-size="13" font-weight="400" font-style="normal" 
 >10</text>
</g>

<g fill="#212121" fill-opacity="1" stroke="#212121" stroke-opacity="1" stroke-width="1" stroke-linecap="square" stroke-linejoin="bevel" transform="matrix(0.75,0,0,0.75,64,185.625)"
font-family="Helvetica" font-size="10" font-weight="400" font-style="normal" 
>
<text fill="#212121" fill-opacity="1" stroke="none" xml:space="preserve" x="0" y="0" font-family="Helvetica" font-size="10" font-weight="400" font-style="normal" 
 >2</text>
</g>

<g fill="#212121" fill-opacity="1" stroke="#212121" stroke-opacity="1" stroke-width="1" stroke-linecap="square" stroke-linejoin="bevel" transform="matrix(0.75,0,0,0.75,162.25,190.125)"
font-family="Helvetica" font-size="13" font-weight="400" font-style="normal" 
>
<text fill="#212121" fill-opacity="1" stroke="none" xml:space="preserve" x="0" y="0" font-family="Helvetica" font-size="13" font-weight="400" font-style="normal" 
 >10</text>
</g>

<g fill="#212121" fill-opacity="1" stroke="#212121" stroke-opacity="1" stroke-width="1" stroke-linecap="square" stroke-linejoin="bevel" transform="matrix(0.75,0,0,0.75,172.75,185.625)"
font-family="Helvetica" font-size="10" font-weight="400" font-style="normal" 
>
<text fill="#212121" fill-opacity="1" stroke="none" xml:space="preserve" x="0" y="0" font-family="Helvetica" font-size="10" font-weight="400" font-style="normal" 
 >4</text>
</g>

<g fill="#212121" fill-opacity="1" stroke="#212121" stroke-opacity="1" stroke-width="1" stroke-linecap="square" stroke-linejoin="bevel" transform="matrix(0.75,0,0,0.75,271,190.125)"
font-family="Helvetica" font-size="13" font-weight="400" font-style="normal" 
>
<text fill="#212121" fill-opacity="1" stroke="none" xml:space="preserve" x="0" y="0" font-family="Helvetica" font-size="13" font-weight="400" font-style="normal" 
 >10</text>
</g>

<g fill="#212121" fill-opacity="1" stroke="#212121" stroke-opacity="1" stroke-width="1" stroke-linecap="square" stroke-linejoin="bevel" transform="matrix(0.75,0,0,0.75,281.5,185.625)"
font-family="Helvetica" font-size="10" font-weight="400" font-style="normal" 
>
<text fill="#212121" fill-opacity="1" stroke="none" xml:space="preserve" x="0" y="0" font-family="Helvetica" font-size="10" font-weight="400" font-style="normal" 
 >6</text>
</g>

<g fill="#212121" fill-opacity="1" stroke="#212121" stroke-opacity="1" stroke-width="1" stroke-linecap="square" stroke-linejoin="bevel" transform="matrix(0.75,0,0,0.75,140.875,202.32)"
font-family="Helvetica" font-size="14" font-weight="400" font-style="normal" 
>
<text fill="#212121" fill-opacity="1" stroke="none" xml:space="preserve" x="0" y="0" font-family="Helvetica" font-size="14" font-weight="400" font-style="normal" 
 >Frequency (Hz)</text>
</g>

<g fill="#212121" fill-opacity="1" stroke="#212121" stroke-opacity="1" stroke-width="0.666667" stroke-linecap="square" stroke-linejoin="round" transform="matrix(0.75,0,0,0.75,-8,-11.625)"
font-family="Helvetica" font-size="14" font-weight="400" font-style="normal" 
>
<polyline fill="none" vector-effect="none" points="62,248 62,22 " />
<polyline fill="none" vector-effect="none" points="62,248 65.72,248 " />
<polyline fill="none" vector-effect="none" points="62,202.8 65.72,202.8 " />
<polyline fill="none" vector-effect="none" points="62,157.6 65.72,157.6 " />
<polyline fill="none" vector-effect="none" points="62,112.4 65.72,112.4 " />
<polyline fill="none" vector-effect="none" points="62,67.2 65.72,67.2 " />
<polyline fill="none" vector-effect="none" points="62,22 65.72,22 " />
</g>

<g fill="#212121" fill-opacity="1" stroke="#212121" stroke-opacity="1" stroke-width="1" stroke-linecap="square" stroke-linejoin="bevel" transform="matrix(0.75,0,0,0.75,15.75,177.75)"
font-family="Helvetica" font-size="13" font-weight="400" font-style="normal" 
>
<text fill="#212121" fill-opacity="1" stroke="none" xml:space="preserve" x="0" y="0" font-family="Helvetica" font-size="13" font-weight="400" font-style="normal" 
 >-250</text>
</g>

<g fill="#212121" fill-opacity="1" stroke="#212121" stroke-opacity="1" stroke-width="1" stroke-linecap="square" stroke-linejoin="bevel" transform="matrix(0.75,0,0,0.75,15.75,143.85)"
font-family="Helvetica" font-size="13" font-weight="400" font-style="normal" 
>
<text fill="#212121" fill-opacity="1" stroke="none" xml:space="preserve" x="0" y="0" font-family="Helvetica" font-size="13" font-weight="400" font-style="normal" 
 >-200</text>
</g>

<g fill="#212121" fill-opacity="1" stroke="#212121" stroke-opacity="1" stroke-width="1" stroke-linecap="square" stroke-linejoin="bevel" transform="matrix(0.75,0,0,0.75,15.75,109.95)"
font-family="Helvetica" font-size="13" font-weight="400" font-style="normal" 
>
<text fill="#212121" fill-opacity="1" stroke="none" xml:space="preserve" x="0" y="0" font-family="Helvetica" font-size="13" font-weight="400" font-style="normal" 
 >-150</text>
</g>

<g fill="#212121" fill-opacity="1" stroke="#212121" stroke-opacity="1" stroke-width="1" stroke-linecap="square" stroke-linejoin="bevel" transform="matrix(0.75,0,0,0.75,15.75,76.05)"
font-family="Helvetica" font-size="13" font-weight="400" font-style="normal" 
>
<text fill="#212121" fill-opacity="1" stroke="none" xml:space="preserve" x="0" y="0" font-family="Helvetica" font-size="13" font-weight="400" font-style="normal" 
 >-100</text>
</g>

<g fill="#212121" fill-opacity="1" stroke="#212121" stroke-opacity="1" stroke-width="1" stroke-linecap="square" stroke-linejoin="bevel" transform="matrix(0.75,0,0,0.75,21,42.15)"
font-family="Helvetica" font-size="13" font-weight="400" font-style="normal" 
>
<text fill="#212121" fill-opacity="1" stroke="none" xml:space="preserve" x="0" y="0" font-family="Helvetica" font-size="13" font-weight="400" font-style="normal" 
 >-50</text>
</g>

<g fill="#212121" fill-opacity="1" stroke="#212121" stroke-opacity="1" stroke-width="1" stroke-linecap="square" stroke-linejoin="bevel" transform="matrix(0.75,0,0,0.75,29.25,8.25)"
font-family="Helvetica" font-size="13" font-weight="400" font-style="normal" 
>
<text fill="#212121" fill-opacity="1" stroke="none" xml:space="preserve" x="0" y="0" font-family="Helvetica" font-size="13" font-weight="400" font-style="normal" 
 >0</text>
</g>

<g fill="#212121" fill-opacity="1" stroke="#212121" stroke-opacity="1" stroke-width="1" stroke-linecap="square" stroke-linejoin="bevel" transform="matrix(0,-0.75,0.75,0,9.00001,154.875)"
font-family="Helvetica" font-size="14" font-weight="400" font-style="normal" 
>
<text fill="#212121" fill-opacity="1" stroke="none" xml:space="preserve" x="0" y="0" font-family="Helvetica" font-size="14" font-weight="400" font-style="normal" 
 >Normalized Magnitude (dB)</text>
</g>

<g fill="none" stroke="#1171be" stroke-opacity="1" stroke-width="0.666667" stroke-linecap="butt" stroke-linejoin="round" transform="matrix(0.75,0,0,0.75,-8,-11.625)"
font-family="Helvetica" font-size="14" font-weight="400" font-style="normal" 
>
<polyline fill="none" vector-effect="none" points="62,197.746 83.8824,192.439 96.6827,189.101 105.765,186.715 112.809,185.309 118.565,183.826 123.432,181.671 127.647,181.824 131.365,181.153 134.692,179.741 137.701,179.204 140.447,177.86 142.974,177.941 145.314,177.299 147.492,176.969 149.529,176.438 151.443,174.843 153.248,174.374 154.955,175.339 156.574,173.586 158.114,173.268 159.583,175.694 160.986,172.343 162.33,174.185 163.618,173.814 164.857,171.149 166.048,170.916 167.196,170.806 168.304,171.929 169.374,172.435 170.409,168.072 171.412,170.772 172.383,170.237 173.326,168.054 174.241,170.743 175.13,169.82 175.995,169.684 176.837,171.989 177.657,167.744 178.456,170.598 179.236,168.91 179.997,166.507 180.739,165.294 181.465,173.129 182.175,166.041 182.869,169.404 183.547,163.395 184.212,175.329 184.863,167.537 185.501,173.966 186.126,169.046 186.739,164.515 187.34,166.869 187.93,165.435 188.51,166.442 189.079,166.634 189.637,167.299 190.186,163.627 190.726,162.904 191.257,168.675 191.778,27.4426 192.292,164.826 192.797,170.967 193.294,167.674 193.784,164.211 194.266,169.107 194.74,160.99 195.208,164.612 195.669,160.198 196.123,163.576 196.571,163.313 197.012,164.71 197.448,160.836 197.877,164.265 198.301,171.26 198.719,161.481 199.132,165.215 199.539,161.319 199.942,169.605 200.339,158.89 200.731,165.863 201.118,171.303 201.501,166.409 201.879,167.411 202.253,169.316 202.622,161.194 202.987,163.107 203.348,162.924 203.704,158.177 204.057,160.889 204.406,166.339 204.751,173.436 205.092,165.819 205.43,155.831 205.764,157.238 206.094,166.134 206.422,162.656 206.745,161.416 207.066,164.869 207.383,166.725 207.697,165.12 208.008,161.462 208.316,156.897 208.621,155.936 208.923,162.55 209.223,168.673 209.519,161.544 209.813,184.197 210.104,154.361 210.392,155.224 210.678,155.345 210.961,157.279 211.242,155.934 211.52,154.623 211.795,156.992 212.069,156.78 212.34,159.839 212.608,158.183 212.875,156.839 213.139,164.788 213.401,158.324 213.661,159.931 213.919,157.3 214.174,161.616 214.428,159.074 214.679,152.755 214.929,158.008 215.176,165.524 215.422,155.295 215.666,154.349 215.908,157.695 216.148,151.667 216.386,168.206 216.623,181.238 216.857,154.458 217.09,158.37 217.322,160.7 217.551,150.018 217.779,155.269 218.005,156.091 218.23,155.111 218.453,162.531 218.675,159.871 218.895,153.463 219.113,153.266 219.33,148.816 219.546,153.326 219.76,152.705 219.972,153.182 220.184,150.425 220.393,168.976 220.602,161.019 220.809,155.141 221.014,160.273 221.219,151.424 221.422,155.799 221.623,158.924 221.824,150.325 222.023,149.585 222.221,154.804 222.418,151.158 222.613,150.7 222.807,161.266 223.001,155.921 223.192,155.998 223.383,149.562 223.573,149.253 223.761,156.689 223.949,154.412 224.135,165.332 224.32,153.657 224.504,149.226 224.687,154.235 224.869,152.254 225.05,151.017 225.23,150.028 225.409,164.486 225.587,160.411 225.764,148.135 225.939,147.746 226.114,165.569 226.288,156.111 226.461,135.639 226.633,150.223 226.804,151.46 226.975,157.557 227.144,148.61 227.312,152.668 227.48,154.015 227.646,150.757 227.812,148.988 227.977,147.445 228.141,157.157 228.304,150.406 228.466,153.815 228.628,144.746 228.788,153.68 228.948,153.15 229.107,146.11 229.266,158.035 229.423,153.213 229.58,155.749 229.736,149.375 229.891,154.529 230.045,154.71 230.199,145.701 230.352,151.326 230.504,149.65 230.655,161.646 230.806,150.451 230.956,163.178 231.105,159.613 231.254,144.469 231.402,153.658 231.549,151.405 231.695,144.716 231.841,150.91 231.986,171.286 232.131,151.499 232.274,152.394 232.418,154.001 232.56,151.393 232.702,153.783 232.843,148.603 232.984,144.911 233.124,146.434 233.263,149.659 233.402,153.054 233.54,152.169 233.678,160.562 233.815,158.049 233.951,147.109 234.087,147.771 234.222,148.369 234.357,148.82 234.491,147.635 234.624,143.609 234.757,147.725 234.89,148.536 235.021,148.713 235.153,146.113 235.283,149.554 235.414,146.98 235.543,153.844 235.672,145.959 235.801,149.723 235.929,153.476 236.057,147.501 236.184,144.549 236.31,151.524 236.436,150.194 236.562,143.812 236.687,144.49 236.811,153.86 236.935,151.679 237.059,146.622 237.182,148.425 237.305,143.314 237.427,149.505 237.548,144.179 237.669,149.199 237.79,150.749 237.91,146.047 238.03,144.303 238.15,153.155 238.269,150.994 238.387,146.054 238.505,141.671 238.623,143.987 238.74,143.594 238.856,147.271 238.973,145.861 239.089,142.11 239.204,151.044 239.319,148.404 239.434,149.672 239.548,145.785 239.662,145.693 239.775,150.516 239.888,141.532 240,143.496 240.113,153.746 240.224,145.544 240.336,151.749 240.447,146.265 240.557,145.546 240.667,149.025 240.777,140.455 240.996,145.371 241.104,151.34 241.213,146.056 241.321,144.441 241.428,146.374 241.535,151.729 241.749,145.267 241.855,142.761 241.961,145.902 242.066,145.556 242.171,150.995 242.276,139.125 242.38,146.322 242.484,144.69 242.588,139.098 242.691,144.257 242.794,145.41 242.897,141.205 242.999,146.002 243.101,145.271 243.203,141.357 243.304,146.08 243.405,146.439 243.506,141.407 243.606,141.697 243.706,140.463 243.806,146.628 243.905,142.398 244.005,143.676 244.103,141.777 244.202,152.958 244.3,145.199 244.496,141.133 244.593,146.857 244.69,148.232 244.787,152.221 244.979,146.115 245.075,140.205 245.17,141.957 245.266,143.011 245.455,137.227 245.55,141.879 245.737,145.578 245.831,160.17 245.924,145.025 246.017,145.261 246.202,155.324 246.295,139.399 246.478,143.697 246.57,143.514 246.661,141.383 246.751,143.144 246.842,143.07 246.932,146.09 247.022,140.185 247.112,143.609 247.202,142.976 247.291,145.221 247.38,141.951 247.469,146.504 247.558,141.004 247.646,144.468 247.734,135.751 247.822,152.865 247.909,138.201 247.997,145.244 248.084,139.279 248.171,143.395 248.257,144.685 248.344,139.9 248.43,141.516 248.516,143.167 248.601,151.809 248.687,138.712 248.772,139.295 248.857,148.28 248.942,137.777 249.026,141.216 249.11,145.95 249.195,141.207 249.278,144.475 249.362,139.071 249.445,150.247 249.529,147.602 249.694,135.542 249.777,141.259 249.859,144.245 249.941,139.136 250.023,139.328 250.186,151.08 250.268,145.228 250.349,146.687 250.429,140.516 250.51,146.537 250.671,137.908 250.751,142.467 250.91,145.053 250.99,135.506 251.069,136.391 251.227,140.529 251.305,146.689 251.384,141.044 251.462,151.009 251.54,145.643 251.618,147.054 251.696,143.704 251.773,142.922 251.85,139.114 251.927,146.252 252.004,139.427 252.081,142.775 252.234,140.36 252.31,140.223 252.462,138.291 252.538,150.609 252.613,138.498 252.688,141.347 252.763,138.877 252.838,136.438 252.913,145.432 252.987,138.674 253.062,141.317 253.136,144.323 253.21,131.476 253.284,141.694 253.358,131.958 253.431,139.275 253.504,142.632 253.578,139.384 253.723,150.793 253.796,137.892 253.869,141.293 253.941,132.89 254.013,134.985 254.157,150.526 254.228,136.123 254.3,139.285 254.371,140.006 254.443,137.264 254.514,132.368 254.655,145.72 254.726,133.213 254.796,141.439 254.866,139.223 254.936,145.958 255.006,136.52 255.076,133.69 255.146,146.722 255.215,139.315 255.284,132.443 255.423,144.371 255.491,132.194 255.56,139.01 255.697,133.596 255.765,140.686 255.833,138.005 255.901,154.87 255.969,138.563 256.037,157.654 256.104,134.517 256.239,144.004 256.306,135.451 256.373,140.801 256.44,138.366 256.507,137.113 256.64,136.38 256.706,140.561 256.772,133.562 256.838,135.573 256.904,132.819 256.969,134.866 257.035,136.555 257.166,137.813 257.231,134.261 257.296,141.503 257.361,136.276 257.49,148.023 257.555,136.867 257.747,148.308 257.811,132.574 257.939,138.582 258.002,129.872 258.192,140.476 258.256,138.688 258.381,132.999 258.444,145.492 258.507,134.915 258.694,132.571 258.756,143.53 258.879,133.04 258.941,149.671 259.003,142.824 259.187,133.463 259.248,143.294 259.309,137.675 259.37,146.55 259.431,134.097 259.491,135.445 259.552,138.19 259.673,132.622 259.733,143.124 259.793,145.522 259.853,135.956 259.972,142.033 260.032,147.548 260.091,132.123 260.21,145.194 260.269,142.397 260.328,154.219 260.446,130.536 260.505,147.484 260.739,135.18 260.797,133.947 260.855,134.537 260.971,133.241 261.029,138.72 261.086,147.562 261.144,134.13 261.201,140.896 261.259,136.451 261.373,132.878 261.487,137.992 261.544,136.285 261.657,140.205 261.714,130.692 261.77,140.662 261.827,142.495 261.939,135.097 261.995,139.892 262.051,135.212 262.107,135.91 262.218,134.703 262.274,134.299 262.44,141.705 262.495,140.434 262.55,135.363 262.605,133.344 262.66,137.091 262.714,134.57 262.769,136.725 262.824,152.084 262.932,131.621 262.987,142.953 263.041,145.793 263.203,129.18 263.257,135.314 263.31,131.675 263.471,140.387 263.525,133.185 263.631,131.575 263.684,136.81 263.737,131.979 263.79,137.7 263.948,130.209 264.001,131.493 264.106,128.527 264.21,144.834 264.262,139.082 264.47,128.79 264.522,128.658 264.573,135.758 264.728,131.659 264.779,127.025 264.881,135.846 264.983,126.76 265.034,137.384 265.136,127.697 265.237,136.552 265.287,128.229 265.489,138.319 265.539,135.533 265.639,159.907 265.688,130.851 265.738,133.971 265.788,130.557 265.887,139.514 265.986,136.087 266.035,140.417 266.084,133.749 266.231,140.348 266.28,140.012 266.329,130.334 266.475,132.208 266.524,138.739 266.621,139.107 266.717,130.214 266.765,132.021 266.861,129.563 266.909,134.853 266.957,133.443 267.005,129.622 267.053,140.421 267.148,126.469 267.243,133.113 267.29,129.716 267.338,133.583 267.479,126.217 267.526,131.885 267.573,129.38 267.713,131.054 267.76,137.752 267.9,128.42 267.992,135.645 268.039,138.958 268.223,127.582 268.269,133.308 268.361,137.779 268.406,132.71 268.497,135.692 268.543,130.742 268.588,127.008 268.634,132.862 268.724,132.586 268.77,128.673 268.86,138.584 268.995,131.533 269.039,139.326 269.218,126.945 269.263,130.434 269.484,143.124 269.528,126.132 269.704,138.756 269.748,138.377 269.792,132.908 269.923,122.565 269.966,135.877 270.01,138.143 270.096,141.315 270.226,125.707 270.269,131.418 270.398,126.282 270.484,134.134 270.526,130.261 270.654,150.003 270.739,126.121 270.782,140.514 270.993,128.508 271.035,137.276 271.161,139.201 271.203,123.941 271.244,130.274 271.286,127.789 271.328,145.189 271.494,132.498 271.535,129.542 271.577,123.983 271.742,138.22 271.783,129.84 271.865,133.491 271.906,123.634 271.987,128.811 272.028,130.226 272.109,140.773 272.231,127.351 272.271,126.568 272.392,139.072 272.473,131.919 272.513,130.521 272.553,139.045 272.673,127.451 272.713,138.835 272.753,131.753 272.951,141.215 272.991,125.841 273.03,139.526 273.07,142.11 273.109,124.398 273.227,131.859 273.266,128.049 273.305,123.01 273.422,135.004 273.461,129.26 273.5,135.196 273.539,148.107 273.578,124.868 273.733,134.263 273.771,127.229 273.887,142.994 273.963,126.01 274.002,129.388 274.154,124.411 274.192,144.388 274.23,128.433 274.268,134.539 274.495,124.988 274.533,135.404 274.683,125.794 274.721,126.371 274.758,130.579 274.907,122.923 274.944,133.95 274.981,130.077 275.018,128.226 275.129,132.494 275.203,125.235 275.24,129.977 275.277,126.383 275.387,143.409 275.423,124.658 275.496,134.816 275.533,124.317 275.642,135.204 275.715,127.738 275.751,135.578 275.895,137.566 275.931,126.93 275.967,128.13 276.003,124.94 276.075,137.192 276.182,121.295 276.218,134.447 276.254,129.804 276.36,135.9 276.431,126.08 276.467,128.964 276.502,137.145 276.537,121.609 276.749,132.488 276.784,131.575 276.958,145.911 276.993,123.085 277.028,123.109 277.132,135.734 277.236,122.828 277.27,126.457 277.339,123.36 277.408,139.086 277.477,125.872 277.511,128.078 277.545,143.776 277.614,122.213 277.75,140.459 277.784,127.235 277.852,143.548 277.987,131.611 278.021,137.667 278.054,140.939 278.121,126.184 278.222,126.449 278.255,128.526 278.356,121.082 278.489,134.933 278.522,128.523 278.555,133.147 278.621,121.393 278.72,130.504 278.753,125.494 278.786,135.697 278.983,125.929 279.015,122.481 279.081,118.981 279.178,140.527 279.243,124.284 279.276,125.475 279.34,125.168 279.373,140.652 279.469,129.764 279.501,131.235 279.694,125.244 279.726,136.868 279.758,128.114 279.853,119.597 279.917,136.383 279.98,125.937 280.012,130.168 280.106,122.486 280.169,142.59 280.232,137.387 280.264,128.181 280.389,122.537 280.483,129.237 280.514,131.067 280.576,138.242 280.669,121.333 280.731,122.871 280.762,125.917 280.793,137.272 280.885,121.638 280.977,121.839 281.008,119.138 281.13,128.141 281.222,127.669 281.252,126.733 281.283,125.321 281.313,139.678 281.495,126.16 281.525,144.991 281.555,123.143 281.735,132.002 281.765,125.446 281.855,135.565 281.885,122.331 281.974,127.937 282.004,135.427 282.093,121.574 282.24,126.558 282.27,140.606 282.446,121.034 282.475,134.65 282.504,129.916 282.563,138.252 282.621,123.181 282.737,133.353 282.766,127.057 282.824,116.084 282.94,137.324 282.997,129.49 283.026,130.713 283.17,133.665 283.198,124.989 283.227,125.255 283.255,126.66 283.341,136.971 283.483,122.186 283.511,123.59 283.568,120.639 283.596,129.482 283.737,121.923 283.765,123.515 283.821,127.922 283.933,114.945 283.989,125.518 284.017,125.352 284.184,136.164 284.211,117.636 284.239,123.978 284.267,131.691 284.487,123.359 284.514,133.115 284.569,118.333 284.733,120.144 284.76,128.302 284.95,117.688 284.977,130.023 285.004,122.098 285.139,119.584 285.22,134.545 285.246,123.906 285.273,126.847 285.3,129.953 285.38,120.192 285.487,120.895 285.513,125.533 285.566,141.358 285.619,118.561 285.725,126.752 285.752,123.221 285.909,131.683 285.988,119.954 286.014,124.419 286.093,118.104 286.119,131.424 286.249,130.12 286.275,125.517 286.404,133.046 286.482,122.15 286.507,125.651 286.584,121.49 286.738,129.08 286.764,135.555 286.891,119.925 286.993,126.027 287.018,123.541 287.043,117.979 287.145,128.816 287.245,120.89 287.271,121.416 287.346,118.128 287.396,138.634 287.496,122.442 287.521,122.005 287.645,118.234 287.695,132.228 287.745,124.872 287.769,122.151 287.794,134.182 287.942,116.554 287.991,126.861 288.016,126.069 288.114,117.765 288.236,130.287 288.26,121.752 288.406,129.603 288.479,119.245 288.503,134.631 288.72,120.535 288.744,122.201 288.768,129.612 288.887,135.85 288.959,121.988 288.983,125.297 289.007,127.699 289.22,116.678 289.243,120.864 289.267,115.81 289.408,132.747 289.479,119.916 289.502,119.319 289.619,119.28 289.736,126.681 289.759,122.483 289.782,139.36 289.828,117.571 289.99,122.172 290.013,120.562 290.036,130.478 290.197,119.785 290.243,126.247 290.266,119.877 290.311,133.108 290.334,118.196 290.493,123.094 290.516,113.735 290.584,136.445 290.742,118.727 290.765,118.317 290.944,127.004 290.989,113.691 291.011,133.517 291.034,136.074 291.1,117.282 291.234,125.323 291.256,125.307 291.388,112.676 291.499,125.035 291.521,117.93 291.543,127.514 291.608,114.924 291.74,117.72 291.761,120.164 291.935,134.089 291.957,111.954 291.979,119.027 292,120.609 292.173,126.912 292.237,114.085 292.259,121.289 292.366,116.483 292.43,126.572 292.494,123.006 292.515,135.522 292.6,136.139 292.643,113.366 292.749,119.812 292.77,118.591 292.812,133.839 292.896,114.39 292.98,123.607 293.001,115.158 293.085,128.464 293.189,114.849 293.231,123.795 293.252,120.722 293.376,128.861 293.459,115.135 293.48,123.052 293.5,121.447 293.583,130.519 293.603,113.815 293.747,128.944 293.767,121.794 293.849,116.739 293.89,129.054 293.992,119.642 294.012,119.22 294.032,112.584 294.113,124.825 294.235,124.739 294.255,119.664 294.335,112.356 294.375,126.183 294.496,114.527 294.516,119.95 294.655,128.352 294.715,112.749 294.735,123.985 294.754,115.82 294.873,113.154 294.932,128.632 294.991,120.405 295.011,114.674 295.07,147.832 295.246,115.477 295.266,120.016 295.344,125.774 295.363,113.238 295.499,116.413 295.518,116.882 295.731,125.146 295.75,115.792 295.769,116.724 295.903,116.223 295.922,137.592 295.999,122.074 296.018,122.925 296.094,112.673 296.132,127.477 296.246,123.815 296.264,114.974 296.359,132.384 296.49,127.39 296.509,123.258 296.547,112.271 296.64,124.699 296.734,118.845 296.752,120.507 296.789,135.932 296.956,112.957 296.993,115.091 297.012,141.699 297.104,114.159 297.232,118.192 297.251,116.288 297.397,128.047 297.415,112.877 297.488,113.991 297.506,126.111 297.579,133.078 297.724,112.776 297.742,116.47 297.76,115.735 297.868,127.219 297.957,111.992 297.993,121.349 298.011,118.864 298.1,131.721 298.136,113.015 298.243,117.626 298.26,117.668 298.367,112.007 298.455,132.114 298.49,114.849 298.508,130.91 298.719,113.191 298.736,113.332 298.754,120.606 298.788,110.35 298.928,123.71 298.997,116.567 299.014,117.333 299.032,109.328 299.049,137.647 299.239,114.411 299.256,115.513 299.342,129.281 299.462,111.16 299.496,118.676 299.513,112.333 299.632,119.243 299.717,110.71 299.734,114.518 299.751,114.821 299.852,138.301 299.953,113.099 299.987,118.482 300.004,118.891 300.054,121.071 300.104,111.61 300.238,114.67 300.255,117.452 300.321,128.652 300.47,109.778 300.487,114.892 300.504,112.776 300.636,110.848 300.668,125.986 300.734,115.71 300.751,113.345 300.767,123.445 300.816,113.056 300.996,115.621 301.012,119.101 301.028,109.657 301.239,138.404 301.255,113.476 301.303,133.15 301.496,117.515 301.512,112.182 301.544,110.568 301.608,129.521 301.735,118.743 301.751,118.252 301.799,124.939 301.91,110.625 301.989,120.417 302.004,120.511 302.083,126.54 302.24,110.915 302.256,111.697 302.318,111.659 302.334,127.481 302.489,113.931 302.505,113.251 302.536,128.901 302.582,110.888 302.737,119.125 302.752,114.006 302.906,128.278 302.921,109.943 302.997,119.372 303.013,112.721 303.211,125.249 303.226,109.393 303.241,115.774 303.256,115.251 303.286,110.859 303.362,127.134 303.497,113.391 303.512,112.676 303.527,107.977 303.603,124.185 303.737,113.372 303.752,119.713 303.767,122.278 303.975,109.525 303.99,119.906 304.004,123.15 304.226,108.534 304.24,115.791 304.255,109.639 304.27,128.06 304.46,107.794 304.489,122.203 304.503,116.249 304.533,110.374 304.649,139.07 304.736,114.927 304.75,119.731 304.808,123.661 304.837,110.86 304.995,118.221 305.009,111.077 305.138,130.114 305.195,109.454 305.238,110.172 305.252,136.51 305.309,106.022 305.493,121.187 305.507,115.346 305.563,127.309 305.605,108.387 305.746,115.778 305.76,117.507 305.788,125.032 305.871,110.039 305.997,117.017 306.01,110.885 306.177,124.536 306.232,108.034 306.246,111.423 306.259,109.866 306.273,127.795 306.493,116.448 306.506,119.034 306.588,126.812 306.643,107.284 306.738,119.927 306.751,116.428 306.819,107.688 306.887,122.388 306.995,112.437 307.008,135.789 307.196,108.595 307.249,112.937 307.263,118.583 307.422,144.818 307.489,105.023 307.502,110.231 307.7,107.453 307.739,121.64 307.752,117.338 307.818,105.907 307.988,124.129 308.001,109.273 308.222,129.752 308.235,107.559 308.248,118.893 308.261,107.514 308.377,107.268 308.428,133.681 308.493,109.606 308.505,112.712 308.646,104.652 308.723,129.247 308.748,110.849 308.761,119.317 308.774,105.853 308.824,122.562 308.989,106.844 309.002,109.259 309.103,107.37 309.203,129.848 309.241,115.533 309.253,108.107 309.341,119.682 309.453,107.7 309.49,111.05 309.503,115.388 309.713,106.593 309.738,119.382 309.75,115.436 309.775,105.035 309.886,118.92 309.996,116.584 310.008,108.485 310.167,119.409 310.24,105.513 310.252,110.52 310.409,105.917 310.47,131.704 310.494,111.415 310.506,108.563 310.638,127.06 310.698,106.379 310.746,111.044 310.758,111.558 310.805,106.445 310.936,118.335 310.996,110.081 311.008,110.547 311.055,126.165 311.173,106.472 311.244,116.776 311.255,122.091 311.385,126.386 311.49,105.982 311.501,119.935 311.536,102.872 311.571,124.404 311.745,110.716 311.757,111.737 311.873,105.86 311.884,121.1 311.999,110.342 312.011,106.529 312.114,121.22 312.125,104.249 312.239,115.223 312.251,107.265 312.33,135.701 312.364,105.048 312.489,110.424 312.5,119.047 312.523,105.249 312.748,124.322 312.759,110.474 312.86,129.226 312.972,104.89 312.994,110.111 313.005,108.404 313.038,123.537 313.216,105.095 313.249,105.925 313.26,111.311 313.392,103.155 313.414,117.891 313.491,112.105 313.502,111.086 313.524,103.703 313.6,117.73 313.742,109.069 313.753,107.77 313.98,123.535 313.991,102.143 314.001,113.051 314.012,105.587 314.109,121.446 314.248,107.743 314.259,111.685 314.366,104.804 314.493,119.377 314.504,109.608 314.61,118.713 314.747,104.693 314.758,111.88 314.831,128.127 314.915,104.109 314.999,111.903 315.009,103.924 315.061,128.835 315.248,109.456 315.259,121.647 315.331,123.822 315.465,105.357 315.496,112.107 315.506,122.316 315.732,103.419 315.742,119.962 315.752,109.864 315.965,101.477 315.986,119.154 315.996,110.436 316.006,112.008 316.016,115.709 316.197,105.017 316.248,110.565 316.258,106.884 316.318,123 316.448,100.825 316.498,114.945 316.508,120.33 316.547,129.357 316.637,103.919 316.746,106.911 316.755,105.981 316.785,103.305 316.952,118.933 316.992,116.982 317.001,107.34 317.09,100.213 317.099,137.328 317.246,105.278 317.255,111.995 317.304,118.037 317.439,101.179 317.497,114.66 317.507,103.906 317.565,100.4 317.728,120.5 317.747,105.053 317.757,119.887 317.833,101.88 317.929,123.136 317.995,106.057 318.005,108.963 318.024,102.351 318.071,119.812 318.241,108.581 318.251,99.9593 318.326,122.986 318.495,106.71 318.504,110.316 318.662,118.471 318.69,100.765 318.746,103.861 318.755,108.286 318.783,101.209 318.866,117.463 318.995,110.203 319.005,106.149 319.087,127.941 319.133,100.731 319.243,114.057 319.252,103.53 319.416,122.548 319.497,103.248 319.507,110.169 319.534,122.078 319.714,101.188 319.741,108.301 319.75,111.045 319.804,100.74 319.965,118.529 319.992,106.802 320.001,105.649 320.152,124.829 320.24,101.107 320.249,107.53 320.258,103.743 320.32,120.309 320.452,97.469 320.496,109.044 320.505,102.284 320.513,100.452 320.548,124.49 320.749,107.033 320.758,103.617 320.775,118.958 320.966,101.42 320.992,104.913 321.001,104.418 321.052,127.572 321.078,100.611 321.241,119.958 321.25,102.195 321.361,98.9664 321.412,120.19 321.498,102.726 321.506,107.88 321.591,120.805 321.599,100.803 321.743,111.781 321.751,114.921 321.869,128.433 321.987,100.02 321.995,112.517 322.003,101.192 322.054,100.906 322.12,119.116 322.245,103.762 322.253,105.263 322.303,115.725 322.369,100.606 322.493,108.883 322.501,105.133 322.592,100.115 322.633,119.41 322.747,103.103 322.756,105.615 322.854,123.443 322.87,99.7137 323,115.274 323.008,99.8054 323.04,118.846 323.169,97.6457 323.242,108.383 323.25,105.374 323.282,117.291 323.29,100.128 323.498,105.14 323.506,130.942 323.673,99.1651 323.745,110.003 323.753,107.912 323.855,115.072 323.942,100.194 323.997,102.531 324.005,109.118 324.138,111.235 324.161,99.9048 324.247,103.892 324.255,104.585 324.278,119.084 324.379,101.036 324.496,101.977 324.503,102.021 324.511,98.0642 324.734,122.939 324.75,106.673 324.757,103.952 324.765,98.1826 324.796,113.594 324.994,103.093 325.002,109.777 325.055,116.13 325.222,97.5613 325.244,102.751 325.252,103.536 325.267,98.3379 325.395,117.987 325.5,109.297 325.507,103.361 325.537,98.2038 325.582,114.61 325.746,106.342 325.753,105.708 325.872,120.68 325.99,98.7858 325.998,102.201 326.005,106.693 326.079,116.585 326.196,97.0688 326.247,101.296 326.255,105.602 326.349,120.507 326.459,98.1989 326.495,103.738 326.502,110.427 326.611,115.921 326.632,96.947 326.748,98.0013 326.755,108.218 326.863,118.846 326.977,96.9131 326.999,106.858 327.006,108.158 327.177,97.4576 327.248,116.089 327.255,98.624 327.34,117.808 327.361,96.8745 327.495,108.483 327.502,98.5392 327.523,125.695 327.698,95.5467 327.747,110.455 327.754,120.445 327.879,97.5061 327.997,102.186 328.004,105.514 328.107,115.896 328.149,97.3727 328.245,107.983 328.252,102.184 328.409,114.455 328.45,96.1589 328.498,104.078 328.505,105.581 328.511,96.7453 328.6,113.597 328.749,103.268 328.756,102.694 328.857,112.874 328.984,97.2932 328.998,103.424 329.004,97.4806 329.112,110.195 329.185,95.2748 329.245,102.229 329.251,103.438 329.437,95.3453 329.457,110.674 329.497,104.824 329.503,109.381 329.641,111.422 329.746,94.5953 329.753,122.258 329.851,96.8699 329.994,117.802 330,99.1571 330.162,130.902 330.24,95.6251 330.246,99.2382 330.253,97.9887 330.311,113.353 330.433,96.0381 330.497,103.176 330.503,108.553 330.611,95.4584 330.637,123.124 330.745,96.992 330.751,95.6268 330.789,94.2493 330.846,111.05 330.997,107.565 331.004,98.7708 331.054,112.787 331.236,94.9213 331.248,102.223 331.254,101.975 331.292,96.5455 331.329,113.144 331.497,107.012 331.503,98.5619 331.546,116.508 331.633,94.5785 331.75,100.643 331.756,105.361 331.799,121.1 331.988,96.5323 331.994,102.428 332.001,103.235 332.104,124.501 332.153,94.4857 332.249,101.962 332.256,102.55 332.268,93.558 332.46,123.988 332.496,101.926 332.502,111.196 332.55,94.9185 332.622,116.936 332.747,96.3095 332.753,103.137 332.854,90.558 332.908,116.164 332.996,102.144 333.002,108.819 333.008,94.2589 333.026,109.645 333.249,104.825 333.255,94.2303 333.279,93.1681 333.413,114.495 333.494,98.3133 333.5,104.023 333.616,121.566 333.68,92.0596 333.749,99.1216 333.755,103.092 333.772,115.425 333.784,94.3258 333.996,105.591 334.002,95.865 334.088,91.9184 334.122,120.525 334.247,105.64 334.253,94.8215 334.411,112.232 334.479,92.8766 334.496,98.0585 334.501,99.4371 334.586,123.241 334.72,91.3818 334.748,101.893 334.754,108.174 334.77,115.575 334.865,92.3079 334.998,97.5853 335.004,96.5983 335.015,112.183 335.115,92.6543 335.247,99.5787 335.252,97.0678 335.285,121.116 335.351,93.5948 335.499,96.4937 335.504,99.5607 335.705,120.053 335.722,93.7206 335.749,94.2218 335.754,97.7571 335.835,93.2666 335.997,115.405 336.002,97.2767 336.05,114.044 336.136,92.7639 336.248,103.483 336.253,103.535 336.259,90.8673 336.386,119.024 336.497,99.2094 336.503,99.4599 336.592,113.296 336.719,92.1108 336.745,102.558 336.75,94.0843 336.755,110.428 336.954,92.2298 336.996,94.2426 337.001,98.5243 337.12,92.0266 337.151,110.038 337.25,101.917 337.255,100.274 337.281,109.789 337.435,92.121 337.496,100.751 337.501,99.8618 337.522,116.524 337.66,91.9879 337.746,100.79 337.751,99.8645 337.797,89.8289 337.903,118.665 337.999,112.876 338.004,92.5924 338.095,90.381 338.235,107.799 338.245,104.208 338.25,98.5477 338.28,91.2465 338.335,110.792 338.499,100.617 338.504,94.6046 338.564,107.544 338.598,91.2874 338.746,98.2259 338.751,94.1253 338.761,91.9668 338.899,110.13 338.996,97.237 339.001,100.229 339.142,114.143 339.147,91.9552 339.249,94.4891 339.254,98.9212 339.385,89.7658 339.399,110.603 339.495,95.9697 339.5,95.4635 339.51,89.4476 339.697,109.984 339.749,98.2665 339.754,104.641 339.759,124.405 339.792,88.4465 339.996,96.6252 340.001,103.307 340.062,114.134 340.213,89.8624 340.246,93.6312 340.25,100.13 340.344,109.431 340.452,89.0005 340.498,97.4498 340.503,97.1589 340.526,106.421 340.563,88.7462 340.749,97.8678 340.753,93.773 340.767,89.719 340.974,112.951 340.997,93.5681 341.002,89.8164 341.066,87.1502 341.235,109.862 341.248,97.8478 341.253,99.4372 341.266,88.2696 341.344,114.299 341.497,96.7741 341.502,92.9915 341.583,117.254 341.601,88.0296 341.749,92.9995 341.753,98.3049 341.785,91.1348 341.812,112.044 341.999,93.5423 342.003,106.961 342.043,108.608 342.233,88.4861 342.246,102.99 342.251,100.179 342.299,111.662 342.325,88.8022 342.496,101.765 342.501,93.2096 342.653,87.9244 342.684,111.145 342.749,97.073 342.753,94.4917 342.874,89.7029 342.896,117.923 342.999,97.8475 343.004,97.4622 343.137,109.938 343.222,88.5151 343.248,104.585 343.252,98.5368 343.359,87.0875 343.388,115.016 343.499,92.5835 343.503,99.8199 343.642,89.4316 343.659,107.931 343.747,99.1011 343.752,105.46 343.802,106.583 343.857,87.2609 343.999,89.4916 344.003,98.7301 344.024,88.911 344.036,107.305 344.248,96.082 344.252,95.0912 344.466,120.685 344.47,87.2421 344.499,98.55 344.503,87.276 344.671,115.386 344.748,95.208 344.752,91.4007 344.923,114.322 344.999,87.4818 345.003,93.1233 345.06,111.178 345.189,87.0074 345.249,99.0597 345.253,96.3445 345.424,108.662 345.468,89.7296 345.496,92.197 345.5,97.5456 345.536,110.623 345.643,86.402 345.749,99.6077 345.753,92.2436 345.813,87.9072 345.868,107.477 345.997,95.5763 346.001,108.575 346.196,87.5628 346.246,95.4095 346.25,102.458 346.258,85.9687 346.324,111.825 346.498,88.2548 346.501,91.8002 346.636,86.3649 346.682,107.776 346.747,96.2136 346.751,90.3023 346.842,85.5401 346.956,121.906 346.998,97.4689 347.002,88.5869 347.164,111.586 347.198,86.3161 347.247,89.4927 347.251,96.8405 347.285,85.171 347.498,108.399 347.502,93.7591 347.591,87.7489 347.703,106.912 347.747,93.7797 347.751,98.6842 347.814,85.9507 347.843,108.679 347.998,89.8233 348.001,101.671 348.148,85.6809 348.243,121.292 348.25,97.2387 348.254,90.8034 348.305,86.1332 348.363,120.108 348.497,88.4476 348.5,104.14 348.594,86.2205 348.738,109.932 348.749,96.8382 348.752,100.617 348.777,83.5605 348.802,109.857 348.999,98.3058 349.002,94.4392 349.144,86.3094 349.183,127.7 349.247,89.1046 349.25,90.0061 349.324,83.7002 349.426,111.842 349.5,104.8 349.503,97.9846 349.528,109.422 349.702,84.7301 349.747,94.3069 349.751,96.0842 349.869,105.593 349.983,85.1167 350,93.3409 350.003,88.2099 350.014,84.585 350.172,107.454 350.247,90.0811 350.251,95.0641 350.257,84.5571 350.438,104.713 350.499,90.4514 350.503,89.1776 350.658,103.707 350.726,84.1363 350.749,89.4424 350.753,90.0726 350.79,85.0673 350.91,102.929 350.997,90.4188 351.001,97.8263 351.047,86.1492 351.194,103.876 351.25,90.1334 351.253,88.2273 351.27,109.219 351.389,84.6939 351.497,86.1523 351.501,95.7073 351.625,82.504 351.723,105.614 351.749,98.6128 351.753,95.525 351.841,82.8822 351.873,111.171 352,87.8295 352.003,94.9458 352.103,84.1856 352.154,115.052 352.248,92.7155 352.251,98.6741 352.408,83.9147 352.417,113.038 352.497,97.0612 352.5,91.1057 352.541,84.0509 352.694,106.718 352.747,89.4253 352.751,90.1992 352.924,83.3049 352.93,104.548 352.999,90.9587 353.002,94.4213 353.043,108.153 353.187,84.5211 353.249,97.698 353.252,94.5259 353.345,109.158 353.358,82.775 353.5,94.933 353.503,92.5638 353.558,82.9393 353.669,106.478 353.749,85.7044 353.752,86.8924 353.798,82.4302 353.999,108.165 354.002,89.0737 354.047,83.0458 354.102,106.975 354.25,86.1117 354.253,89.0807 354.373,81.2187 354.418,101.398 354.499,93.9601 354.502,112.079 354.528,117.168 354.633,83.6558 354.749,85.3346 354.752,91.2061 354.754,81.9366 354.967,104.512 355,90.2138 355.003,86.1867 355.184,83.635 355.222,102.453 355.249,94.332 355.252,88.0613 355.301,81.4093 355.362,104.213 355.499,91.439 355.501,97.8712 355.516,106.888 355.632,82.1567 355.749,84.2833 355.752,84.6055 355.838,99.3045 355.858,81.841 355.998,82.1652 356.001,85.6041 356.192,109.718 356.223,81.9635 356.248,92.2768 356.251,90.2691 356.274,80.4123 356.415,103.538 356.499,98.1284 356.502,90.8627 356.65,106.713 356.692,81.2055 356.747,86.6194 356.75,99.2996 356.939,109.584 356.997,82.2341 357,82.7751 357.002,84.7635 357.151,81.8226 357.201,108.264 357.25,86.4786 357.253,88.0219 357.318,82.1583 357.463,109.148 357.498,90.3491 357.501,86.4684 357.558,81.8931 357.599,105.003 357.75,92.3984 357.753,86.391 357.836,105.305 357.97,80.4269 358,89.7623 358.002,92.1096 358.096,79.757 358.224,105.866 358.247,101.883 358.25,86.7262 358.271,79.4003 358.456,101.493 358.499,91.0336 358.501,89.2237 358.556,102.952 358.688,80.5051 358.748,86.9599 358.75,93.5062 358.844,80.0251 358.86,103.16 358.997,96.0702 359,83.5665 359.145,79.6272 359.186,103.754 359.248,95.2216 359.25,87.2288 359.443,80.4489 359.483,101.614 359.499,80.8205 359.501,93.5939 359.702,81.2254 359.74,109.93 359.748,91.2092 359.75,81.5698 359.765,106.486 359.882,78.2345 360,85.8219 360.002,86.6368 360.025,77.4298 360.1,104.556 360.25,90.0853 360.252,87.6066 360.344,79.6545 360.495,107.111 360.498,84.9808 360.5,83.6785 360.574,77.9339 360.641,102.536 360.749,92.48 360.751,84.4671 360.869,98.8615 360.874,78.3306 360.998,85.9626 361.001,78.3225 361.018,102.624 361.248,96.7949 361.25,86.8078 361.423,80.0813 361.486,125.081 361.498,83.9866 361.5,97.025 361.502,76.7424 361.712,106.858 361.748,80.789 361.75,91.654 361.793,105.691 361.812,78.0402 361.999,88.5244 362.001,81.5559 362.184,78.8669 362.215,109.325 362.25,87.7924 362.252,85.9458 362.36,78.5224 362.376,104.968 362.499,86.2409 362.501,84.735 362.587,115.882 362.698,78.6583 362.749,87.1717 362.751,92.1067 362.806,106.776 362.9,77.6846 362.998,85.3125 363.001,101.436 363.242,108.6 363.244,79.021 363.249,85.1342 363.251,86.7256 363.375,104.031 363.393,77.9138 363.499,86.6699 363.501,79.8005 363.669,100.69 363.701,78.1223 363.75,90.8274 363.752,87.7742 363.828,110.162 363.992,77.3913 363.998,84.0664 364.001,87.7641 364.089,99.9398 364.168,78.4424 364.25,89.1446 364.252,87.5047 364.433,76.0335 364.44,126.606 364.499,91.9486 364.501,92.3056 364.61,110.876 364.69,76.8163 364.748,88.8767 364.75,85.4349 364.88,74.8535 364.895,103.165 365,86.3677 365.002,88.8011 365.213,106.269 365.226,77.0971 365.249,84.4487 365.252,90.7825 365.254,101.689 365.351,77.5321 365.499,84.3794 365.501,81.4209 365.575,76.857 365.626,104.167 365.749,80.7118 365.751,91.0468 365.787,103.32 365.881,75.9288 365.999,98.5013 366.002,85.2732 366.118,110.178 366.138,75.5386 366.25,81.7033 366.252,80.3257 366.278,74.8285 366.301,110.299 366.5,86.9059 366.502,84.2382 366.579,76.4263 366.702,98.3618 366.748,78.9044 366.75,84.2944 366.754,100.68 366.96,74.247 366.999,93.8763 367.001,81.9335 367.113,76.2618 367.213,104.724 367.249,78.9751 367.251,82.7278 367.315,74.5498 367.462,103.299 367.499,79.5048 367.501,76.0965 367.636,75.248 367.705,105.147 367.75,82.4582 367.752,77.3872 367.756,73.2885 367.852,98.7796 367.998,79.2218 368,88.3254 368.002,75.0322 368.202,97.6161 368.249,86.7901 368.251,76.074 368.37,104.525 368.42,74.1939 368.499,86.2808 368.501,79.7614 368.641,75.1451 368.7,101.919 368.749,82.2112 368.751,82.1368 368.778,75.4476 368.96,108.665 368.999,77.068 369.001,82.557 369.049,105.334 369.124,73.2689 369.25,77.5453 369.251,85.9066 369.326,71.6015 369.492,122.934 369.5,82.8311 369.501,80.9925 369.703,103.599 369.72,74.7495 369.749,82.3589 369.751,83.8497 369.76,99.4695 369.873,76.1763 369.999,85.5852 370.001,79.8741 370.005,106.283 370.025,73.3876 370.249,82.4078 370.251,79.5815 370.256,102.605 370.381,72.4339 370.5,82.6416 370.502,91.3112 370.656,73.5324 370.685,103.719 370.749,83.5386 370.751,78.4532 370.812,74.0926 370.984,105.402 371,81.2623 371.002,78.5372 371.021,73.2384 371.177,108.589 371.249,83.4353 371.251,84.7827 371.384,99.7011 371.473,73.5974 371.499,89.6016 371.501,82.1649 371.612,113.414 371.635,73.4312 371.749,84.2253 371.751,80.9982 371.937,98.3076 371.948,73.4083 371.999,91.7565 372.001,82.1204 372.078,71.0561 372.141,97.4266 372.249,74.3352 372.251,75.5373 372.278,90.875 372.437,72.6979 372.5,77.92 372.502,81.9235 372.615,69.8747 372.623,106.194 372.749,79.2284 372.751,73.9727 372.97,72.7131 372.976,97.2729 373,85.0751 373.001,76.2078 373.006,98.7876 373.208,71.0646 373.25,86.2983 373.251,80.3899 373.38,105.088 373.431,71.6672 373.499,86.6424 373.501,77.3508 373.718,98.4337 373.742,72.1652 373.749,78.4759 373.751,80.1303 373.833,72.3861 373.909,97.0426 374,80.4469 374.001,75.6697 374.013,71.6379 374.072,101.848 374.248,78.2139 374.25,83.4801 374.389,99.432 374.441,68.834 374.498,81.8979 374.5,75.9117 374.529,96.9402 374.731,71.4389 374.75,82.2258 374.751,74.3555 374.921,71.2652 374.936,96.2425 374.999,81.7152 375,75.8909 375.133,71.5133 375.206,92.7523 375.249,79.7115 375.251,73.599 375.331,101.235 375.464,70.491 375.499,86.209 375.501,81.8528 375.631,69.0573 375.71,96.017 375.749,80.1002 375.75,76.5008 375.753,112.659 375.901,69.5788 375.999,73.4809 376.001,78.6953 376.034,105.768 376.242,69.5715 376.249,81.0163 376.251,74.6883 376.285,98.1915 376.424,69.6417 376.499,73.0335 376.5,78.3382 376.588,100.878 376.701,71.0724 376.749,75.0329 376.751,79.4007 376.888,105.344 376.998,68.7948 376.999,78.8586 377.001,77.8736 377.011,69.1905 377.064,98.6483 377.249,74.3671 377.25,88.258 377.298,93.4272 377.429,69.2578 377.499,77.0489 377.501,73.793 377.534,70.9978 377.714,97.6502 377.749,79.2327 377.751,78.6834 377.768,94.7937 377.862,69.7018 377.999,78.0093 378,86.6125 378.173,69.7781 378.241,101.87 378.249,84.0439 378.25,76.6958 378.272,102.461 378.293,70.6906 378.499,80.3792 378.5,80.63 378.539,68.6083 378.703,101.177 378.749,78.7684 378.751,74.3996 378.893,68.3567 378.98,93.1883 378.999,71.8242 379.001,74.2368 379.04,95.4922 379.124,68.2739 379.25,73.7496 379.251,71.2679 379.304,67.9756 379.421,105.435 379.5,74.2391 379.501,72.6401 379.576,68.3774 379.611,99.7802 379.749,76.6207 379.751,74.987 379.784,67.9697 379.982,99.6693 379.999,75.7378 380.001,72.476 380.055,66.4827 380.17,97.4682 380.249,69.439 380.25,75.2852 380.254,67.5667 380.468,92.9892 380.499,72.8422 380.5,88.3123 380.572,99.8919 380.674,67.4436 380.75,72.5881 380.751,74.3923 380.849,67.7619 380.881,98.4832 380.999,69.4495 381,72.2858 381.182,90.597 381.234,67.933 381.249,69.8967 381.251,69.5023 381.358,95.2097 381.452,67.2411 381.5,71.6241 381.501,73.8479 381.515,99.0899 381.527,66.6897 381.749,74.3516 381.75,75.4056 381.822,66.5891 381.956,93.0678 382,84.8883 382.001,73.8205 382.151,95.2384 382.171,65.5907 382.249,68.1169 382.25,67.8019 382.318,89.5127 382.328,66.31 382.5,72.7844 382.501,75.8826 382.523,66.4643 382.718,91.609 382.749,75.3797 382.75,69.3002 382.99,64.4296 382.998,95.7568 382.999,75.6889 383.001,69.7499 383.044,92.8205 383.191,65.8075 383.249,76.9688 383.25,79.5831 383.422,66.436 383.455,101.233 383.499,78.7275 383.501,78.5097 383.547,66.4168 383.578,101.02 383.749,70.4582 383.75,72.8835 383.885,91.7596 383.973,64.6605 384,67.3662 384.001,72.7827 384.186,65.0979 384.223,95.8353 384.249,76.2239 384.25,70.3121 384.352,64.8551 384.387,91.2959 384.5,74.6954 384.501,77.8058 384.637,63.9918 384.664,95.8769 384.749,74.2867 384.75,85.4177 384.892,64.7729 384.894,95.7192 384.999,71.8993 385,93.6819 385.096,64.4516 385.25,78.9964 385.251,68.463 385.426,95.3954 385.479,63.531 385.499,68.3495 385.5,73.6763 385.539,90.5072 385.626,64.3379 385.75,65.8405 385.751,76.2628 385.832,61.3549 385.99,91.2504 386,86.6371 386.001,71.711 386.068,63.0028 386.126,93.7693 386.249,71.3199 386.25,76.4122 386.43,88.8742 386.488,63.8618 386.499,69.6503 386.501,67.7706 386.553,63.5227 386.62,91.0271 386.749,74.4819 386.75,75.8002 386.856,62.7317 386.932,88.3602 387,67.2664 387.001,75.2335 387.069,88.0876 387.114,62.6292 387.25,73.6206 387.251,72.0374 387.442,92.9869 387.445,63.1805 387.5,74.3388 387.501,73.4328 387.568,62.9021 387.697,89.2497 387.75,75.2724 387.751,72.6229 387.765,62.2633 387.773,109.921 388,65.7171 388.001,73.9765 388.054,62.1173 388.223,91.3844 388.249,79.5026 388.25,75.0182 388.255,62.1849 388.374,87.1141 388.5,69.6651 388.501,68.005 388.535,87.092 388.675,61.394 388.75,67.6292 388.751,78.2448 388.824,61.0389 388.977,92.7476 388.999,75.0254 389,70.7076 389.141,60.02 389.21,90.2739 389.25,75.4007 389.251,71.8028 389.359,90.5349 389.463,62.4365 389.499,76.0265 389.5,77.8766 389.548,95.984 389.624,61.125 389.75,67.259 389.751,65.0941 389.865,93.2855 389.936,60.3002 389.999,67.0758 390,73.9664 390.102,91.0587 390.176,60.2131 390.25,67.5506 390.251,68.5075 390.399,87.5854 390.442,59.0293 390.499,68.3071 390.5,67.1358 390.582,61.2867 390.598,93.6933 390.749,73.6098 390.75,71.6854 390.792,82.4351 390.973,61.5041 391,65.8323 391.001,69.4338 391.097,84.1076 391.152,59.5221 391.25,67.6494 391.251,62.6309 391.332,87.1517 391.437,60.5725 391.5,63.9203 391.501,66.3125 391.562,93.6568 391.655,59.4184 391.75,67.5753 391.75,71.6389 391.904,59.0948 391.972,104.039 391.999,74.9183 392,75.6198 392.046,86.9438 392.155,60.7799 392.25,65.732 392.251,68.8872 392.318,60.513 392.397,95.3435 392.5,70.5833 392.501,64.7644 392.581,94.1125 392.738,59.6491 392.749,81.7347 392.75,62.5944 392.777,85.0483 392.91,59.849 393,74.317 393.001,73.6326 393.113,87.7554 393.115,59.6426 393.25,66.1214 393.251,73.8542 393.419,58.7624 393.464,93.3888 393.5,63.104 393.501,68.2555 393.534,85.003 393.702,59.5245 393.749,66.7547 393.75,70.5238 393.879,97.8761 393.926,58.9165 394,69.149 394.001,69.8799 394.124,59.4403 394.148,94.294 394.249,70.4955 394.25,63.5895 394.292,59.0448 394.3,93.775 394.5,83.0474 394.5,68.7655 394.584,90.728 394.634,58.1406 394.749,67.0154 394.75,73.076 394.83,83.9103 394.906,59.9451 395,69.3682 395.001,73.3734 395.007,58.117 395.049,87.4882 395.25,66.0555 395.251,83.8995 395.251,93.2241 395.369,60.1735 395.499,64.8536 395.5,72.9667 395.578,58.2163 395.682,90.9074 395.75,73.0566 395.75,63.7448 395.811,86.4849 395.973,57.9065 395.999,79.2196 396,65.6379 396.038,92.7766 396.209,58.7867 396.25,62.417 396.25,67.558 396.388,93.6564 396.406,58.3665 396.5,67.1669 396.5,65.9447 396.528,59.4617 396.602,84.9781 396.75,69.9262 396.751,62.1893 396.819,96.4957 396.917,58.9189 397,72.1838 397,69.4475 397.02,58.862 397.21,92.7134 397.25,68.7835 397.251,68.7013 397.267,86.2789 397.327,59.2755 397.5,67.1524 397.5,71.9459 397.561,89.7957 397.7,58.7965 397.75,62.4405 397.75,64.9266 397.778,94.715 397.918,59.4348 398,66.2584 398.001,72.2721 398.004,89.3681 398.102,58.2936 398.25,65.2238 398.251,69.9042 398.452,92.8678 398.49,57.7063 398.5,65.2869 398.501,69.5977 398.618,59.2492 398.704,85.5684 398.75,68.6712 398.75,83.5077 398.913,58.4159 398.922,91.6322 398.999,66.6192 399,66.329 399.017,59.3936 399.145,94.152 399.25,64.1421 399.25,67.1861 399.454,89.3408 399.476,57.799 399.5,70.538 399.501,68.6166 399.555,97.8617 399.606,58.2237 399.75,63.7964 399.75,63.814 399.751,86.3941 399.978,59.7966 399.999,63.694 400,64.7908 400.056,59.0377 400.206,94.841 400.249,66.8404 400.25,63.1738 400.351,58.7322 400.359,90.8074 400.5,67.1116 400.5,78.3286 400.558,86.0773 400.705,58.9657 400.75,59.7044 400.751,68.6957 400.887,59.9981 400.888,93.7149 401,71.3871 401,67.2844 401.139,60.0743 401.221,89.9108 401.25,68.7296 401.251,71.8657 401.323,59.2297 401.466,89.5359 401.5,72.4885 401.5,66.0733 401.509,58.8982 401.687,92.0901 401.75,65.8008 401.75,66.6271 401.772,58.76 401.962,91.2321 402,73.1374 402,71.1843 402.131,57.6842 402.181,87.3527 402.249,77.0257 402.25,68.7451 402.319,98.846 402.324,58.9261 402.5,73.9129 402.501,67.6875 402.618,96.1283 402.619,58.3199 402.75,65.4293 402.75,61.6198 402.825,59.434 402.862,86.7898 403,70.7536 403,69.5284 403.068,59.3455 403.231,93.9804 403.249,67.5919 403.25,76.5642 403.363,58.3539 403.428,90.2708 403.5,71.0899 403.5,64.8957 403.562,59.5526 403.744,89.5036 403.749,64.0382 403.75,67.3045 403.865,58.6585 403.958,88.5277 404,72.7185 404,65.6059 404.011,99.4308 404.047,59.3902 404.25,62.8247 404.25,65.738 404.444,59.2592 404.484,88.1843 404.5,71.91 404.5,64.3983 404.608,58.0927 404.679,88.8183 404.749,63.1166 404.75,72.0609 404.918,91.409 404.935,58.1035 405,80.0938 405,61.996 405.122,89.3352 405.166,59.3014 405.25,66.7564 405.25,69.0558 405.316,88.1614 405.411,59.0763 405.5,64.4 405.5,66.2753 405.736,57.9116 405.744,87.8682 405.75,65.0732 405.751,65.7844 405.839,58.1212 405.883,90.223 405.999,72.055 406,71.7019 406.098,94.9497 406.234,58.7997 406.25,74.0544 406.25,63.6676 406.298,94.8124 406.369,59.5131 406.499,63.2012 406.5,62.4338 406.599,57.9369 406.663,91.4809 406.749,70.9706 406.75,71.7603 406.837,86.6244 406.922,60.2025 407,66.6586 407,91.8947 407.08,59.5199 407.16,97.1942 407.25,67.9798 407.25,67.9007 407.357,91.5323 407.435,60.0665 407.5,75.5146 407.5,70.8331 407.664,59.6077 407.679,90.2076 407.75,66.6048 407.75,71.046 407.907,58.4618 407.952,87.686 408,66.3986 408.001,62.6762 408.125,94.8506 408.125,57.0146 408.25,67.5921 408.25,62.6928 408.304,89.4151 408.453,57.2938 408.5,72.4077 408.5,64.8804 408.704,91.0446 408.737,58.5873 408.749,68.4245 408.75,64.0344 408.807,89.1117 408.905,57.9965 409,76.8302 409,67.2317 409.127,90.0347 409.245,57.993 409.25,76.3169 409.25,65.3329 409.295,87.8972 409.427,58.3296 409.5,62.3619 409.5,63.9125 409.579,57.4989 409.648,91.6187 409.75,71.0794 409.75,67.4932 409.825,58.8642 409.856,105.476 410,69.9956 410,71.7382 410.031,59.6909 410.235,88.6623 410.25,77.9433 410.25,76.2483 410.318,88.0898 410.403,59.6823 410.5,64.3284 410.5,72.7286 410.526,59.1583 410.699,91.9263 410.75,64.5622 410.75,70.6629 410.854,59.1717 410.986,90.143 411,71.2607 411,67.1553 411.171,57.8932 411.216,91.5514 411.25,72.104 411.25,71.416 411.382,59.7234 411.416,87.9246 411.5,83.6983 411.5,67.6187 411.666,97.0652 411.744,58.5998 411.75,60.379 411.75,67.0062 411.789,100.327 411.981,50.6095 412,69.6227 412,64.5141 412.035,86.9912 412.216,43.4667 412.25,74.4915 412.25,65.1528 412.366,95.9053 412.392,42.1908 412.5,74.0401 412.5,63.2567 412.508,44.224 412.64,103.871 412.75,70.8786 412.75,63.1583 412.789,89.4401 412.854,43.9784 413,71.948 413,66.1115 413.03,93.78 413.197,45.5384 413.25,66.1574 413.25,63.468 413.254,44.645 413.316,91.0345 413.5,63.3594 413.5,61.9692 413.592,45.3345 413.712,86.2803 413.75,75.8749 413.75,72.8601 413.815,45.91 413.816,94.6057 414,66.526 414,64.4159 414.093,46.3969 414.202,92.0365 414.25,66.7225 414.25,67.0015 414.259,92.7342 414.313,45.8984 414.5,64.2769 414.5,80.6136 414.531,46.0358 414.708,85.502 414.75,67.3675 414.75,62.5771 414.94,94.3905 414.964,47.7536 415,67.8322 415,65.9308 415.125,47.232 415.199,88.9949 415.25,68.2537 415.25,68.8792 415.274,96.2266 415.496,47.1792 415.5,68.0879 415.5,67.8695 415.632,89.8119 415.654,47.2574 415.75,64.9652 415.75,64.5669 415.812,47.4266 415.915,103.017 416,67.4441 416,67.8656 416.124,47.8877 416.161,98.6727 416.25,71.91 416.25,68.6884 416.433,46.8587 416.436,97.4944 416.5,63.5837 416.5,77.3694 416.507,96.32 416.586,47.1441 416.75,67.762 416.75,66.178 416.853,88.0292 416.992,48.5011 417,73.7693 417,72.0106 417.142,48.2997 417.238,91.3223 417.25,68.9724 417.25,67.152 417.276,99.6997 417.292,48.8052 417.5,73.6384 417.5,70.9895 417.541,48.763 417.621,88.3416 417.75,64.748 417.75,64.9491 417.787,48.8086 417.942,93.0969 418,67.4836 418,66.8739 418.226,48.132 418.235,97.3368 418.25,78.5136 418.25,74.5566 418.292,90.3106 418.467,48.0493 418.5,70.9903 418.5,66.7029 418.563,49.3769 418.602,100.362 418.75,72.4298 418.75,69.3558 418.976,102.1 418.992,47.679 419,68.2251 419,72.1799 419.086,50.5805 419.124,101.205 419.25,60.4193 419.25,68.3373 419.414,49.1427 419.445,91.6245 419.5,61.6368 419.5,64.0984 419.508,48.2651 419.708,94.6593 419.75,64.8583 419.75,64.0783 419.783,91.8947 419.969,48.931 420,63.5565 420,69.5999 420.211,99.2976 420.243,48.7644 420.25,71.0955 420.25,65.4176 420.334,49.4337 420.345,87.3739 420.5,72.1881 420.5,61.1226 420.604,48.9714 420.737,95.5984 420.75,66.7695 420.75,64.8887 420.889,91.2672 420.962,47.8517 421,80.175 421,63.5706 421.05,48.7322 421.242,95.1558 421.25,71.6392 421.25,66.2801 421.339,90.1541 421.446,49.0553 421.5,64.3591 421.5,70.9203 421.534,47.7536 421.712,92.8533 421.75,61.9203 421.75,68.0625 421.758,87.9136 421.924,49.0431 422,75.9176 422,62.9159 422.224,49.0824 422.247,90.8019 422.25,70.1063 422.25,72.1493 422.383,91.4491 422.437,49.2474 422.5,66.1236 422.5,61.6446 422.521,48.887 422.734,88.2002 422.75,69.0551 422.75,68.1313 422.816,49.7215 422.952,85.8152 423,71.0825 423,70.9378 423.024,49.1787 423.137,92.8794 423.25,76.7959 423.25,65.6068 423.355,48.4778 423.395,93.388 423.5,69.1834 423.5,68.2164 423.561,49.0828 423.653,99.2422 423.75,68.2598 423.75,61.0705 423.873,91.7218 423.886,48.7704 424,73.5737 424,69.5308 424.079,96.4218 424.208,49.7606 424.25,69.7732 424.25,66.4279 424.288,91.8941 424.328,48.7373 424.5,69.8998 424.5,65.2796 424.661,88.463 424.686,49.1564 424.75,69.1054 424.75,68.1058 424.804,49.6614 424.899,100.931 425,50.6489 425,75.0153 425.018,89.5037 425.039,49.3128 425.25,65.7326 425.25,64.953 425.388,49.3142 425.487,91.7422 425.5,63.1647 425.5,66.5022 425.542,88.1128 425.619,49.563 425.75,58.6351 425.75,74.216 425.886,49.7255 425.939,94.7941 426,49.8792 426,64.4997 426.142,90.7887 426.151,49.507 426.25,72.7252 426.25,63.4146 426.414,48.0372 426.483,92.6057 426.5,66.5225 426.5,71.0353 426.549,90.1543 426.563,49.7513 426.75,63.1939 426.75,68.2538 426.822,49.5601 426.851,98.9413 427,74.2045 427,68.6594 427.007,94.4443 427.225,49.0697 427.25,74.3299 427.25,58.8862 427.37,49.3198 427.416,95.7723 427.5,62.2381 427.5,60.8877 427.591,87.3254 427.659,49.2324 427.75,67.1737 427.75,66.2522 427.838,49.01 427.869,87.1764 428,64.1084 428,71.6874 428.016,49.7608 428.072,95.8752 428.25,69.1849 428.25,65.5915 428.299,48.5088 428.423,111.29 428.5,72.1649 428.5,66.8781 428.649,48.5934 428.65,95.4215 428.75,63.8494 428.75,78.1567 428.784,94.8841 428.788,48.9169 429,67.9415 429,74.9697 429.01,86.8109 429.167,49.27 429.25,61.3679 429.25,67.33 429.34,94.3063 429.372,48.6865 429.5,67.7984 429.5,65.757 429.575,48.8174 429.741,97.9257 429.75,64.2582 429.75,63.6659 429.811,49.3362 429.922,93.9065 430,63.7493 430,69.5982 430.028,96.6878 430.211,49.1983 430.25,73.7522 430.25,66.674 430.369,96.5045 430.475,49.7534 430.5,73.2749 430.5,65.745 430.638,101.764 430.704,49.2359 430.75,65.7658 430.75,70.9706 430.837,100.185 430.964,48.8908 431,67.3253 431,66.4061 431.103,93.6533 431.222,49.0446 431.25,69.4653 431.25,63.5465 431.254,49.5767 431.34,106.712 431.5,63.6388 431.5,63.999 431.541,48.9321 431.547,89.7737 431.75,69.1709 431.75,61.4736 431.951,48.3906 431.995,107.198 432,69.9248 432,65.9822 432.014,50.6966 432.055,102.272 432.25,66.4091 432.25,70.3753 432.357,49.2445 432.419,88.2682 432.5,64.9679 432.5,71.3165 432.507,98.0401 432.726,52.005 432.75,66.2673 432.75,63.3201 432.768,91.2091 432.939,48.7761 433,49.9728 433,72.7843 433.03,50.6086 433.227,99.9406 433.25,65.7246 433.25,63.0784 433.292,91.0804 433.441,56.2894 433.5,66.3802 433.5,61.9212 433.615,104.365 433.749,52.7266 433.75,74.8375 433.75,71.148 433.779,50.658 433.952,97.3633 434,68.698 434,74.6741 " />
</g>

<g fill="none" stroke="#dd5400" stroke-opacity="1" stroke-dasharray="10,6" stroke-dashoffset="0" stroke-width="0.666667" stroke-linecap="butt" stroke-linejoin="round" transform="matrix(0.75,0,0,0.75,-8,-11.625)"
font-family="Helvetica" font-size="14" font-weight="400" font-style="normal" 
>
<polyline fill="none" vector-effect="none" points="62,230.701 83.8824,219.816 96.6827,213.448 105.765,208.93 112.809,205.426 118.565,202.563 123.432,200.142 127.647,198.045 131.365,196.195 134.692,194.541 137.701,193.044 140.447,191.678 142.974,190.421 145.314,189.257 147.492,188.173 149.529,187.16 151.443,186.208 153.248,185.31 154.955,184.461 156.574,183.656 158.114,182.889 159.583,182.159 160.986,181.461 162.33,180.792 163.618,180.151 164.857,179.535 166.048,178.943 167.196,178.372 168.304,177.82 169.374,177.288 170.409,176.773 171.412,176.275 172.383,175.791 173.326,175.323 174.241,174.867 175.13,174.425 175.995,173.995 176.837,173.576 177.657,173.168 178.456,172.77 179.236,172.383 179.997,172.004 180.739,171.635 181.465,171.274 182.175,170.921 182.869,170.575 183.547,170.238 184.212,169.907 184.863,169.583 185.501,169.266 186.126,168.955 186.739,168.65 187.34,168.351 187.93,168.057 188.51,167.769 189.079,167.486 189.637,167.208 190.186,166.935 190.726,166.667 191.257,166.403 191.778,166.143 192.292,165.888 192.797,165.637 193.294,165.389 193.784,165.146 194.266,164.906 194.74,164.67 195.208,164.437 195.669,164.208 196.123,163.982 196.571,163.759 197.012,163.54 197.448,163.323 197.877,163.109 198.301,162.899 198.719,162.691 199.132,162.485 199.539,162.283 199.942,162.083 200.339,161.885 200.731,161.69 201.118,161.497 201.501,161.307 201.879,161.119 202.253,160.933 202.622,160.749 202.987,160.568 203.348,160.388 203.704,160.211 204.057,160.035 204.406,159.862 204.751,159.69 205.092,159.52 205.43,159.352 205.764,159.186 206.094,159.022 206.422,158.859 206.745,158.698 207.066,158.539 207.383,158.381 207.697,158.225 208.008,158.07 208.316,157.917 208.621,157.765 208.923,157.615 209.223,157.466 209.519,157.318 209.813,157.172 210.104,157.027 210.392,156.884 210.678,156.742 210.961,156.601 211.242,156.461 211.52,156.323 211.795,156.186 212.069,156.05 212.34,155.915 212.608,155.782 212.875,155.649 213.139,155.518 213.401,155.387 213.661,155.258 213.919,155.13 214.174,155.003 214.428,154.877 214.679,154.751 214.929,154.627 215.176,154.504 215.422,154.382 215.666,154.261 215.908,154.14 216.148,154.021 216.386,153.902 216.623,153.785 216.857,153.668 217.09,153.552 217.322,153.437 217.551,153.323 217.779,153.209 218.005,153.097 218.23,152.985 218.453,152.874 218.675,152.764 218.895,152.654 219.113,152.546 219.33,152.438 219.546,152.331 219.76,152.224 219.972,152.118 220.184,152.013 220.393,151.909 220.602,151.805 220.809,151.702 221.014,151.6 221.219,151.498 221.422,151.397 221.623,151.297 221.824,151.197 222.023,151.098 222.221,151 222.418,150.902 222.613,150.805 222.807,150.708 223.001,150.612 223.192,150.517 223.383,150.422 223.573,150.327 223.761,150.234 223.949,150.14 224.135,150.048 224.32,149.956 224.504,149.864 224.687,149.773 224.869,149.683 225.05,149.593 225.23,149.503 225.409,149.414 225.587,149.326 225.764,149.238 225.939,149.15 226.114,149.063 226.288,148.977 226.461,148.891 226.633,148.805 226.804,148.72 226.975,148.635 227.144,148.551 227.312,148.467 227.48,148.384 227.646,148.301 227.812,148.219 227.977,148.137 228.141,148.055 228.304,147.974 228.466,147.893 228.628,147.813 228.788,147.733 228.948,147.653 229.107,147.574 229.266,147.496 229.423,147.417 229.58,147.339 229.736,147.262 229.891,147.185 230.045,147.108 230.199,147.031 230.352,146.955 230.504,146.88 230.655,146.804 230.806,146.729 230.956,146.655 231.105,146.581 231.254,146.507 231.402,146.433 231.549,146.36 231.695,146.287 231.841,146.214 231.986,146.142 232.131,146.07 232.274,145.999 232.418,145.928 232.56,145.857 232.702,145.786 232.843,145.716 232.984,145.646 233.124,145.576 233.263,145.507 233.402,145.438 233.54,145.369 233.678,145.301 233.815,145.233 233.951,145.165 234.087,145.097 234.222,145.03 234.357,144.963 234.491,144.896 234.624,144.83 234.757,144.764 234.89,144.698 235.021,144.632 235.153,144.567 235.283,144.502 235.414,144.437 235.543,144.373 235.672,144.309 235.801,144.245 235.929,144.181 236.057,144.117 236.184,144.054 236.31,143.991 236.436,143.929 236.562,143.866 236.687,143.804 236.811,143.742 236.935,143.68 237.059,143.619 237.182,143.558 237.305,143.497 237.427,143.436 237.548,143.375 237.669,143.315 237.79,143.255 237.91,143.195 238.03,143.136 238.15,143.076 238.269,143.017 238.387,142.958 238.505,142.899 238.74,142.783 238.856,142.725 238.973,142.667 239.089,142.609 239.204,142.552 239.319,142.495 239.434,142.438 239.548,142.381 239.662,142.324 239.775,142.268 239.888,142.212 240,142.156 240.224,142.044 240.336,141.989 240.447,141.934 240.557,141.879 240.667,141.824 240.777,141.769 240.996,141.661 241.104,141.606 241.213,141.553 241.321,141.499 241.428,141.445 241.535,141.392 241.749,141.286 241.855,141.233 241.961,141.181 242.066,141.128 242.171,141.076 242.276,141.024 242.484,140.92 242.588,140.869 242.691,140.817 242.794,140.766 242.999,140.664 243.101,140.613 243.203,140.563 243.304,140.512 243.405,140.462 243.506,140.412 243.706,140.312 243.806,140.263 243.905,140.213 244.005,140.164 244.202,140.066 244.3,140.017 244.496,139.92 244.593,139.871 244.69,139.823 244.787,139.775 244.979,139.679 245.075,139.631 245.17,139.584 245.266,139.536 245.455,139.442 245.55,139.395 245.737,139.302 245.831,139.255 245.924,139.209 246.017,139.163 246.202,139.07 246.295,139.025 246.478,138.933 246.57,138.888 246.661,138.843 246.751,138.797 246.932,138.707 247.022,138.663 247.202,138.573 247.291,138.529 247.469,138.44 247.558,138.396 247.734,138.309 247.822,138.265 247.997,138.178 248.084,138.135 248.171,138.091 248.257,138.048 248.43,137.963 248.516,137.92 248.687,137.835 248.772,137.792 248.942,137.708 249.026,137.666 249.195,137.582 249.278,137.54 249.445,137.457 249.529,137.416 249.694,137.333 249.777,137.292 249.941,137.211 250.023,137.17 250.186,137.089 250.268,137.048 250.429,136.968 250.51,136.928 250.671,136.848 250.751,136.808 250.99,136.689 251.069,136.65 251.227,136.571 251.305,136.532 251.462,136.454 251.54,136.415 251.696,136.338 251.773,136.299 251.927,136.223 252.004,136.184 252.234,136.07 252.31,136.032 252.462,135.957 252.538,135.919 252.688,135.844 252.763,135.807 252.987,135.695 253.062,135.658 253.21,135.585 253.284,135.548 253.431,135.475 253.504,135.438 253.723,135.329 253.796,135.293 253.941,135.221 254.013,135.185 254.228,135.078 254.3,135.042 254.443,134.972 254.514,134.936 254.726,134.831 254.796,134.796 254.936,134.726 255.006,134.691 255.215,134.587 255.284,134.553 255.491,134.45 255.56,134.416 255.697,134.347 255.765,134.313 255.969,134.212 256.037,134.178 256.239,134.078 256.306,134.044 256.44,133.978 256.507,133.945 256.706,133.846 256.772,133.813 256.969,133.715 257.035,133.682 257.231,133.584 257.296,133.552 257.49,133.455 257.555,133.423 257.747,133.328 257.811,133.296 257.939,133.232 258.002,133.201 258.192,133.106 258.256,133.075 258.444,132.981 258.507,132.95 258.694,132.857 258.756,132.826 258.941,132.734 259.003,132.703 259.248,132.581 259.309,132.551 259.491,132.46 259.552,132.43 259.733,132.34 259.793,132.31 259.972,132.221 260.032,132.191 260.21,132.102 260.269,132.073 260.446,131.985 260.505,131.956 260.739,131.839 260.797,131.811 260.971,131.724 261.029,131.695 261.201,131.609 261.259,131.581 261.487,131.467 261.544,131.439 261.714,131.355 261.77,131.326 261.995,131.215 262.051,131.187 262.218,131.104 262.274,131.076 262.495,130.966 262.55,130.939 262.714,130.857 262.769,130.83 262.987,130.721 263.041,130.694 263.203,130.614 263.257,130.587 263.471,130.48 263.525,130.454 263.737,130.348 263.79,130.322 263.948,130.243 264.001,130.217 264.21,130.113 264.262,130.087 264.47,129.983 264.522,129.958 264.728,129.855 264.779,129.83 264.983,129.728 265.034,129.703 265.237,129.602 265.287,129.577 265.489,129.477 265.539,129.452 265.738,129.353 265.788,129.328 265.986,129.229 266.035,129.205 266.231,129.107 266.28,129.083 266.475,128.986 266.524,128.962 266.717,128.866 266.765,128.842 266.957,128.746 267.005,128.722 267.243,128.604 267.29,128.581 267.479,128.487 267.526,128.463 267.713,128.37 267.76,128.347 267.992,128.231 268.039,128.208 268.223,128.117 268.269,128.094 268.497,127.98 268.543,127.957 268.724,127.867 268.77,127.845 268.995,127.733 269.039,127.71 269.218,127.622 269.263,127.599 269.484,127.489 269.528,127.467 269.748,127.358 269.792,127.336 269.966,127.25 270.01,127.228 270.226,127.12 270.269,127.099 270.484,126.992 270.526,126.971 270.739,126.865 270.782,126.844 270.993,126.739 271.035,126.718 271.244,126.614 271.286,126.593 271.494,126.49 271.535,126.469 271.742,126.366 271.783,126.346 271.987,126.244 272.028,126.224 272.231,126.123 272.271,126.103 272.473,126.003 272.513,125.983 272.713,125.883 272.753,125.863 272.991,125.745 273.03,125.725 273.227,125.627 273.266,125.608 273.461,125.511 273.5,125.492 273.733,125.376 273.771,125.357 273.963,125.261 274.002,125.242 274.23,125.128 274.268,125.109 274.495,124.997 274.533,124.978 274.721,124.885 274.758,124.866 274.981,124.755 275.018,124.736 275.24,124.626 275.277,124.608 275.496,124.499 275.533,124.48 275.715,124.39 275.751,124.372 275.967,124.264 276.003,124.246 276.218,124.14 276.254,124.122 276.467,124.016 276.502,123.998 276.749,123.876 276.784,123.858 276.993,123.754 277.028,123.737 277.236,123.633 277.27,123.616 277.477,123.513 277.511,123.496 277.75,123.378 277.784,123.361 277.987,123.26 278.021,123.243 278.222,123.143 278.255,123.126 278.489,123.01 278.522,122.994 278.72,122.895 278.753,122.879 278.983,122.764 279.015,122.748 279.243,122.635 279.276,122.619 279.469,122.522 279.501,122.506 279.726,122.395 279.758,122.379 279.98,122.268 280.012,122.253 280.232,122.143 280.264,122.127 280.483,122.018 280.514,122.003 280.731,121.895 280.762,121.879 280.977,121.772 281.008,121.757 281.222,121.651 281.252,121.636 281.495,121.515 281.525,121.5 281.735,121.395 281.765,121.38 281.974,121.277 282.004,121.262 282.24,121.144 282.27,121.129 282.475,121.027 282.504,121.013 282.737,120.897 282.766,120.882 282.997,120.767 283.026,120.753 283.227,120.653 283.255,120.639 283.483,120.526 283.511,120.512 283.737,120.4 283.765,120.386 283.989,120.274 284.017,120.26 284.239,120.15 284.267,120.136 284.487,120.026 284.514,120.013 284.733,119.904 284.76,119.89 284.977,119.783 285.004,119.769 285.246,119.649 285.273,119.635 285.487,119.529 285.513,119.516 285.725,119.411 285.752,119.397 285.988,119.28 286.014,119.267 286.249,119.15 286.275,119.137 286.482,119.034 286.507,119.022 286.738,118.907 286.764,118.894 286.993,118.78 287.018,118.767 287.245,118.654 287.271,118.642 287.496,118.53 287.521,118.517 287.745,118.406 287.769,118.394 287.991,118.283 288.016,118.271 288.236,118.162 288.26,118.15 288.479,118.041 288.503,118.029 288.744,117.909 288.768,117.897 288.983,117.79 289.007,117.778 289.243,117.661 289.267,117.649 289.479,117.544 289.502,117.532 289.736,117.416 289.759,117.404 289.99,117.289 290.013,117.278 290.243,117.163 290.266,117.152 290.493,117.039 290.516,117.028 290.742,116.915 290.765,116.904 290.989,116.792 291.011,116.781 291.234,116.671 291.256,116.66 291.499,116.539 291.521,116.528 291.74,116.419 291.761,116.408 291.979,116.3 292,116.289 292.237,116.171 292.259,116.161 292.494,116.044 292.515,116.033 292.749,115.917 292.77,115.907 292.98,115.802 293.001,115.792 293.231,115.677 293.252,115.667 293.48,115.553 293.5,115.543 293.747,115.421 293.767,115.41 293.992,115.299 294.012,115.289 294.235,115.178 294.255,115.168 294.496,115.048 294.516,115.038 294.735,114.929 294.754,114.919 294.991,114.802 295.011,114.792 295.246,114.675 295.266,114.665 295.499,114.549 295.518,114.539 295.75,114.424 295.769,114.415 295.999,114.301 296.018,114.291 296.246,114.178 296.264,114.168 296.49,114.056 296.509,114.047 296.734,113.935 296.752,113.926 296.993,113.806 297.012,113.797 297.232,113.687 297.251,113.678 297.488,113.56 297.506,113.551 297.742,113.434 297.76,113.425 297.993,113.309 298.011,113.3 298.243,113.184 298.26,113.176 298.49,113.061 298.508,113.053 298.736,112.939 298.754,112.93 298.997,112.809 299.014,112.801 299.239,112.689 299.256,112.68 299.496,112.561 299.513,112.553 299.734,112.443 299.751,112.434 299.987,112.317 300.004,112.309 300.238,112.192 300.255,112.184 300.487,112.068 300.504,112.06 300.734,111.945 300.751,111.937 300.996,111.815 301.012,111.807 301.239,111.694 301.255,111.686 301.496,111.566 301.512,111.558 301.735,111.447 301.751,111.439 301.989,111.321 302.004,111.314 302.24,111.196 302.256,111.189 302.489,111.072 302.505,111.065 302.737,110.949 302.752,110.942 302.997,110.82 303.013,110.812 303.241,110.699 303.256,110.691 303.497,110.571 303.512,110.564 303.737,110.452 303.752,110.444 303.99,110.326 304.004,110.319 304.24,110.202 304.255,110.194 304.489,110.078 304.503,110.071 304.736,109.955 304.75,109.948 304.995,109.826 305.009,109.819 305.238,109.706 305.252,109.699 305.493,109.579 305.507,109.572 305.746,109.453 305.76,109.446 305.997,109.328 306.01,109.321 306.246,109.204 306.259,109.197 306.493,109.081 306.506,109.075 306.738,108.959 306.751,108.953 306.995,108.832 307.008,108.825 307.249,108.705 307.263,108.699 307.489,108.586 307.502,108.58 307.739,108.461 307.752,108.455 307.988,108.338 308.001,108.331 308.248,108.209 308.261,108.202 308.493,108.087 308.505,108.08 308.748,107.96 308.761,107.953 308.989,107.84 309.002,107.834 309.241,107.715 309.253,107.709 309.49,107.591 309.503,107.584 309.738,107.467 309.75,107.461 309.996,107.339 310.008,107.333 310.24,107.218 310.252,107.212 310.494,107.092 310.506,107.086 310.746,106.966 310.758,106.96 310.996,106.842 311.008,106.836 311.244,106.719 311.255,106.713 311.49,106.596 311.501,106.591 311.745,106.469 311.757,106.463 311.999,106.343 312.011,106.337 312.239,106.224 312.251,106.218 312.489,106.099 312.5,106.094 312.748,105.971 312.759,105.965 312.994,105.848 313.005,105.843 313.249,105.722 313.26,105.716 313.491,105.601 313.502,105.596 313.742,105.477 313.753,105.471 313.991,105.353 314.001,105.347 314.248,105.225 314.259,105.219 314.493,105.103 314.504,105.098 314.747,104.977 314.758,104.971 314.999,104.852 315.009,104.846 315.248,104.727 315.259,104.722 315.496,104.604 315.506,104.599 315.742,104.482 315.752,104.477 315.996,104.356 316.006,104.351 316.248,104.231 316.258,104.226 316.498,104.106 316.508,104.101 316.746,103.983 316.755,103.978 316.992,103.861 317.001,103.856 317.246,103.734 317.255,103.73 317.497,103.609 317.507,103.604 317.747,103.485 317.757,103.48 317.995,103.362 318.005,103.357 318.241,103.239 318.251,103.235 318.495,103.113 318.504,103.109 318.746,102.988 318.755,102.984 318.995,102.864 319.005,102.86 319.243,102.741 319.252,102.737 319.497,102.615 319.507,102.61 319.741,102.494 319.75,102.489 319.992,102.369 320.001,102.365 320.249,102.241 320.258,102.237 320.496,102.118 320.505,102.114 320.749,101.993 320.758,101.988 320.992,101.872 321.001,101.868 321.241,101.748 321.25,101.744 321.498,101.62 321.506,101.616 321.743,101.498 321.751,101.494 321.995,101.373 322.003,101.369 322.245,101.249 322.253,101.245 322.493,101.126 322.501,101.121 322.747,100.999 322.756,100.995 323,100.874 323.008,100.87 323.242,100.753 323.25,100.749 323.498,100.626 323.506,100.622 323.745,100.503 323.753,100.5 323.997,100.378 324.005,100.374 324.247,100.254 324.255,100.25 324.496,100.13 324.503,100.126 324.75,100.004 324.757,100 324.994,99.8824 325.002,99.8786 325.244,99.7581 325.252,99.7544 325.5,99.6311 325.507,99.6273 325.746,99.5087 325.753,99.505 325.998,99.3837 326.005,99.38 326.247,99.2596 326.255,99.256 326.495,99.1365 326.502,99.1329 326.748,99.0108 326.755,99.0072 326.999,98.8861 327.006,98.8826 327.248,98.7624 327.255,98.7589 327.495,98.6397 327.502,98.6362 327.747,98.5144 327.754,98.5109 327.997,98.3901 328.004,98.3867 328.245,98.2668 328.252,98.2634 328.498,98.1411 328.505,98.1377 328.749,98.0164 328.756,98.0131 328.998,97.8927 329.004,97.8894 329.245,97.77 329.251,97.7666 329.497,97.6449 329.503,97.6416 329.746,97.5208 329.753,97.5175 329.994,97.3977 330,97.3945 330.246,97.2723 330.253,97.2691 330.497,97.148 330.503,97.1448 330.745,97.0246 330.751,97.0215 330.997,96.8991 331.004,96.896 331.248,96.7745 331.254,96.7714 331.497,96.651 331.503,96.6479 331.75,96.5254 331.756,96.5223 331.994,96.4037 332.001,96.4007 332.249,96.2771 332.256,96.2741 332.496,96.1544 332.502,96.1514 332.747,96.0297 332.753,96.0268 332.996,95.906 333.002,95.9031 333.249,95.7804 333.255,95.7775 333.494,95.6586 333.5,95.6557 333.749,95.5321 333.755,95.5292 333.996,95.4094 334.002,95.4066 334.247,95.2849 334.253,95.2821 334.496,95.1613 334.501,95.1585 334.748,95.0359 334.754,95.0332 334.998,94.9116 335.004,94.9088 335.247,94.7882 335.252,94.7855 335.499,94.6631 335.504,94.6604 335.749,94.5389 335.754,94.5362 335.997,94.4158 336.002,94.4131 336.248,94.2909 336.253,94.2883 336.497,94.1671 336.503,94.1645 336.745,94.0442 336.75,94.0416 336.996,93.9197 337.001,93.9171 337.25,93.7936 337.255,93.7911 337.496,93.6711 337.501,93.6686 337.746,93.547 337.751,93.5445 337.999,93.4214 338.004,93.4189 338.245,93.2993 338.25,93.2968 338.499,93.1731 338.504,93.1707 338.746,93.0505 338.751,93.048 338.996,92.9264 339.001,92.9239 339.249,92.8008 339.254,92.7984 339.495,92.6786 339.5,92.6762 339.749,92.5527 339.754,92.5503 339.996,92.4301 340.001,92.4277 340.246,92.3061 340.25,92.3038 340.498,92.1808 340.503,92.1785 340.749,92.0565 340.753,92.0542 340.997,91.9332 341.002,91.9309 341.248,91.8086 341.253,91.8063 341.497,91.685 341.502,91.6827 341.749,91.5601 341.753,91.5579 341.999,91.4362 342.003,91.434 342.246,91.3133 342.251,91.3111 342.496,91.1892 342.501,91.187 342.749,91.0639 342.753,91.0617 342.999,90.9396 343.004,90.9375 343.248,90.8163 343.252,90.8142 343.499,90.6919 343.503,90.6898 343.747,90.5684 343.752,90.5664 343.999,90.4439 344.003,90.4418 344.248,90.3204 344.252,90.3183 344.499,90.1957 344.503,90.1937 344.748,90.0721 344.752,90.0701 344.999,89.9474 345.003,89.9454 345.249,89.8238 345.253,89.8218 345.496,89.7011 345.5,89.6991 345.749,89.5754 345.753,89.5735 345.997,89.4527 346.001,89.4508 346.246,89.3291 346.25,89.3272 346.498,89.2045 346.501,89.2026 346.747,89.0809 346.751,89.079 346.998,88.9564 347.002,88.9545 347.247,88.8328 347.251,88.831 347.498,88.7085 347.502,88.7066 347.747,88.585 347.751,88.5832 347.998,88.4608 348.001,88.459 348.25,88.3357 348.254,88.3339 348.497,88.2134 348.5,88.2116 348.749,88.0885 348.752,88.0868 348.999,87.9647 349.002,87.9629 349.247,87.8418 349.25,87.84 349.5,87.7163 349.503,87.7146 349.747,87.5936 349.751,87.5919 350,87.4685 350.003,87.4668 350.247,87.3461 350.251,87.3444 350.499,87.2212 350.503,87.2195 350.749,87.0974 350.753,87.0957 350.997,86.9745 351.001,86.9728 351.25,86.8493 351.253,86.8477 351.497,86.7268 351.501,86.7251 351.749,86.6019 351.753,86.6003 352,86.4781 352.003,86.4765 352.248,86.3553 352.251,86.3537 352.497,86.2318 352.5,86.2303 352.747,86.1078 352.751,86.1062 352.999,85.9832 353.002,85.9816 353.249,85.8596 353.252,85.858 353.5,85.7354 353.503,85.7339 353.749,85.6122 353.752,85.6107 353.999,85.4886 354.002,85.4871 354.25,85.3643 354.253,85.3629 354.499,85.2411 354.502,85.2397 354.749,85.1174 354.752,85.116 355,84.9932 355.003,84.9918 355.249,84.8701 355.252,84.8686 355.499,84.7464 355.501,84.745 355.749,84.6223 355.752,84.6209 355.998,84.4992 356.001,84.4978 356.248,84.3757 356.251,84.3743 356.499,84.2518 356.502,84.2504 356.747,84.1289 356.75,84.1275 357,84.0042 357.002,84.0028 357.25,83.8805 357.253,83.8791 357.498,83.7578 357.501,83.7564 357.75,83.6334 357.753,83.632 358,83.5099 358.002,83.5086 358.247,83.3875 358.25,83.3862 358.499,83.2635 358.501,83.2622 358.748,83.1404 358.75,83.1391 358.997,83.017 359,83.0158 359.248,82.8934 359.25,82.8921 359.499,82.7695 359.501,82.7682 359.748,82.6465 359.75,82.6453 360,82.5221 360.002,82.5208 360.25,82.3986 360.252,82.3974 360.498,82.2762 360.5,82.275 360.749,82.1523 360.751,82.1511 360.998,82.0294 361.001,82.0282 361.248,81.9062 361.25,81.9051 361.498,81.7829 361.5,81.7817 361.748,81.6594 361.75,81.6582 361.999,81.5357 362.001,81.5346 362.25,81.4119 362.252,81.4107 362.499,81.289 362.501,81.2879 362.749,81.166 362.751,81.1649 362.998,81.0429 363.001,81.0418 363.249,80.9196 363.251,80.9185 363.499,80.7962 363.501,80.7951 363.75,80.6727 363.752,80.6716 363.998,80.5502 364.001,80.5491 364.25,80.4265 364.252,80.4254 364.499,80.3038 364.501,80.3027 364.748,80.181 364.75,80.1799 365,80.0571 365.002,80.056 365.249,79.9342 365.252,79.9331 365.499,79.8112 365.501,79.8101 365.749,79.6882 365.751,79.6871 365.999,79.5651 366.002,79.5641 366.25,79.4421 366.252,79.441 366.5,79.319 366.502,79.318 366.748,79.1969 366.75,79.1959 366.999,79.0738 367.001,79.0728 367.249,78.9507 367.251,78.9497 367.499,78.8276 367.501,78.8267 367.75,78.7046 367.752,78.7036 367.998,78.5826 368,78.5816 368.249,78.4596 368.251,78.4586 368.499,78.3367 368.501,78.3357 368.749,78.2138 368.751,78.2129 368.999,78.091 369.001,78.0901 369.25,77.9683 369.251,77.9674 369.5,77.8457 369.501,77.8447 369.749,77.7231 369.751,77.7222 369.999,77.6006 370.001,77.5998 370.249,77.4783 370.251,77.4774 370.5,77.3552 370.502,77.3543 370.749,77.233 370.751,77.2321 371,77.1101 371.002,77.1093 371.249,76.9882 371.251,76.9874 371.499,76.8656 371.501,76.8648 371.749,76.7432 371.751,76.7423 371.999,76.6209 372.001,76.62 372.249,76.4987 372.251,76.4979 372.5,76.3759 372.502,76.3751 372.749,76.2541 372.751,76.2533 373,76.1316 373.001,76.1308 373.25,76.0094 373.251,76.0086 373.499,75.8873 373.501,75.8865 373.749,75.7654 373.751,75.7646 374,75.643 374.001,75.6422 374.248,75.5216 374.25,75.5208 374.498,75.3995 374.5,75.3988 374.75,75.277 374.751,75.2762 374.999,75.1555 375,75.1547 375.249,75.0334 375.251,75.0326 375.499,74.9116 375.501,74.9108 375.749,74.79 375.75,74.7893 375.999,74.668 376.001,74.6673 376.249,74.5462 376.251,74.5455 376.499,74.4247 376.5,74.424 376.749,74.3028 376.751,74.3021 376.999,74.1812 377.001,74.1805 377.249,74.0598 377.25,74.0591 377.499,73.938 377.501,73.9373 377.749,73.8166 377.751,73.8159 377.999,73.6955 378,73.6948 378.249,73.574 378.25,73.5733 378.499,73.4528 378.5,73.4521 378.749,73.3312 378.751,73.3306 378.999,73.2101 379.001,73.2094 379.25,73.0885 379.251,73.0879 379.5,72.9674 379.501,72.9667 379.749,72.8466 379.751,72.8459 379.999,72.7255 380.001,72.7248 380.249,72.6047 380.25,72.6041 380.499,72.4837 380.5,72.4831 380.75,72.3625 380.751,72.3619 380.999,72.2422 381,72.2416 381.249,72.1212 381.251,72.1205 381.5,72.0005 381.501,71.9998 381.749,71.8802 381.75,71.8795 382,71.759 382.001,71.7584 382.249,71.639 382.25,71.6383 382.5,71.5181 382.501,71.5175 382.749,71.3982 382.75,71.3976 382.999,71.2776 383.001,71.277 383.249,71.1574 383.25,71.1569 383.499,71.0371 383.501,71.0366 383.749,70.9173 383.75,70.9167 384,70.7967 384.001,70.7962 384.249,70.6772 384.25,70.6767 384.5,70.557 384.501,70.5565 384.749,70.4373 384.75,70.4368 384.999,70.3175 385,70.317 385.25,70.1976 385.251,70.1971 385.499,70.0783 385.5,70.0777 385.75,69.9583 385.751,69.9578 386,69.8388 386.001,69.8383 386.249,69.7199 386.25,69.7193 386.499,69.6004 386.501,69.5998 386.749,69.4813 386.75,69.4808 387,69.3618 387.001,69.3613 387.25,69.2429 387.251,69.2423 387.5,69.1239 387.501,69.1234 387.75,69.0049 387.751,69.0044 388,68.886 388.001,68.8855 388.249,68.7676 388.25,68.7672 388.5,68.6488 388.501,68.6484 388.75,68.5301 388.751,68.5296 388.999,68.4119 389,68.4115 389.25,68.2934 389.251,68.2929 389.499,68.1753 389.5,68.1749 389.75,68.057 389.751,68.0565 389.999,67.9392 390,67.9387 390.25,67.821 390.251,67.8206 390.499,67.7035 390.5,67.703 390.749,67.5856 390.75,67.5852 391,67.4679 391.001,67.4674 391.25,67.3503 391.251,67.3499 391.5,67.2329 391.501,67.2325 391.75,67.1157 391.75,67.1153 391.999,66.9986 392,66.9982 392.25,66.8814 392.251,66.8809 392.5,66.7643 392.501,66.7639 392.749,66.6478 392.75,66.6474 393,66.5307 393.001,66.5303 393.25,66.4143 393.251,66.4139 393.5,66.2977 393.501,66.2973 393.749,66.1817 393.75,66.1813 394,66.0652 394.001,66.0648 394.249,65.9493 394.25,65.9489 394.5,65.8333 394.5,65.8329 394.749,65.7176 394.75,65.7172 395,65.6018 395.001,65.6014 395.25,65.4862 395.251,65.4858 395.499,65.371 395.5,65.3706 395.75,65.2557 395.75,65.2553 395.999,65.1407 396,65.1403 396.25,65.0256 396.25,65.0253 396.5,64.9109 396.5,64.9106 396.75,64.7962 396.751,64.7958 397,64.6818 397,64.6814 397.25,64.5674 397.251,64.5671 397.5,64.4534 397.5,64.453 397.75,64.3394 397.75,64.339 398,64.2254 398.001,64.2251 398.25,64.1118 398.251,64.1115 398.5,63.9983 398.501,63.998 398.75,63.8852 398.75,63.8848 398.999,63.7721 399,63.7718 399.25,63.6592 399.25,63.6588 399.5,63.5463 399.501,63.546 399.75,63.4339 399.75,63.4335 399.999,63.3215 400,63.3212 400.249,63.2094 400.25,63.209 400.5,63.0973 400.5,63.097 400.75,62.9854 400.751,62.9851 401,62.874 401,62.8737 401.25,62.7625 401.251,62.7622 401.5,62.6515 401.5,62.6511 401.75,62.5406 401.75,62.5403 402,62.4299 402,62.4297 402.249,62.3195 402.25,62.3192 402.5,62.209 402.501,62.2087 402.75,62.0991 402.75,62.0988 403,61.9894 403,61.9891 403.249,61.8799 403.25,61.8796 403.5,61.7704 403.5,61.7702 403.749,61.6615 403.75,61.6613 404,61.5527 404,61.5524 404.25,61.4441 404.25,61.4438 404.5,61.3358 404.5,61.3355 404.749,61.2279 404.75,61.2276 405,61.12 405,61.1197 405.25,61.0125 405.25,61.0122 405.5,60.9053 405.5,60.905 405.75,60.7982 405.751,60.798 405.999,60.6918 406,60.6915 406.25,60.5853 406.25,60.585 406.499,60.4794 406.5,60.4791 406.749,60.3736 406.75,60.3734 407,60.2681 407,60.2678 407.25,60.1629 407.25,60.1627 407.5,60.058 407.5,60.0578 407.75,59.9536 407.75,59.9533 408,59.8493 408.001,59.8491 408.25,59.7456 408.25,59.7453 408.5,59.642 408.5,59.6418 408.749,59.539 408.75,59.5388 409,59.4361 409,59.4358 409.25,59.3336 409.25,59.3334 409.5,59.2315 409.5,59.2313 409.75,59.1299 409.75,59.1297 410,59.0284 410,59.0282 410.25,58.9275 410.25,58.9273 410.5,58.827 410.5,58.8268 410.75,58.7268 410.75,58.7266 411,58.627 411,58.6268 411.25,58.5276 411.25,58.5274 411.5,58.4286 411.5,58.4284 411.75,58.3301 411.75,58.3299 412,58.232 412,58.2318 412.25,58.1344 412.25,58.1342 412.5,58.0372 412.5,58.037 412.75,57.9405 412.75,57.9403 413,57.8441 413,57.8439 413.25,57.7483 413.25,57.7481 413.5,57.6529 413.5,57.6528 413.75,57.5581 413.75,57.5579 414,57.4637 414,57.4635 414.25,57.3698 414.25,57.3697 414.5,57.2765 414.5,57.2764 414.75,57.1837 414.75,57.1835 415,57.0913 415,57.0911 415.25,56.9995 415.25,56.9993 415.5,56.9083 415.5,56.9082 415.75,56.8177 415.75,56.8175 416,56.7275 416,56.7274 416.25,56.638 416.25,56.6379 416.5,56.5491 416.5,56.549 416.75,56.4609 416.75,56.4607 417,56.3731 417,56.3729 417.25,56.286 417.25,56.2859 417.5,56.1996 417.5,56.1994 417.75,56.1137 417.75,56.1136 418,56.0286 418,56.0284 418.25,55.9442 418.25,55.9441 418.5,55.8604 418.5,55.8602 418.75,55.7772 418.75,55.7771 419,55.6948 419,55.6947 419.25,55.6131 419.25,55.613 419.5,55.5322 419.5,55.532 419.75,55.452 419.75,55.4519 420,55.3725 420,55.3724 420.25,55.2939 420.25,55.2938 420.5,55.2159 420.5,55.2158 420.75,55.1389 420.75,55.1388 421,55.0626 421,55.0625 421.25,54.9872 421.25,54.9871 421.5,54.9126 421.5,54.9125 421.75,54.8388 421.75,54.8387 422,54.766 422,54.7659 422.25,54.694 422.25,54.6939 422.5,54.623 422.5,54.6229 422.75,54.5529 422.75,54.5528 423,54.4837 423,54.4836 423.25,54.4156 423.25,54.4155 423.5,54.3483 423.5,54.3482 423.75,54.2821 423.75,54.282 424,54.217 424,54.2169 424.25,54.1528 424.25,54.1527 424.5,54.0898 424.5,54.0897 424.75,54.0277 424.75,54.0277 425,53.9669 425,53.9668 425.25,53.9071 425.25,53.907 425.5,53.8485 425.5,53.8484 425.75,53.7911 425.75,53.791 426,53.7349 426,53.7348 426.25,53.6799 426.25,53.6798 426.5,53.6261 426.5,53.626 426.75,53.5736 426.75,53.5735 427,53.5224 427,53.5223 427.25,53.4725 427.25,53.4725 427.5,53.424 427.5,53.424 427.75,53.3768 427.75,53.3768 428,53.3311 428,53.331 428.25,53.2868 428.25,53.2867 428.5,53.2439 428.5,53.2439 428.75,53.2026 428.75,53.2025 429,53.1627 429,53.1627 429.25,53.1245 429.25,53.1244 429.5,53.0878 429.5,53.0877 429.75,53.0528 429.75,53.0527 430,53.0193 430,53.0193 430.25,52.9877 430.25,52.9876 430.5,52.9577 430.5,52.9576 430.75,52.9295 430.75,52.9295 431,52.9031 431,52.9031 431.25,52.8786 431.25,52.8785 431.5,52.8559 431.5,52.8559 431.75,52.8352 431.75,52.8352 432,52.8165 432,52.8165 432.25,52.7998 432.25,52.7997 432.5,52.7851 432.5,52.7851 432.75,52.7726 432.75,52.7725 433,52.7622 433,52.7622 433,52.7622 433.25,52.754 433.25,52.754 433.5,52.7481 433.5,52.7481 433.5,52.7481 433.75,52.7445 433.75,52.7445 433.75,52.7445 433.977,52.7433 434,52.7433 434,52.7433 " />
</g>

<g fill="#ffffff" fill-opacity="1" stroke="none" transform="matrix(7.5e-05,0,0,7.5e-05,-8,-11.625)"
font-family="Helvetica" font-size="14" font-weight="400" font-style="normal" 
>
<path vector-effect="none" fill-rule="evenodd" d="M3.21e+06,2.05e+06 L3.21e+06,2.38e+06 L4.23e+06,2.38e+06 L4.23e+06,2.05e+06 L3.21e+06,2.05e+06"/>
</g>

<g fill="#1171be" fill-opacity="1" stroke="#1171be" stroke-opacity="1" stroke-width="0.666667" stroke-linecap="butt" stroke-linejoin="round" transform="matrix(0.75,0,0,0.75,-8,-11.625)"
font-family="Helvetica" font-size="14" font-weight="400" font-style="normal" 
>
<polyline fill="none" vector-effect="none" points="325,214.138 365,214.138 " />
</g>

<g fill="#dd5400" fill-opacity="1" stroke="#dd5400" stroke-opacity="1" stroke-dasharray="10,6" stroke-dashoffset="0" stroke-width="0.666667" stroke-linecap="butt" stroke-linejoin="round" transform="matrix(0.75,0,0,0.75,-8,-11.625)"
font-family="Helvetica" font-size="14" font-weight="400" font-style="normal" 
>
<polyline fill="none" vector-effect="none" points="325,228.862 365,228.862 " />
</g>

<g fill="#212121" fill-opacity="1" stroke="#212121" stroke-opacity="1" stroke-width="1" stroke-linecap="square" stroke-linejoin="bevel" transform="matrix(0.75,0,0,0.75,268,151.979)"
font-family="Helvetica" font-size="12" font-weight="400" font-style="normal" 
>
<text fill="#212121" fill-opacity="1" stroke="none" xml:space="preserve" x="0" y="0" font-family="Helvetica" font-size="12" font-weight="400" font-style="normal" 
 >Bitstream</text>
</g>

<g fill="#212121" fill-opacity="1" stroke="#212121" stroke-opacity="1" stroke-width="1" stroke-linecap="square" stroke-linejoin="bevel" transform="matrix(0.75,0,0,0.75,268,163.021)"
font-family="Helvetica" font-size="12" font-weight="400" font-style="normal" 
>
<text fill="#212121" fill-opacity="1" stroke="none" xml:space="preserve" x="0" y="0" font-family="Helvetica" font-size="12" font-weight="400" font-style="normal" 
 >NTF</text>
</g>

<g fill="none" stroke="#212121" stroke-opacity="1" stroke-width="0.666667" stroke-linecap="butt" stroke-linejoin="miter" stroke-miterlimit="5" transform="matrix(0.75,0,0,0.75,-8,-11.625)"
font-family="Helvetica" font-size="12" font-weight="400" font-style="normal" 
>
<path vector-effect="none" fill-rule="evenodd" d="M321,238 L321,205 L423,205 L423,238 L321,238"/>
</g>
</g>
</svg>
