<?xml version="1.0" encoding="UTF-8" standalone="no"?>
<svg width="114.653mm" height="75.8472mm"
 viewBox="0 0 325 215"
 xmlns="http://www.w3.org/2000/svg" xmlns:xlink="http://www.w3.org/1999/xlink"  version="1.2" baseProfile="tiny">
<title>Qt SVG Document</title>
<desc>MATLAB, The MathWorks, Inc. Version 25.2.0.3150157 R2025b Update 4</desc>
<defs>
</defs>
<g fill="none" stroke="black" stroke-width="1" fill-rule="evenodd" stroke-linecap="square" stroke-linejoin="bevel" >

<g fill="#ffffff" fill-opacity="1" stroke="none" transform="matrix(0.75,0,0,0.75,-8,-3.17845)"
font-family="MS Shell Dlg 2" font-size="8.25" font-weight="400" font-style="normal" 
>
<path vector-effect="none" fill-rule="evenodd" d="M9,3 L443,3 L443,290 L9,290 L9,3"/>
</g>

<g fill="#ffffff" fill-opacity="1" stroke="none" transform="matrix(7.5e-05,0,0,7.5e-05,-8,-3.17845)"
font-family="MS Shell Dlg 2" font-size="8.25" font-weight="400" font-style="normal" 
>
<path vector-effect="none" fill-rule="evenodd" d="M620000,220000 L620000,2.51e+06 L4.34e+06,2.51e+06 L4.34e+06,220000 L620000,220000"/>
</g>

<g fill="#212121" fill-opacity="0.14902" stroke="#212121" stroke-opacity="0.14902" stroke-width="0.666667" stroke-linecap="butt" stroke-linejoin="round" transform="matrix(0.75,0,0,0.75,-8,-3.17845)"
font-family="MS Shell Dlg 2" font-size="8.25" font-weight="400" font-style="normal" 
>
<polyline fill="none" vector-effect="none" points="62,22 62,251 " />
<polyline fill="none" vector-effect="none" points="155,22 155,251 " />
<polyline fill="none" vector-effect="none" points="248,22 248,251 " />
<polyline fill="none" vector-effect="none" points="341,22 341,251 " />
<polyline fill="none" vector-effect="none" points="434,22 434,251 " />
<polyline fill="none" vector-effect="none" points="62,249.469 434,249.469 " />
<polyline fill="none" vector-effect="none" points="62,195.31 434,195.31 " />
<polyline fill="none" vector-effect="none" points="62,141.151 434,141.151 " />
<polyline fill="none" vector-effect="none" points="62,86.9913 434,86.9913 " />
<polyline fill="none" vector-effect="none" points="62,32.8319 434,32.8319 " />
</g>

<g fill="#212121" fill-opacity="1" stroke="#212121" stroke-opacity="1" stroke-width="1" stroke-linecap="square" stroke-linejoin="bevel" transform="matrix(0.75,0,0,0.75,138.25,210.322)"
font-family="Helvetica" font-size="14" font-weight="400" font-style="normal" 
>
<text fill="#212121" fill-opacity="1" stroke="none" xml:space="preserve" x="0" y="0" font-family="Helvetica" font-size="14" font-weight="400" font-style="normal" 
 >Frequency (kHz)</text>
</g>

<g fill="#212121" fill-opacity="1" stroke="#212121" stroke-opacity="1" stroke-width="0.666667" stroke-linecap="square" stroke-linejoin="round" transform="matrix(0.75,0,0,0.75,-8,-3.17845)"
font-family="Helvetica" font-size="14" font-weight="400" font-style="normal" 
>
<polyline fill="none" vector-effect="none" points="62,251 434,251 " />
<polyline fill="none" vector-effect="none" points="62,22 434,22 " />
<polyline fill="none" vector-effect="none" points="62,251 62,247.28 " />
<polyline fill="none" vector-effect="none" points="62,25.72 62,22 " />
<polyline fill="none" vector-effect="none" points="155,251 155,247.28 " />
<polyline fill="none" vector-effect="none" points="155,25.72 155,22 " />
<polyline fill="none" vector-effect="none" points="248,251 248,247.28 " />
<polyline fill="none" vector-effect="none" points="248,25.72 248,22 " />
<polyline fill="none" vector-effect="none" points="341,251 341,247.28 " />
<polyline fill="none" vector-effect="none" points="341,25.72 341,22 " />
<polyline fill="none" vector-effect="none" points="434,251 434,247.28 " />
<polyline fill="none" vector-effect="none" points="434,25.72 434,22 " />
</g>

<g fill="#212121" fill-opacity="1" stroke="#212121" stroke-opacity="1" stroke-width="1" stroke-linecap="square" stroke-linejoin="bevel" transform="matrix(0.75,0,0,0.75,35.875,198.072)"
font-family="Helvetica" font-size="13" font-weight="400" font-style="normal" 
>
<text fill="#212121" fill-opacity="1" stroke="none" xml:space="preserve" x="0" y="0" font-family="Helvetica" font-size="13" font-weight="400" font-style="normal" 
 >0</text>
</g>

<g fill="#212121" fill-opacity="1" stroke="#212121" stroke-opacity="1" stroke-width="1" stroke-linecap="square" stroke-linejoin="bevel" transform="matrix(0.75,0,0,0.75,105.625,198.072)"
font-family="Helvetica" font-size="13" font-weight="400" font-style="normal" 
>
<text fill="#212121" fill-opacity="1" stroke="none" xml:space="preserve" x="0" y="0" font-family="Helvetica" font-size="13" font-weight="400" font-style="normal" 
 >5</text>
</g>

<g fill="#212121" fill-opacity="1" stroke="#212121" stroke-opacity="1" stroke-width="1" stroke-linecap="square" stroke-linejoin="bevel" transform="matrix(0.75,0,0,0.75,172.75,198.072)"
font-family="Helvetica" font-size="13" font-weight="400" font-style="normal" 
>
<text fill="#212121" fill-opacity="1" stroke="none" xml:space="preserve" x="0" y="0" font-family="Helvetica" font-size="13" font-weight="400" font-style="normal" 
 >10</text>
</g>

<g fill="#212121" fill-opacity="1" stroke="#212121" stroke-opacity="1" stroke-width="1" stroke-linecap="square" stroke-linejoin="bevel" transform="matrix(0.75,0,0,0.75,242.5,198.072)"
font-family="Helvetica" font-size="13" font-weight="400" font-style="normal" 
>
<text fill="#212121" fill-opacity="1" stroke="none" xml:space="preserve" x="0" y="0" font-family="Helvetica" font-size="13" font-weight="400" font-style="normal" 
 >15</text>
</g>

<g fill="#212121" fill-opacity="1" stroke="#212121" stroke-opacity="1" stroke-width="1" stroke-linecap="square" stroke-linejoin="bevel" transform="matrix(0.75,0,0,0.75,312.25,198.072)"
font-family="Helvetica" font-size="13" font-weight="400" font-style="normal" 
>
<text fill="#212121" fill-opacity="1" stroke="none" xml:space="preserve" x="0" y="0" font-family="Helvetica" font-size="13" font-weight="400" font-style="normal" 
 >20</text>
</g>

<g fill="#212121" fill-opacity="1" stroke="#212121" stroke-opacity="1" stroke-width="1" stroke-linecap="square" stroke-linejoin="bevel" transform="matrix(0,-0.75,0.75,0,9,125.821)"
font-family="Helvetica" font-size="14" font-weight="400" font-style="normal" 
>
<text fill="#212121" fill-opacity="1" stroke="none" xml:space="preserve" x="0" y="0" font-family="Helvetica" font-size="14" font-weight="400" font-style="normal" 
 >Power (dB)</text>
</g>

<g fill="#212121" fill-opacity="1" stroke="#212121" stroke-opacity="1" stroke-width="0.666667" stroke-linecap="square" stroke-linejoin="round" transform="matrix(0.75,0,0,0.75,-8,-3.17845)"
font-family="Helvetica" font-size="14" font-weight="400" font-style="normal" 
>
<polyline fill="none" vector-effect="none" points="62,251 62,22 " />
<polyline fill="none" vector-effect="none" points="434,251 434,22 " />
<polyline fill="none" vector-effect="none" points="62,249.469 65.72,249.469 " />
<polyline fill="none" vector-effect="none" points="430.28,249.469 434,249.469 " />
<polyline fill="none" vector-effect="none" points="62,195.31 65.72,195.31 " />
<polyline fill="none" vector-effect="none" points="430.28,195.31 434,195.31 " />
<polyline fill="none" vector-effect="none" points="62,141.151 65.72,141.151 " />
<polyline fill="none" vector-effect="none" points="430.28,141.151 434,141.151 " />
<polyline fill="none" vector-effect="none" points="62,86.9913 65.72,86.9913 " />
<polyline fill="none" vector-effect="none" points="430.28,86.9913 434,86.9913 " />
<polyline fill="none" vector-effect="none" points="62,32.8319 65.72,32.8319 " />
<polyline fill="none" vector-effect="none" points="430.28,32.8319 434,32.8319 " />
</g>

<g fill="#212121" fill-opacity="1" stroke="#212121" stroke-opacity="1" stroke-width="1" stroke-linecap="square" stroke-linejoin="bevel" transform="matrix(0.75,0,0,0.75,15.75,187.299)"
font-family="Helvetica" font-size="13" font-weight="400" font-style="normal" 
>
<text fill="#212121" fill-opacity="1" stroke="none" xml:space="preserve" x="0" y="0" font-family="Helvetica" font-size="13" font-weight="400" font-style="normal" 
 >-200</text>
</g>

<g fill="#212121" fill-opacity="1" stroke="#212121" stroke-opacity="1" stroke-width="1" stroke-linecap="square" stroke-linejoin="bevel" transform="matrix(0.75,0,0,0.75,15.75,146.679)"
font-family="Helvetica" font-size="13" font-weight="400" font-style="normal" 
>
<text fill="#212121" fill-opacity="1" stroke="none" xml:space="preserve" x="0" y="0" font-family="Helvetica" font-size="13" font-weight="400" font-style="normal" 
 >-150</text>
</g>

<g fill="#212121" fill-opacity="1" stroke="#212121" stroke-opacity="1" stroke-width="1" stroke-linecap="square" stroke-linejoin="bevel" transform="matrix(0.75,0,0,0.75,15.75,106.06)"
font-family="Helvetica" font-size="13" font-weight="400" font-style="normal" 
>
<text fill="#212121" fill-opacity="1" stroke="none" xml:space="preserve" x="0" y="0" font-family="Helvetica" font-size="13" font-weight="400" font-style="normal" 
 >-100</text>
</g>

<g fill="#212121" fill-opacity="1" stroke="#212121" stroke-opacity="1" stroke-width="1" stroke-linecap="square" stroke-linejoin="bevel" transform="matrix(0.75,0,0,0.75,21,65.44)"
font-family="Helvetica" font-size="13" font-weight="400" font-style="normal" 
>
<text fill="#212121" fill-opacity="1" stroke="none" xml:space="preserve" x="0" y="0" font-family="Helvetica" font-size="13" font-weight="400" font-style="normal" 
 >-50</text>
</g>

<g fill="#212121" fill-opacity="1" stroke="#212121" stroke-opacity="1" stroke-width="1" stroke-linecap="square" stroke-linejoin="bevel" transform="matrix(0.75,0,0,0.75,29.25,24.8205)"
font-family="Helvetica" font-size="13" font-weight="400" font-style="normal" 
>
<text fill="#212121" fill-opacity="1" stroke="none" xml:space="preserve" x="0" y="0" font-family="Helvetica" font-size="13" font-weight="400" font-style="normal" 
 >0</text>
</g>

<g fill="#212121" fill-opacity="1" stroke="#212121" stroke-opacity="1" stroke-width="1" stroke-linecap="square" stroke-linejoin="bevel" transform="matrix(0.75,0,0,0.75,138.625,9)"
font-family="Helvetica" font-size="14" font-weight="700" font-style="normal" 
>
<text fill="#212121" fill-opacity="1" stroke="none" xml:space="preserve" x="0" y="0" font-family="Helvetica" font-size="14" font-weight="700" font-style="normal" 
 >SNR: 105.25 dB</text>
</g>

<g fill="none" stroke="#1171be" stroke-opacity="1" stroke-width="0.666667" stroke-linecap="butt" stroke-linejoin="round" transform="matrix(0.75,0,0,0.75,-8,-3.17845)"
font-family="Helvetica" font-size="14" font-weight="700" font-style="normal" 
>
<polyline fill="none" vector-effect="none" points="98.3281,212.972 99.0547,193.083 99.7813,157.36 100.508,129.241 101.234,106.674 101.961,88.4403 102.688,73.809 103.414,62.3097 104.141,53.6296 104.867,47.5603 105.594,43.9683 106.32,42.779 107.047,43.9683 107.773,47.5603 108.5,53.6296 109.227,62.3097 109.953,73.809 110.68,88.4403 111.406,106.673 112.133,129.238 112.859,157.292 113.586,190.077 114.313,200.709 " />
</g>

<g fill="none" stroke="#dd5400" stroke-opacity="1" stroke-width="0.666667" stroke-linecap="butt" stroke-linejoin="round" transform="matrix(0.75,0,0,0.75,-8,-3.17845)"
font-family="Helvetica" font-size="14" font-weight="700" font-style="normal" 
>
<polyline fill="none" vector-effect="none" points="62,143.538 62.7266,141.467 63.4531,145.059 64.1797,151.128 64.9063,159.808 65.6328,171.306 66.3594,185.93 67.0859,204.112 67.8125,226.057 68.5391,245.133 69.2656,244.538 69.9922,241.317 70.7188,239.487 71.4453,238.598 72.1719,238.19 72.8984,238.119 73.625,238.924 74.3516,240.515 75.0781,242.036 75.8047,251 76.5313,239.15 77.2578,230.166 77.9844,226.859 78.7109,227.185 79.4375,230.817 80.1641,233.164 80.8906,229.148 81.6172,226.988 82.3438,227.122 83.0703,225.587 83.7969,221.513 84.5234,219.664 85.25,221.435 85.9766,229.054 86.7031,233.277 87.4297,225.798 88.1563,222.92 88.8828,219.735 89.6094,217.247 90.3359,216.421 91.0625,216.715 91.7891,216.327 92.5156,213.844 93.2422,210.515 93.9688,207.767 94.6953,205.869 95.4219,204.739 96.1484,204.488 96.875,205.415 97.6016,208.001 98.3281,212.972 99.0547,193.083 99.7813,157.36 100.508,129.241 101.234,106.674 101.961,88.4403 102.688,73.809 103.414,62.3097 104.141,53.6296 104.867,47.5603 105.594,43.9683 106.32,42.779 107.047,43.9683 107.773,47.5603 108.5,53.6296 109.227,62.3097 109.953,73.809 110.68,88.4403 111.406,106.673 112.133,129.238 112.859,157.292 113.586,190.077 114.313,200.709 115.039,200.635 115.766,200.923 116.492,200.052 117.219,198.143 117.945,196.732 118.672,196.17 119.398,196.551 120.125,198.236 120.852,201.169 121.578,203.571 122.305,204.446 123.031,204.997 123.758,204.536 124.484,204.664 125.211,207.229 125.938,210.732 126.664,210.826 127.391,209.156 128.117,207.276 128.844,205.634 129.57,203.473 130.297,201.418 131.023,200.622 131.75,201.716 132.477,205.539 133.203,215.137 133.93,216.255 134.656,206.688 135.383,201.612 136.109,198.099 136.836,196.048 137.563,195.664 138.289,196.937 139.016,198.452 139.742,197.739 140.469,196.751 141.195,197.441 141.922,199.802 142.648,202.776 143.375,204.739 144.102,202.086 144.828,197.792 145.555,195.322 146.281,194.051 147.008,193.055 147.734,192.178 148.461,191.46 149.188,191.055 149.914,191.485 150.641,193.313 151.367,196.975 152.094,202.131 152.82,201.743 153.547,197.82 154.273,194.95 155,193.05 155.727,192.679 156.453,194.052 157.18,195.998 157.906,197.137 158.633,199.739 159.359,205.945 160.086,202.367 160.813,195.79 161.539,192.299 162.266,191.588 162.992,193.8 163.719,198.661 164.445,200.167 165.172,197.507 165.898,195.649 166.625,194.896 167.352,195.515 168.078,196.449 168.805,194.975 169.531,192.266 170.258,190.81 170.984,191.328 171.711,193.394 172.438,193.898 173.164,191.507 173.891,188.924 174.617,187.616 175.344,188.538 176.07,192.302 176.797,200.147 177.523,208.181 178.25,192.999 178.977,187.924 179.703,186.873 180.43,189.272 181.156,196.907 181.883,204.264 182.609,194.922 183.336,193.821 184.063,195.778 184.789,197.623 185.516,199.589 186.242,205.742 186.969,204.988 187.695,195.814 188.422,191.054 189.148,188.965 189.875,189.063 190.602,190.546 191.328,191.27 192.055,188.481 192.781,182.827 193.508,177.71 194.234,174.463 194.961,173.39 195.688,174.649 196.414,178.424 197.141,184.22 197.867,186.309 198.594,184.095 199.32,182.755 200.047,183.258 200.773,186.077 201.5,189.626 202.227,187.992 202.953,185.774 203.68,185.7 204.406,187.948 205.133,190.894 205.859,187.247 206.586,183.667 207.313,183.198 208.039,186.338 208.766,197.061 209.492,195.898 210.219,188.19 210.945,185.989 211.672,186.188 212.398,187.784 213.125,187.884 213.852,186.54 214.578,186.478 215.305,187.125 216.031,185.625 216.758,183.192 217.484,181.636 218.211,180.81 218.938,180.531 219.664,181.128 220.391,183.208 221.117,187.807 221.844,198.665 222.57,196.502 223.297,190.492 224.023,187.788 224.75,184.519 225.477,182.24 226.203,182.367 226.93,185.475 227.656,192.725 228.383,194.637 229.109,188.683 229.836,186.274 230.563,185.715 231.289,185.676 232.016,185.378 232.742,184.792 233.469,183.477 234.195,182.078 234.922,181.912 235.648,183.181 236.375,185.167 237.102,187.323 237.828,189.59 238.555,191.754 239.281,195.216 240.008,198.876 240.734,191.07 241.461,185.044 242.188,182.072 242.914,181.465 243.641,182.792 244.367,185.575 245.094,188.823 245.82,190.246 246.547,188.174 247.273,185.271 248,184.276 248.727,187.057 249.453,196.502 250.18,186.399 250.906,181.907 251.633,181.917 252.359,185.095 253.086,190.037 253.813,191.303 254.539,187.878 255.266,186.205 255.992,188.796 256.719,196.079 257.445,185.848 258.172,181.359 258.898,181.236 259.625,185.404 260.352,191.177 261.078,184.83 261.805,181.588 262.531,180.557 263.258,180.908 263.984,183.524 264.711,190.808 265.438,195.442 266.164,190.292 266.891,190.705 267.617,193.161 268.344,196.067 269.07,186.875 269.797,179.008 270.523,174.567 271.25,172.597 271.977,172.616 272.703,174.259 273.43,177.161 274.156,180.749 274.883,183.351 275.609,185.081 276.336,187.519 277.063,186.064 277.789,183.99 278.516,185.122 279.242,190.985 279.969,191.82 280.695,182.801 281.422,178.399 282.148,176.127 282.875,175.039 283.602,174.86 284.328,175.65 285.055,177.633 285.781,181.451 286.508,186.808 287.234,182.604 287.961,178.526 288.688,177.92 289.414,180.149 290.141,184.969 290.867,191.892 291.594,188.601 292.32,184.71 293.047,184.896 293.773,187.393 294.5,188.252 295.227,186.695 295.953,183.357 296.68,179.916 297.406,177.569 298.133,176.615 298.859,177.924 299.586,184.603 300.313,189.449 301.039,177.398 301.766,173.96 302.492,173.489 303.219,174.672 303.945,177.026 304.672,180.561 305.398,184.161 306.125,186.155 306.852,187.435 307.578,183.905 308.305,179.591 309.031,177.404 309.758,177.074 310.484,178.384 311.211,181.095 311.938,183.836 312.664,185.913 313.391,186.261 314.117,182.124 314.844,178.817 315.57,177.165 316.297,176.567 317.023,176.548 317.75,176.694 318.477,177.343 319.203,179.979 319.93,186.838 320.656,189.237 321.383,183.659 322.109,181.134 322.836,179.75 323.563,179.847 324.289,181.051 325.016,180.931 325.742,179.144 326.469,177.569 327.195,176.59 327.922,176.036 328.648,176.035 329.375,176.943 330.102,179.17 330.828,182.895 331.555,185.321 332.281,184.828 333.008,186.379 333.734,187.392 334.461,184.591 335.188,183.324 335.914,184.085 336.641,186.566 337.367,188.612 338.094,182.37 338.82,176.906 339.547,174.235 340.273,173.84 341,175.421 341.727,178.692 342.453,182.042 343.18,181.254 343.906,178.254 344.633,176.563 345.359,177.103 346.086,178.468 346.813,175.177 347.539,171.378 348.266,169.919 348.992,170.564 349.719,172.689 350.445,175.257 351.172,176.369 351.898,175.52 352.625,175.087 353.352,176.545 354.078,181.675 354.805,201.846 355.531,178.936 356.258,173.644 356.984,171.94 357.711,172.341 358.438,173.429 359.164,172.573 359.891,170.366 360.617,168.911 361.344,168.605 362.07,169.398 362.797,171.163 363.523,173.627 364.25,177.328 364.977,185.312 365.703,188.905 366.43,183.26 367.156,185.458 367.883,197.409 368.609,192.775 369.336,187.447 370.063,186.515 370.789,187.094 371.516,183.093 372.242,179.181 372.969,178.607 373.695,181.882 374.422,189.256 375.148,187.07 375.875,183.209 376.602,181.563 377.328,181.906 378.055,184.632 378.781,186.008 379.508,181.946 380.234,177.852 380.961,174.868 381.688,173.203 382.414,173.143 383.141,175.039 383.867,177.877 384.594,176.667 385.32,174.647 386.047,175.356 386.773,179.48 387.5,187.872 388.227,187.612 388.953,182.592 389.68,180.163 390.406,180.124 391.133,181.449 391.859,177.744 392.586,173.278 393.313,171.426 394.039,172.028 394.766,174.772 395.492,178.467 396.219,179.344 396.945,176.498 397.672,174.046 398.398,173.441 399.125,174.194 399.852,174.955 400.578,174.831 401.305,174.487 402.031,174.767 402.758,175.236 403.484,174.763 404.211,174.358 404.938,175.92 405.664,181.228 406.391,187.089 407.117,181.956 407.844,181.805 408.57,185.599 409.297,187.915 410.023,188.06 410.75,184.074 411.477,178.753 412.203,176.341 412.93,176.378 413.656,178.016 414.383,179.596 415.109,179.325 415.836,177.77 416.563,175.934 417.289,174.595 418.016,174.273 418.742,174.907 419.469,175.472 420.195,175.064 420.922,174.554 421.648,174.396 422.375,174.403 423.102,174.9 423.828,175.672 424.555,175.673 425.281,175.369 426.008,175.082 426.734,173.93 427.461,172.212 428.188,171.044 428.914,170.832 429.641,171.102 430.367,171.067 431.094,170.852 431.82,171.058 432.547,171.748 433.273,172.525 434,176.128 " />
</g>

<g fill="none" stroke="#212121" stroke-opacity="1" stroke-width="0.666667" stroke-linecap="butt" stroke-linejoin="round" transform="matrix(0.75,0,0,0.75,-8,-3.17845)"
font-family="Helvetica" font-size="14" font-weight="700" font-style="normal" 
>
<polyline fill="none" vector-effect="none" points="62,143.538 62.7266,141.467 63.4531,145.059 64.1797,151.128 64.9063,159.808 65.6328,171.306 66.3594,185.93 67.0859,204.112 67.8125,226.057 68.5391,245.133 " />
</g>

<g fill="#ffffff" fill-opacity="1" stroke="none" transform="matrix(7.5e-05,0,0,7.5e-05,-8,-3.17845)"
font-family="Helvetica" font-size="14" font-weight="700" font-style="normal" 
>
<path vector-effect="none" fill-rule="evenodd" d="M983203,467789 L1.1432e+06,467789 L1.1432e+06,237789 L983203,237789 L983203,467789"/>
</g>

<g fill="none" stroke="#000000" stroke-opacity="1" stroke-width="0.666667" stroke-linecap="butt" stroke-linejoin="miter" stroke-miterlimit="5" transform="matrix(0.75,0,0,0.75,-8,-3.17845)"
font-family="Helvetica" font-size="14" font-weight="700" font-style="normal" 
>
<path vector-effect="none" fill-rule="evenodd" d="M98.3203,46.779 L114.32,46.779 L114.32,23.779 L98.3203,23.779 L98.3203,46.779"/>
</g>

<g fill="#1171be" fill-opacity="1" stroke="#1171be" stroke-opacity="1" stroke-width="1" stroke-linecap="square" stroke-linejoin="bevel" transform="matrix(0.75,0,0,0.75,68.7402,26.6558)"
font-family="Helvetica" font-size="13" font-weight="400" font-style="normal" 
>
<text fill="#1171be" fill-opacity="1" stroke="none" xml:space="preserve" x="0" y="0" font-family="Helvetica" font-size="13" font-weight="400" font-style="normal" 
 >F</text>
</g>

<g fill="#ffffff" fill-opacity="1" stroke="none" transform="matrix(7.5e-05,0,0,7.5e-05,-8,-3.17845)"
font-family="Helvetica" font-size="13" font-weight="400" font-style="normal" 
>
<path vector-effect="none" fill-rule="evenodd" d="M1.42414e+06,1.95485e+06 L1.57414e+06,1.95485e+06 L1.57414e+06,1.72485e+06 L1.42414e+06,1.72485e+06 L1.42414e+06,1.95485e+06"/>
</g>

<g fill="none" stroke="#000000" stroke-opacity="1" stroke-width="0.666667" stroke-linecap="butt" stroke-linejoin="miter" stroke-miterlimit="5" transform="matrix(0.75,0,0,0.75,-8,-3.17845)"
font-family="Helvetica" font-size="13" font-weight="400" font-style="normal" 
>
<path vector-effect="none" fill-rule="evenodd" d="M142.414,195.485 L157.414,195.485 L157.414,172.485 L142.414,172.485 L142.414,195.485"/>
</g>

<g fill="#212121" fill-opacity="1" stroke="#212121" stroke-opacity="1" stroke-width="1" stroke-linecap="square" stroke-linejoin="bevel" transform="matrix(0.75,0,0,0.75,101.811,138.186)"
font-family="Helvetica" font-size="13" font-weight="400" font-style="normal" 
>
<text fill="#212121" fill-opacity="1" stroke="none" xml:space="preserve" x="0" y="0" font-family="Helvetica" font-size="13" font-weight="400" font-style="normal" 
 >2</text>
</g>

<g fill="#ffffff" fill-opacity="1" stroke="none" transform="matrix(7.5e-05,0,0,7.5e-05,-8,-3.17845)"
font-family="Helvetica" font-size="13" font-weight="400" font-style="normal" 
>
<path vector-effect="none" fill-rule="evenodd" d="M1.87461e+06,1.7739e+06 L2.02461e+06,1.7739e+06 L2.02461e+06,1.5439e+06 L1.87461e+06,1.5439e+06 L1.87461e+06,1.7739e+06"/>
</g>

<g fill="none" stroke="#000000" stroke-opacity="1" stroke-width="0.666667" stroke-linecap="butt" stroke-linejoin="miter" stroke-miterlimit="5" transform="matrix(0.75,0,0,0.75,-8,-3.17845)"
font-family="Helvetica" font-size="13" font-weight="400" font-style="normal" 
>
<path vector-effect="none" fill-rule="evenodd" d="M187.461,177.39 L202.461,177.39 L202.461,154.39 L187.461,154.39 L187.461,177.39"/>
</g>

<g fill="#212121" fill-opacity="1" stroke="#212121" stroke-opacity="1" stroke-width="1" stroke-linecap="square" stroke-linejoin="bevel" transform="matrix(0.75,0,0,0.75,135.596,124.614)"
font-family="Helvetica" font-size="13" font-weight="400" font-style="normal" 
>
<text fill="#212121" fill-opacity="1" stroke="none" xml:space="preserve" x="0" y="0" font-family="Helvetica" font-size="13" font-weight="400" font-style="normal" 
 >3</text>
</g>

<g fill="#ffffff" fill-opacity="1" stroke="none" transform="matrix(7.5e-05,0,0,7.5e-05,-8,-3.17845)"
font-family="Helvetica" font-size="13" font-weight="400" font-style="normal" 
>
<path vector-effect="none" fill-rule="evenodd" d="M2.31055e+06,1.95754e+06 L2.46055e+06,1.95754e+06 L2.46055e+06,1.72754e+06 L2.31055e+06,1.72754e+06 L2.31055e+06,1.95754e+06"/>
</g>

<g fill="none" stroke="#000000" stroke-opacity="1" stroke-width="0.666667" stroke-linecap="butt" stroke-linejoin="miter" stroke-miterlimit="5" transform="matrix(0.75,0,0,0.75,-8,-3.17845)"
font-family="Helvetica" font-size="13" font-weight="400" font-style="normal" 
>
<path vector-effect="none" fill-rule="evenodd" d="M231.055,195.754 L246.055,195.754 L246.055,172.754 L231.055,172.754 L231.055,195.754"/>
</g>

<g fill="#212121" fill-opacity="1" stroke="#212121" stroke-opacity="1" stroke-width="1" stroke-linecap="square" stroke-linejoin="bevel" transform="matrix(0.75,0,0,0.75,168.291,138.387)"
font-family="Helvetica" font-size="13" font-weight="400" font-style="normal" 
>
<text fill="#212121" fill-opacity="1" stroke="none" xml:space="preserve" x="0" y="0" font-family="Helvetica" font-size="13" font-weight="400" font-style="normal" 
 >4</text>
</g>

<g fill="#ffffff" fill-opacity="1" stroke="none" transform="matrix(7.5e-05,0,0,7.5e-05,-8,-3.17845)"
font-family="Helvetica" font-size="13" font-weight="400" font-style="normal" 
>
<path vector-effect="none" fill-rule="evenodd" d="M2.76102e+06,1.7886e+06 L2.91102e+06,1.7886e+06 L2.91102e+06,1.5586e+06 L2.76102e+06,1.5586e+06 L2.76102e+06,1.7886e+06"/>
</g>

<g fill="none" stroke="#000000" stroke-opacity="1" stroke-width="0.666667" stroke-linecap="butt" stroke-linejoin="miter" stroke-miterlimit="5" transform="matrix(0.75,0,0,0.75,-8,-3.17845)"
font-family="Helvetica" font-size="13" font-weight="400" font-style="normal" 
>
<path vector-effect="none" fill-rule="evenodd" d="M276.102,178.86 L291.102,178.86 L291.102,155.86 L276.102,155.86 L276.102,178.86"/>
</g>

<g fill="#212121" fill-opacity="1" stroke="#212121" stroke-opacity="1" stroke-width="1" stroke-linecap="square" stroke-linejoin="bevel" transform="matrix(0.75,0,0,0.75,202.076,125.716)"
font-family="Helvetica" font-size="13" font-weight="400" font-style="normal" 
>
<text fill="#212121" fill-opacity="1" stroke="none" xml:space="preserve" x="0" y="0" font-family="Helvetica" font-size="13" font-weight="400" font-style="normal" 
 >5</text>
</g>

<g fill="#ffffff" fill-opacity="1" stroke="none" transform="matrix(7.5e-05,0,0,7.5e-05,-8,-3.17845)"
font-family="Helvetica" font-size="13" font-weight="400" font-style="normal" 
>
<path vector-effect="none" fill-rule="evenodd" d="M3.21148e+06,1.80035e+06 L3.36148e+06,1.80035e+06 L3.36148e+06,1.57035e+06 L3.21148e+06,1.57035e+06 L3.21148e+06,1.80035e+06"/>
</g>

<g fill="none" stroke="#000000" stroke-opacity="1" stroke-width="0.666667" stroke-linecap="butt" stroke-linejoin="miter" stroke-miterlimit="5" transform="matrix(0.75,0,0,0.75,-8,-3.17845)"
font-family="Helvetica" font-size="13" font-weight="400" font-style="normal" 
>
<path vector-effect="none" fill-rule="evenodd" d="M321.148,180.035 L336.148,180.035 L336.148,157.035 L321.148,157.035 L321.148,180.035"/>
</g>

<g fill="#212121" fill-opacity="1" stroke="#212121" stroke-opacity="1" stroke-width="1" stroke-linecap="square" stroke-linejoin="bevel" transform="matrix(0.75,0,0,0.75,235.861,126.597)"
font-family="Helvetica" font-size="13" font-weight="400" font-style="normal" 
>
<text fill="#212121" fill-opacity="1" stroke="none" xml:space="preserve" x="0" y="0" font-family="Helvetica" font-size="13" font-weight="400" font-style="normal" 
 >6</text>
</g>

<g fill="none" stroke="#dd5400" stroke-opacity="1" stroke-width="0.666667" stroke-linecap="butt" stroke-linejoin="round" transform="matrix(0.75,0,0,0.75,-8,-3.17845)"
font-family="Helvetica" font-size="13" font-weight="400" font-style="normal" 
>
<polyline fill="none" vector-effect="none" points="62,143.538 62.7266,141.467 63.4531,145.059 64.1797,151.128 64.9063,159.808 65.6328,171.306 66.3594,185.93 67.0859,204.112 67.8125,226.057 68.5391,245.133 69.2656,244.538 69.9922,241.317 70.7188,239.487 71.4453,238.598 72.1719,238.19 72.8984,238.119 73.625,238.924 74.3516,240.515 75.0781,242.036 75.8047,251 76.5313,239.15 77.2578,230.166 77.9844,226.859 78.7109,227.185 79.4375,230.817 80.1641,233.164 80.8906,229.148 81.6172,226.988 82.3438,227.122 83.0703,225.587 83.7969,221.513 84.5234,219.664 85.25,221.435 85.9766,229.054 86.7031,233.277 87.4297,225.798 88.1563,222.92 88.8828,219.735 89.6094,217.247 90.3359,216.421 91.0625,216.715 91.7891,216.327 92.5156,213.844 93.2422,210.515 93.9688,207.767 94.6953,205.869 95.4219,204.739 96.1484,204.488 96.875,205.415 97.6016,208.001 98.3281,212.972 99.0547,193.083 99.7813,157.36 100.508,129.241 101.234,106.674 101.961,88.4403 102.688,73.809 103.414,62.3097 104.141,53.6296 104.867,47.5603 105.594,43.9683 106.32,42.779 107.047,43.9683 107.773,47.5603 108.5,53.6296 109.227,62.3097 109.953,73.809 110.68,88.4403 111.406,106.673 112.133,129.238 112.859,157.292 113.586,190.077 114.313,200.709 115.039,200.635 115.766,200.923 116.492,200.052 117.219,198.143 117.945,196.732 118.672,196.17 119.398,196.551 120.125,198.236 120.852,201.169 121.578,203.571 122.305,204.446 123.031,204.997 123.758,204.536 124.484,204.664 125.211,207.229 125.938,210.732 126.664,210.826 127.391,209.156 128.117,207.276 128.844,205.634 129.57,203.473 130.297,201.418 131.023,200.622 131.75,201.716 132.477,205.539 133.203,215.137 133.93,216.255 134.656,206.688 135.383,201.612 136.109,198.099 136.836,196.048 137.563,195.664 138.289,196.937 139.016,198.452 139.742,197.739 140.469,196.751 141.195,197.441 141.922,199.802 142.648,202.776 143.375,204.739 144.102,202.086 144.828,197.792 145.555,195.322 146.281,194.051 147.008,193.055 147.734,192.178 148.461,191.46 149.188,191.055 149.914,191.485 150.641,193.313 151.367,196.975 152.094,202.131 152.82,201.743 153.547,197.82 154.273,194.95 155,193.05 155.727,192.679 156.453,194.052 157.18,195.998 157.906,197.137 158.633,199.739 159.359,205.945 160.086,202.367 160.813,195.79 161.539,192.299 162.266,191.588 162.992,193.8 163.719,198.661 164.445,200.167 165.172,197.507 165.898,195.649 166.625,194.896 167.352,195.515 168.078,196.449 168.805,194.975 169.531,192.266 170.258,190.81 170.984,191.328 171.711,193.394 172.438,193.898 173.164,191.507 173.891,188.924 174.617,187.616 175.344,188.538 176.07,192.302 176.797,200.147 177.523,208.181 178.25,192.999 178.977,187.924 179.703,186.873 180.43,189.272 181.156,196.907 181.883,204.264 182.609,194.922 183.336,193.821 184.063,195.778 184.789,197.623 185.516,199.589 186.242,205.742 186.969,204.988 187.695,195.814 188.422,191.054 189.148,188.965 189.875,189.063 190.602,190.546 191.328,191.27 192.055,188.481 192.781,182.827 193.508,177.71 194.234,174.463 194.961,173.39 195.688,174.649 196.414,178.424 197.141,184.22 197.867,186.309 198.594,184.095 199.32,182.755 200.047,183.258 200.773,186.077 201.5,189.626 202.227,187.992 202.953,185.774 203.68,185.7 204.406,187.948 205.133,190.894 205.859,187.247 206.586,183.667 207.313,183.198 208.039,186.338 208.766,197.061 209.492,195.898 210.219,188.19 210.945,185.989 211.672,186.188 212.398,187.784 213.125,187.884 213.852,186.54 214.578,186.478 215.305,187.125 216.031,185.625 216.758,183.192 217.484,181.636 218.211,180.81 218.938,180.531 219.664,181.128 220.391,183.208 221.117,187.807 221.844,198.665 222.57,196.502 223.297,190.492 224.023,187.788 224.75,184.519 225.477,182.24 226.203,182.367 226.93,185.475 227.656,192.725 228.383,194.637 229.109,188.683 229.836,186.274 230.563,185.715 231.289,185.676 232.016,185.378 232.742,184.792 233.469,183.477 234.195,182.078 234.922,181.912 235.648,183.181 236.375,185.167 237.102,187.323 237.828,189.59 238.555,191.754 239.281,195.216 240.008,198.876 240.734,191.07 241.461,185.044 242.188,182.072 242.914,181.465 243.641,182.792 244.367,185.575 245.094,188.823 245.82,190.246 246.547,188.174 247.273,185.271 248,184.276 248.727,187.057 249.453,196.502 250.18,186.399 250.906,181.907 251.633,181.917 252.359,185.095 253.086,190.037 253.813,191.303 254.539,187.878 255.266,186.205 255.992,188.796 256.719,196.079 257.445,185.848 258.172,181.359 258.898,181.236 259.625,185.404 260.352,191.177 261.078,184.83 261.805,181.588 262.531,180.557 263.258,180.908 263.984,183.524 264.711,190.808 265.438,195.442 266.164,190.292 266.891,190.705 267.617,193.161 268.344,196.067 269.07,186.875 269.797,179.008 270.523,174.567 271.25,172.597 271.977,172.616 272.703,174.259 273.43,177.161 274.156,180.749 274.883,183.351 275.609,185.081 276.336,187.519 277.063,186.064 277.789,183.99 278.516,185.122 279.242,190.985 279.969,191.82 280.695,182.801 281.422,178.399 282.148,176.127 282.875,175.039 283.602,174.86 284.328,175.65 285.055,177.633 285.781,181.451 286.508,186.808 287.234,182.604 287.961,178.526 288.688,177.92 289.414,180.149 290.141,184.969 290.867,191.892 291.594,188.601 292.32,184.71 293.047,184.896 293.773,187.393 294.5,188.252 295.227,186.695 295.953,183.357 296.68,179.916 297.406,177.569 298.133,176.615 298.859,177.924 299.586,184.603 300.313,189.449 301.039,177.398 301.766,173.96 302.492,173.489 303.219,174.672 303.945,177.026 304.672,180.561 305.398,184.161 306.125,186.155 306.852,187.435 307.578,183.905 308.305,179.591 309.031,177.404 309.758,177.074 310.484,178.384 311.211,181.095 311.938,183.836 312.664,185.913 313.391,186.261 314.117,182.124 314.844,178.817 315.57,177.165 316.297,176.567 317.023,176.548 317.75,176.694 318.477,177.343 319.203,179.979 319.93,186.838 320.656,189.237 321.383,183.659 322.109,181.134 322.836,179.75 323.563,179.847 324.289,181.051 325.016,180.931 325.742,179.144 326.469,177.569 327.195,176.59 327.922,176.036 328.648,176.035 329.375,176.943 330.102,179.17 330.828,182.895 331.555,185.321 332.281,184.828 333.008,186.379 333.734,187.392 334.461,184.591 335.188,183.324 335.914,184.085 336.641,186.566 337.367,188.612 338.094,182.37 338.82,176.906 339.547,174.235 340.273,173.84 341,175.421 341.727,178.692 342.453,182.042 343.18,181.254 343.906,178.254 344.633,176.563 345.359,177.103 346.086,178.468 346.813,175.177 347.539,171.378 348.266,169.919 348.992,170.564 349.719,172.689 350.445,175.257 351.172,176.369 351.898,175.52 352.625,175.087 353.352,176.545 354.078,181.675 354.805,201.846 355.531,178.936 356.258,173.644 356.984,171.94 357.711,172.341 358.438,173.429 359.164,172.573 359.891,170.366 360.617,168.911 361.344,168.605 362.07,169.398 362.797,171.163 363.523,173.627 364.25,177.328 364.977,185.312 365.703,188.905 366.43,183.26 367.156,185.458 367.883,197.409 368.609,192.775 369.336,187.447 370.063,186.515 370.789,187.094 371.516,183.093 372.242,179.181 372.969,178.607 373.695,181.882 374.422,189.256 375.148,187.07 375.875,183.209 376.602,181.563 377.328,181.906 378.055,184.632 378.781,186.008 379.508,181.946 380.234,177.852 380.961,174.868 381.688,173.203 382.414,173.143 383.141,175.039 383.867,177.877 384.594,176.667 385.32,174.647 386.047,175.356 386.773,179.48 387.5,187.872 388.227,187.612 388.953,182.592 389.68,180.163 390.406,180.124 391.133,181.449 391.859,177.744 392.586,173.278 393.313,171.426 394.039,172.028 394.766,174.772 395.492,178.467 396.219,179.344 396.945,176.498 397.672,174.046 398.398,173.441 399.125,174.194 399.852,174.955 400.578,174.831 401.305,174.487 402.031,174.767 402.758,175.236 403.484,174.763 404.211,174.358 404.938,175.92 405.664,181.228 406.391,187.089 407.117,181.956 407.844,181.805 408.57,185.599 409.297,187.915 410.023,188.06 410.75,184.074 411.477,178.753 412.203,176.341 412.93,176.378 413.656,178.016 414.383,179.596 415.109,179.325 415.836,177.77 416.563,175.934 417.289,174.595 418.016,174.273 418.742,174.907 419.469,175.472 420.195,175.064 420.922,174.554 421.648,174.396 422.375,174.403 423.102,174.9 423.828,175.672 424.555,175.673 425.281,175.369 426.008,175.082 426.734,173.93 427.461,172.212 428.188,171.044 428.914,170.832 429.641,171.102 430.367,171.067 431.094,170.852 431.82,171.058 432.547,171.748 433.273,172.525 434,176.128 " />
</g>

<g fill="none" stroke="#1171be" stroke-opacity="1" stroke-width="0.666667" stroke-linecap="butt" stroke-linejoin="round" transform="matrix(0.75,0,0,0.75,-8,-3.17845)"
font-family="Helvetica" font-size="13" font-weight="400" font-style="normal" 
>
<polyline fill="none" vector-effect="none" points="98.3281,212.972 99.0547,193.083 99.7813,157.36 100.508,129.241 101.234,106.674 101.961,88.4403 102.688,73.809 103.414,62.3097 104.141,53.6296 104.867,47.5603 105.594,43.9683 106.32,42.779 107.047,43.9683 107.773,47.5603 108.5,53.6296 109.227,62.3097 109.953,73.809 110.68,88.4403 111.406,106.673 112.133,129.238 112.859,157.292 113.586,190.077 114.313,200.709 " />
</g>

<g fill="none" stroke="#212121" stroke-opacity="1" stroke-width="0.666667" stroke-linecap="butt" stroke-linejoin="round" transform="matrix(0.75,0,0,0.75,-8,-3.17845)"
font-family="Helvetica" font-size="13" font-weight="400" font-style="normal" 
>
<polyline fill="none" vector-effect="none" points="62,143.538 62.7266,141.467 63.4531,145.059 64.1797,151.128 64.9063,159.808 65.6328,171.306 66.3594,185.93 67.0859,204.112 67.8125,226.057 68.5391,245.133 " />
<polyline fill="none" vector-effect="none" points="149.914,191.485 150.641,193.313 151.367,196.975 152.094,202.131 " />
<polyline fill="none" vector-effect="none" points="191.328,191.27 192.055,188.481 192.781,182.827 193.508,177.71 194.234,174.463 194.961,173.39 195.688,174.649 196.414,178.424 197.141,184.22 197.867,186.309 " />
<polyline fill="none" vector-effect="none" points="238.555,191.754 239.281,195.216 240.008,198.876 " />
<polyline fill="none" vector-effect="none" points="279.969,191.82 280.695,182.801 281.422,178.399 282.148,176.127 282.875,175.039 283.602,174.86 284.328,175.65 285.055,177.633 285.781,181.451 286.508,186.808 " />
<polyline fill="none" vector-effect="none" points="324.289,181.051 325.016,180.931 325.742,179.144 326.469,177.569 327.195,176.59 327.922,176.036 328.648,176.035 329.375,176.943 330.102,179.17 330.828,182.895 331.555,185.321 " />
</g>

<g fill="#ffffff" fill-opacity="1" stroke="none" transform="matrix(7.5e-05,0,0,7.5e-05,-8,-3.17845)"
font-family="Helvetica" font-size="13" font-weight="400" font-style="normal" 
>
<path vector-effect="none" fill-rule="evenodd" d="M1.42e+06,270000 L1.42e+06,740000 L3.54e+06,740000 L3.54e+06,270000 L1.42e+06,270000"/>
</g>

<g fill="#1171be" fill-opacity="1" stroke="#1171be" stroke-opacity="1" stroke-width="0.666667" stroke-linecap="butt" stroke-linejoin="round" transform="matrix(0.75,0,0,0.75,-8,-3.17845)"
font-family="Helvetica" font-size="13" font-weight="400" font-style="normal" 
>
<polyline fill="none" vector-effect="none" points="146,36 186,36 " />
</g>

<g fill="#dd5400" fill-opacity="1" stroke="#dd5400" stroke-opacity="1" stroke-width="0.666667" stroke-linecap="butt" stroke-linejoin="round" transform="matrix(0.75,0,0,0.75,-8,-3.17845)"
font-family="Helvetica" font-size="13" font-weight="400" font-style="normal" 
>
<polyline fill="none" vector-effect="none" points="146,50.5 186,50.5 " />
</g>

<g fill="#212121" fill-opacity="1" stroke="#212121" stroke-opacity="1" stroke-width="0.666667" stroke-linecap="butt" stroke-linejoin="round" transform="matrix(0.75,0,0,0.75,-8,-3.17845)"
font-family="Helvetica" font-size="13" font-weight="400" font-style="normal" 
>
<polyline fill="none" vector-effect="none" points="146,65 186,65 " />
</g>

<g fill="#212121" fill-opacity="1" stroke="#212121" stroke-opacity="1" stroke-width="1" stroke-linecap="square" stroke-linejoin="bevel" transform="matrix(0.75,0,0,0.75,133.75,26.8215)"
font-family="Helvetica" font-size="12" font-weight="400" font-style="normal" 
>
<text fill="#212121" fill-opacity="1" stroke="none" xml:space="preserve" x="0" y="0" font-family="Helvetica" font-size="12" font-weight="400" font-style="normal" 
 >Fundamental</text>
</g>

<g fill="#212121" fill-opacity="1" stroke="#212121" stroke-opacity="1" stroke-width="1" stroke-linecap="square" stroke-linejoin="bevel" transform="matrix(0.75,0,0,0.75,133.75,37.6965)"
font-family="Helvetica" font-size="12" font-weight="400" font-style="normal" 
>
<text fill="#212121" fill-opacity="1" stroke="none" xml:space="preserve" x="0" y="0" font-family="Helvetica" font-size="12" font-weight="400" font-style="normal" 
 >Noise</text>
</g>

<g fill="#212121" fill-opacity="1" stroke="#212121" stroke-opacity="1" stroke-width="1" stroke-linecap="square" stroke-linejoin="bevel" transform="matrix(0.75,0,0,0.75,133.75,48.5715)"
font-family="Helvetica" font-size="12" font-weight="400" font-style="normal" 
>
<text fill="#212121" fill-opacity="1" stroke="none" xml:space="preserve" x="0" y="0" font-family="Helvetica" font-size="12" font-weight="400" font-style="normal" 
 >DC and Harmonics (excluded)</text>
</g>

<g fill="none" stroke="#212121" stroke-opacity="1" stroke-width="0.666667" stroke-linecap="butt" stroke-linejoin="miter" stroke-miterlimit="5" transform="matrix(0.75,0,0,0.75,-8,-3.17845)"
font-family="Helvetica" font-size="12" font-weight="400" font-style="normal" 
>
<path vector-effect="none" fill-rule="evenodd" d="M142,74 L142,27 L354,27 L354,74 L142,74"/>
</g>
</g>
</svg>
