<?xml version="1.0" encoding="UTF-8" standalone="no"?>
<svg width="111.831mm" height="72.6722mm"
 viewBox="0 0 317 206"
 xmlns="http://www.w3.org/2000/svg" xmlns:xlink="http://www.w3.org/1999/xlink"  version="1.2" baseProfile="tiny">
<title>Qt SVG Document</title>
<desc>MATLAB, The MathWorks, Inc. Version 25.2.0.3150157 R2025b Update 4</desc>
<defs>
</defs>
<g fill="none" stroke="black" stroke-width="1" fill-rule="evenodd" stroke-linecap="square" stroke-linejoin="bevel" >

<g fill="#ffffff" fill-opacity="1" stroke="none" transform="matrix(0.75,0,0,0.75,-11,-11.625)"
font-family="MS Shell Dlg 2" font-size="8.25" font-weight="400" font-style="normal" 
>
<path vector-effect="none" fill-rule="evenodd" d="M13,14 L436,14 L436,289 L13,289 L13,14"/>
</g>

<g fill="#ffffff" fill-opacity="1" stroke="none" transform="matrix(7.5e-05,0,0,7.5e-05,-11,-11.625)"
font-family="MS Shell Dlg 2" font-size="8.25" font-weight="400" font-style="normal" 
>
<path vector-effect="none" fill-rule="evenodd" d="M620000,220000 L620000,2.49e+06 L4.34e+06,2.49e+06 L4.34e+06,220000 L620000,220000"/>
</g>

<g fill="#212121" fill-opacity="0.14902" stroke="#212121" stroke-opacity="0.14902" stroke-width="0.666667" stroke-linecap="butt" stroke-linejoin="round" transform="matrix(0.75,0,0,0.75,-11,-11.625)"
font-family="MS Shell Dlg 2" font-size="8.25" font-weight="400" font-style="normal" 
>
<polyline fill="none" vector-effect="none" points="62,22 62,249 " />
<polyline fill="none" vector-effect="none" points="150.641,22 150.641,249 " />
<polyline fill="none" vector-effect="none" points="239.281,22 239.281,249 " />
<polyline fill="none" vector-effect="none" points="327.922,22 327.922,249 " />
<polyline fill="none" vector-effect="none" points="416.563,22 416.563,249 " />
<polyline fill="none" vector-effect="none" points="62,249 434,249 " />
<polyline fill="none" vector-effect="none" points="62,192.25 434,192.25 " />
<polyline fill="none" vector-effect="none" points="62,135.5 434,135.5 " />
<polyline fill="none" vector-effect="none" points="62,78.75 434,78.75 " />
<polyline fill="none" vector-effect="none" points="62,22 434,22 " />
</g>

<g fill="#212121" fill-opacity="1" stroke="#212121" stroke-opacity="1" stroke-width="0.666667" stroke-linecap="square" stroke-linejoin="round" transform="matrix(0.75,0,0,0.75,-11,-11.625)"
font-family="MS Shell Dlg 2" font-size="8.25" font-weight="400" font-style="normal" 
>
<polyline fill="none" vector-effect="none" points="62,249 434,249 " />
<polyline fill="none" vector-effect="none" points="62,22 434,22 " />
<polyline fill="none" vector-effect="none" points="62,249 62,245.28 " />
<polyline fill="none" vector-effect="none" points="150.641,249 150.641,245.28 " />
<polyline fill="none" vector-effect="none" points="239.281,249 239.281,245.28 " />
<polyline fill="none" vector-effect="none" points="327.922,249 327.922,245.28 " />
<polyline fill="none" vector-effect="none" points="416.563,249 416.563,245.28 " />
<polyline fill="none" vector-effect="none" points="62,22 62,25.72 " />
<polyline fill="none" vector-effect="none" points="150.641,22 150.641,25.72 " />
<polyline fill="none" vector-effect="none" points="239.281,22 239.281,25.72 " />
<polyline fill="none" vector-effect="none" points="327.922,22 327.922,25.72 " />
<polyline fill="none" vector-effect="none" points="416.563,22 416.563,25.72 " />
</g>

<g fill="#212121" fill-opacity="1" stroke="none" transform="matrix(0.75,0,0,0.75,32.875,188.125)"
font-family="MS Shell Dlg 2" font-size="8.25" font-weight="400" font-style="normal" 
>
<path vector-effect="none" fill-rule="evenodd" d="M0.546875,-4.59375 C0.546875,-5.6875 0.658854,-6.57031 0.882813,-7.24219 C1.10677,-7.91406 1.44271,-8.43229 1.89063,-8.79688 C2.33854,-9.16146 2.90104,-9.34375 3.57813,-9.34375 C4.07813,-9.34375 4.51563,-9.24219 4.89063,-9.03906 C5.26563,-8.83594 5.57552,-8.54688 5.82031,-8.17188 C6.0651,-7.79688 6.25781,-7.33594 6.39844,-6.78906 C6.53906,-6.24219 6.60938,-5.51042 6.60938,-4.59375 C6.60938,-3.5 6.4974,-2.61719 6.27344,-1.94531 C6.04948,-1.27344 5.71354,-0.755208 5.26563,-0.390625 C4.81771,-0.0260417 4.25521,0.15625 3.57813,0.15625 C2.68229,0.15625 1.97396,-0.166667 1.45313,-0.8125 C0.848958,-1.58333 0.546875,-2.84375 0.546875,-4.59375 M1.71875,-4.59375 C1.71875,-3.0625 1.89583,-2.04427 2.25,-1.53906 C2.60417,-1.03385 3.04688,-0.78125 3.57813,-0.78125 C4.09896,-0.78125 4.53906,-1.03385 4.89844,-1.53906 C5.25781,-2.04427 5.4375,-3.0625 5.4375,-4.59375 C5.4375,-6.125 5.25781,-7.14063 4.89844,-7.64063 C4.53906,-8.14063 4.09375,-8.39063 3.5625,-8.39063 C3.04167,-8.39063 2.61979,-8.17188 2.29688,-7.73438 C1.91146,-7.16146 1.71875,-6.11458 1.71875,-4.59375 "/>
</g>

<g fill="#212121" fill-opacity="1" stroke="none" transform="matrix(0.75,0,0,0.75,99.3555,188.125)"
font-family="MS Shell Dlg 2" font-size="8.25" font-weight="400" font-style="normal" 
>
<path vector-effect="none" fill-rule="evenodd" d="M4.84375,0 L3.70313,0 L3.70313,-7.28125 C3.42188,-7.02083 3.0599,-6.75781 2.61719,-6.49219 C2.17448,-6.22656 1.77604,-6.03125 1.42188,-5.90625 L1.42188,-7.01563 C2.05729,-7.30729 2.61458,-7.66667 3.09375,-8.09375 C3.57292,-8.52083 3.91146,-8.9375 4.10938,-9.34375 L4.84375,-9.34375 L4.84375,0"/>
</g>

<g fill="#212121" fill-opacity="1" stroke="none" transform="matrix(0.75,0,0,0.75,165.836,188.125)"
font-family="MS Shell Dlg 2" font-size="8.25" font-weight="400" font-style="normal" 
>
<path vector-effect="none" fill-rule="evenodd" d="M6.54688,-1.09375 L6.54688,0 L0.390625,0 C0.380208,-0.270833 0.427083,-0.536458 0.53125,-0.796875 C0.6875,-1.21354 0.9375,-1.625 1.28125,-2.03125 C1.625,-2.4375 2.125,-2.90625 2.78125,-3.4375 C3.79167,-4.27083 4.47396,-4.92969 4.82813,-5.41406 C5.18229,-5.89844 5.35938,-6.35417 5.35938,-6.78125 C5.35938,-7.23958 5.19792,-7.6224 4.875,-7.92969 C4.55208,-8.23698 4.13021,-8.39063 3.60938,-8.39063 C3.05729,-8.39063 2.61719,-8.22656 2.28906,-7.89844 C1.96094,-7.57031 1.79167,-7.11458 1.78125,-6.53125 L0.609375,-6.65625 C0.692708,-7.53125 0.994792,-8.19792 1.51563,-8.65625 C2.03646,-9.11458 2.73958,-9.34375 3.625,-9.34375 C4.52083,-9.34375 5.22917,-9.09635 5.75,-8.60156 C6.27083,-8.10677 6.53125,-7.49479 6.53125,-6.76563 C6.53125,-6.39063 6.45573,-6.02344 6.30469,-5.66406 C6.15365,-5.30469 5.90104,-4.92448 5.54688,-4.52344 C5.19271,-4.1224 4.60417,-3.57813 3.78125,-2.89063 C3.09375,-2.31771 2.65365,-1.92708 2.46094,-1.71875 C2.26823,-1.51042 2.10938,-1.30208 1.98438,-1.09375 L6.54688,-1.09375"/>
</g>

<g fill="#212121" fill-opacity="1" stroke="none" transform="matrix(0.75,0,0,0.75,232.316,188.125)"
font-family="MS Shell Dlg 2" font-size="8.25" font-weight="400" font-style="normal" 
>
<path vector-effect="none" fill-rule="evenodd" d="M0.546875,-2.45313 L1.6875,-2.60938 C1.82292,-1.96354 2.04688,-1.4974 2.35938,-1.21094 C2.67188,-0.924479 3.05729,-0.78125 3.51563,-0.78125 C4.04688,-0.78125 4.4974,-0.966146 4.86719,-1.33594 C5.23698,-1.70573 5.42188,-2.16667 5.42188,-2.71875 C5.42188,-3.25 5.2526,-3.6849 4.91406,-4.02344 C4.57552,-4.36198 4.14063,-4.53125 3.60938,-4.53125 C3.39063,-4.53125 3.11979,-4.48958 2.79688,-4.40625 L2.92188,-5.40625 C3.00521,-5.39583 3.06771,-5.39063 3.10938,-5.39063 C3.59896,-5.39063 4.03906,-5.51823 4.42969,-5.77344 C4.82031,-6.02865 5.01563,-6.42188 5.01563,-6.95313 C5.01563,-7.36979 4.8724,-7.71615 4.58594,-7.99219 C4.29948,-8.26823 3.93229,-8.40625 3.48438,-8.40625 C3.03646,-8.40625 2.66667,-8.26563 2.375,-7.98438 C2.08333,-7.70313 1.89063,-7.28646 1.79688,-6.73438 L0.65625,-6.9375 C0.802083,-7.69792 1.1224,-8.28906 1.61719,-8.71094 C2.11198,-9.13281 2.72396,-9.34375 3.45313,-9.34375 C3.96354,-9.34375 4.43229,-9.23438 4.85938,-9.01563 C5.28646,-8.79688 5.61458,-8.5 5.84375,-8.125 C6.07292,-7.75 6.1875,-7.34896 6.1875,-6.92188 C6.1875,-6.52604 6.07813,-6.16146 5.85938,-5.82813 C5.64063,-5.49479 5.32292,-5.23438 4.90625,-5.04688 C5.44792,-4.91146 5.8724,-4.64583 6.17969,-4.25 C6.48698,-3.85417 6.64063,-3.35417 6.64063,-2.75 C6.64063,-1.9375 6.34375,-1.2474 5.75,-0.679688 C5.15625,-0.111979 4.40625,0.171875 3.5,0.171875 C2.6875,0.171875 2.01042,-0.0729167 1.46875,-0.5625 C0.927083,-1.05208 0.619792,-1.68229 0.546875,-2.45313 "/>
</g>

<g fill="#212121" fill-opacity="1" stroke="none" transform="matrix(0.75,0,0,0.75,298.797,188.125)"
font-family="MS Shell Dlg 2" font-size="8.25" font-weight="400" font-style="normal" 
>
<path vector-effect="none" fill-rule="evenodd" d="M4.20313,0 L4.20313,-2.23438 L0.171875,-2.23438 L0.171875,-3.28125 L4.40625,-9.3125 L5.34375,-9.3125 L5.34375,-3.28125 L6.60938,-3.28125 L6.60938,-2.23438 L5.34375,-2.23438 L5.34375,0 L4.20313,0 M4.20313,-3.28125 L4.20313,-7.46875 L1.28125,-3.28125 L4.20313,-3.28125"/>
</g>

<g fill="#212121" fill-opacity="1" stroke="none" transform="matrix(0.75,0,0,0.75,149.875,201.125)"
font-family="MS Shell Dlg 2" font-size="8.25" font-weight="400" font-style="normal" 
>
<path vector-effect="none" fill-rule="evenodd" d="M3.625,0 L3.625,-8.84375 L0.328125,-8.84375 L0.328125,-10.0156 L8.26563,-10.0156 L8.26563,-8.84375 L4.95313,-8.84375 L4.95313,0 L3.625,0 M8.9375,-8.60938 L8.9375,-10.0156 L10.1563,-10.0156 L10.1563,-8.60938 L8.9375,-8.60938 M8.9375,0 L8.9375,-7.26563 L10.1563,-7.26563 L10.1563,0 L8.9375,0 M11.9219,0 L11.9219,-7.26563 L13.0313,-7.26563 L13.0313,-6.23438 C13.25,-6.59896 13.5495,-6.88802 13.9297,-7.10156 C14.3099,-7.3151 14.7396,-7.42188 15.2188,-7.42188 C15.7604,-7.42188 16.2031,-7.3099 16.5469,-7.08594 C16.8906,-6.86198 17.1354,-6.55208 17.2813,-6.15625 C17.8542,-7 18.599,-7.42188 19.5156,-7.42188 C20.2344,-7.42188 20.7891,-7.22396 21.1797,-6.82813 C21.5703,-6.43229 21.7656,-5.81771 21.7656,-4.98438 L21.7656,0 L20.5313,0 L20.5313,-4.57813 C20.5313,-5.06771 20.4922,-5.42188 20.4141,-5.64063 C20.3359,-5.85938 20.1927,-6.03385 19.9844,-6.16406 C19.776,-6.29427 19.5313,-6.35938 19.25,-6.35938 C18.7396,-6.35938 18.3151,-6.1901 17.9766,-5.85156 C17.638,-5.51302 17.4688,-4.96875 17.4688,-4.21875 L17.4688,0 L16.2344,0 L16.2344,-4.71875 C16.2344,-5.26042 16.1354,-5.66927 15.9375,-5.94531 C15.7396,-6.22135 15.4115,-6.35938 14.9531,-6.35938 C14.6094,-6.35938 14.2891,-6.26823 13.9922,-6.08594 C13.6953,-5.90365 13.4818,-5.63802 13.3516,-5.28906 C13.2214,-4.9401 13.1563,-4.43229 13.1563,-3.76563 L13.1563,0 L11.9219,0 M28.8906,-2.34375 L30.1719,-2.1875 C29.9635,-1.4375 29.5885,-0.856771 29.0469,-0.445313 C28.5052,-0.0338542 27.8125,0.171875 26.9688,0.171875 C25.9063,0.171875 25.0651,-0.15625 24.4453,-0.8125 C23.8255,-1.46875 23.5156,-2.38542 23.5156,-3.5625 C23.5156,-4.79167 23.8307,-5.74219 24.4609,-6.41406 C25.0911,-7.08594 25.9063,-7.42188 26.9063,-7.42188 C27.875,-7.42188 28.6667,-7.09115 29.2813,-6.42969 C29.8958,-5.76823 30.2031,-4.83854 30.2031,-3.64063 C30.2031,-3.56771 30.2031,-3.45833 30.2031,-3.3125 L24.7813,-3.3125 C24.8333,-2.52083 25.0599,-1.91146 25.4609,-1.48438 C25.862,-1.05729 26.3698,-0.84375 26.9844,-0.84375 C27.4323,-0.84375 27.8151,-0.963542 28.1328,-1.20313 C28.4505,-1.44271 28.7031,-1.82292 28.8906,-2.34375 M24.8594,-4.32813 L28.9063,-4.32813 C28.8542,-4.94271 28.6979,-5.40104 28.4375,-5.70313 C28.0521,-6.17188 27.5469,-6.40625 26.9219,-6.40625 C26.349,-6.40625 25.8724,-6.21875 25.4922,-5.84375 C25.112,-5.46875 24.901,-4.96354 24.8594,-4.32813 M38.2813,2.95313 C37.5938,2.08854 37.0156,1.08333 36.5469,-0.0625 C36.0781,-1.20833 35.8438,-2.39583 35.8438,-3.625 C35.8438,-4.70833 36.0208,-5.75 36.375,-6.75 C36.7813,-7.90625 37.4167,-9.05208 38.2813,-10.1875 L39.1563,-10.1875 C38.6042,-9.23958 38.2396,-8.5625 38.0625,-8.15625 C37.7813,-7.53125 37.5625,-6.875 37.4063,-6.1875 C37.2083,-5.34375 37.1094,-4.48958 37.1094,-3.625 C37.1094,-1.42708 37.7917,0.765625 39.1563,2.95313 L38.2813,2.95313 M40.4375,-2.17188 L41.6406,-2.35938 C41.7135,-1.86979 41.9063,-1.49479 42.2188,-1.23438 C42.5313,-0.973958 42.9688,-0.84375 43.5313,-0.84375 C44.0938,-0.84375 44.513,-0.958333 44.7891,-1.1875 C45.0651,-1.41667 45.2031,-1.6875 45.2031,-2 C45.2031,-2.28125 45.0781,-2.5 44.8281,-2.65625 C44.6615,-2.77083 44.2448,-2.91146 43.5781,-3.07813 C42.6719,-3.30729 42.0443,-3.50521 41.6953,-3.67188 C41.3464,-3.83854 41.0833,-4.06771 40.9063,-4.35938 C40.7292,-4.65104 40.6406,-4.97396 40.6406,-5.32813 C40.6406,-5.65104 40.7135,-5.95052 40.8594,-6.22656 C41.0052,-6.5026 41.2083,-6.73438 41.4688,-6.92188 C41.6563,-7.05729 41.9141,-7.17448 42.2422,-7.27344 C42.5703,-7.3724 42.9271,-7.42188 43.3125,-7.42188 C43.875,-7.42188 44.3724,-7.34115 44.8047,-7.17969 C45.237,-7.01823 45.5573,-6.79688 45.7656,-6.51563 C45.974,-6.23438 46.1146,-5.85938 46.1875,-5.39063 L44.9844,-5.21875 C44.9323,-5.59375 44.7734,-5.88542 44.5078,-6.09375 C44.2422,-6.30208 43.8698,-6.40625 43.3906,-6.40625 C42.8281,-6.40625 42.4271,-6.3151 42.1875,-6.13281 C41.9479,-5.95052 41.8281,-5.72917 41.8281,-5.46875 C41.8281,-5.3125 41.875,-5.17188 41.9688,-5.04688 C42.0729,-4.91146 42.2344,-4.80208 42.4531,-4.71875 C42.5677,-4.67708 42.9271,-4.57292 43.5313,-4.40625 C44.4063,-4.16667 45.0156,-3.97396 45.3594,-3.82813 C45.7031,-3.68229 45.9714,-3.46875 46.1641,-3.1875 C46.3568,-2.90625 46.4531,-2.55729 46.4531,-2.14063 C46.4531,-1.72396 46.3359,-1.33594 46.1016,-0.976563 C45.8672,-0.617188 45.5234,-0.335938 45.0703,-0.132813 C44.6172,0.0703125 44.1042,0.171875 43.5313,0.171875 C42.5938,0.171875 41.8776,-0.0260417 41.3828,-0.421875 C40.888,-0.817708 40.5729,-1.40104 40.4375,-2.17188 M52.8906,-2.34375 L54.1719,-2.1875 C53.9635,-1.4375 53.5885,-0.856771 53.0469,-0.445313 C52.5052,-0.0338542 51.8125,0.171875 50.9688,0.171875 C49.9063,0.171875 49.0651,-0.15625 48.4453,-0.8125 C47.8255,-1.46875 47.5156,-2.38542 47.5156,-3.5625 C47.5156,-4.79167 47.8307,-5.74219 48.4609,-6.41406 C49.0911,-7.08594 49.9063,-7.42188 50.9063,-7.42188 C51.875,-7.42188 52.6667,-7.09115 53.2813,-6.42969 C53.8958,-5.76823 54.2031,-4.83854 54.2031,-3.64063 C54.2031,-3.56771 54.2031,-3.45833 54.2031,-3.3125 L48.7813,-3.3125 C48.8333,-2.52083 49.0599,-1.91146 49.4609,-1.48438 C49.862,-1.05729 50.3698,-0.84375 50.9844,-0.84375 C51.4323,-0.84375 51.8151,-0.963542 52.1328,-1.20313 C52.4505,-1.44271 52.7031,-1.82292 52.8906,-2.34375 M48.8594,-4.32813 L52.9063,-4.32813 C52.8542,-4.94271 52.6979,-5.40104 52.4375,-5.70313 C52.0521,-6.17188 51.5469,-6.40625 50.9219,-6.40625 C50.349,-6.40625 49.8724,-6.21875 49.4922,-5.84375 C49.112,-5.46875 48.901,-4.96354 48.8594,-4.32813 M60.6563,-2.65625 L61.875,-2.5 C61.7396,-1.66667 61.3984,-1.01302 60.8516,-0.539063 C60.3047,-0.0651042 59.6354,0.171875 58.8438,0.171875 C57.8542,0.171875 57.0573,-0.153646 56.4531,-0.804688 C55.849,-1.45573 55.5469,-2.39063 55.5469,-3.60938 C55.5469,-4.39063 55.6771,-5.07552 55.9375,-5.66406 C56.1979,-6.2526 56.5938,-6.69271 57.125,-6.98438 C57.6563,-7.27604 58.2344,-7.42188 58.8594,-7.42188 C59.6406,-7.42188 60.2839,-7.22396 60.7891,-6.82813 C61.2943,-6.43229 61.6146,-5.86458 61.75,-5.125 L60.5625,-4.9375 C60.4479,-5.42708 60.2448,-5.79427 59.9531,-6.03906 C59.6615,-6.28385 59.3125,-6.40625 58.9063,-6.40625 C58.2813,-6.40625 57.776,-6.1849 57.3906,-5.74219 C57.0052,-5.29948 56.8125,-4.59896 56.8125,-3.64063 C56.8125,-2.66146 57,-1.95052 57.375,-1.50781 C57.75,-1.0651 58.2344,-0.84375 58.8281,-0.84375 C59.3177,-0.84375 59.724,-0.992188 60.0469,-1.28906 C60.3698,-1.58594 60.5729,-2.04167 60.6563,-2.65625 M63.7344,2.95313 L62.8438,2.95313 C64.2083,0.765625 64.8906,-1.42708 64.8906,-3.625 C64.8906,-4.47917 64.7917,-5.32813 64.5938,-6.17188 C64.4375,-6.85938 64.224,-7.51563 63.9531,-8.14063 C63.776,-8.54688 63.4063,-9.22917 62.8438,-10.1875 L63.7344,-10.1875 C64.5885,-9.05208 65.2188,-7.90625 65.625,-6.75 C65.9792,-5.75 66.1563,-4.70833 66.1563,-3.625 C66.1563,-2.39583 65.9193,-1.20833 65.4453,-0.0625 C64.9714,1.08333 64.401,2.08854 63.7344,2.95313 "/>
</g>

<g fill="#212121" fill-opacity="1" stroke="none" transform="matrix(0.75,0,0,0.75,289.75,203.625)"
font-family="MS Shell Dlg 2" font-size="8.25" font-weight="400" font-style="normal" 
>
<path vector-effect="none" fill-rule="evenodd" d="M1.90625,-0.375 C1.90625,-0.4375 1.92708,-0.5 1.96875,-0.5625 L4.67188,-3.25 L1.96875,-5.95313 C1.92708,-5.99479 1.90625,-6.05208 1.90625,-6.125 C1.90625,-6.1875 1.93229,-6.2474 1.98438,-6.30469 C2.03646,-6.36198 2.09896,-6.39063 2.17188,-6.39063 C2.23438,-6.39063 2.30208,-6.35938 2.375,-6.29688 L5.0625,-3.60938 L7.73438,-6.29688 C7.80729,-6.35938 7.86979,-6.39063 7.92188,-6.39063 C7.99479,-6.39063 8.05729,-6.36458 8.10938,-6.3125 C8.16146,-6.26042 8.1875,-6.19792 8.1875,-6.125 C8.1875,-6.05208 8.16667,-5.99479 8.125,-5.95313 L5.42188,-3.25 L8.125,-0.5625 C8.16667,-0.5 8.1875,-0.4375 8.1875,-0.375 C8.1875,-0.302083 8.16146,-0.239583 8.10938,-0.1875 C8.05729,-0.135417 7.99479,-0.109375 7.92188,-0.109375 C7.85938,-0.109375 7.79688,-0.140625 7.73438,-0.203125 L5.0625,-2.89063 L2.375,-0.203125 C2.30208,-0.140625 2.23438,-0.109375 2.17188,-0.109375 C2.09896,-0.109375 2.03646,-0.138021 1.98438,-0.195313 C1.93229,-0.252604 1.90625,-0.3125 1.90625,-0.375 "/>
</g>

<g fill="#212121" fill-opacity="1" stroke="none" transform="matrix(0.75,0,0,0.75,297.25,203.625)"
font-family="MS Shell Dlg 2" font-size="8.25" font-weight="400" font-style="normal" 
>
<path vector-effect="none" fill-rule="evenodd" d="M4.84375,0 L3.70313,0 L3.70313,-7.28125 C3.42188,-7.02083 3.0599,-6.75781 2.61719,-6.49219 C2.17448,-6.22656 1.77604,-6.03125 1.42188,-5.90625 L1.42188,-7.01563 C2.05729,-7.30729 2.61458,-7.66667 3.09375,-8.09375 C3.57292,-8.52083 3.91146,-8.9375 4.10938,-9.34375 L4.84375,-9.34375 L4.84375,0 M7.54688,-4.59375 C7.54688,-5.6875 7.65885,-6.57031 7.88281,-7.24219 C8.10677,-7.91406 8.44271,-8.43229 8.89063,-8.79688 C9.33854,-9.16146 9.90104,-9.34375 10.5781,-9.34375 C11.0781,-9.34375 11.5156,-9.24219 11.8906,-9.03906 C12.2656,-8.83594 12.5755,-8.54688 12.8203,-8.17188 C13.0651,-7.79688 13.2578,-7.33594 13.3984,-6.78906 C13.5391,-6.24219 13.6094,-5.51042 13.6094,-4.59375 C13.6094,-3.5 13.4974,-2.61719 13.2734,-1.94531 C13.0495,-1.27344 12.7135,-0.755208 12.2656,-0.390625 C11.8177,-0.0260417 11.2552,0.15625 10.5781,0.15625 C9.68229,0.15625 8.97396,-0.166667 8.45313,-0.8125 C7.84896,-1.58333 7.54688,-2.84375 7.54688,-4.59375 M8.71875,-4.59375 C8.71875,-3.0625 8.89583,-2.04427 9.25,-1.53906 C9.60417,-1.03385 10.0469,-0.78125 10.5781,-0.78125 C11.099,-0.78125 11.5391,-1.03385 11.8984,-1.53906 C12.2578,-2.04427 12.4375,-3.0625 12.4375,-4.59375 C12.4375,-6.125 12.2578,-7.14063 11.8984,-7.64063 C11.5391,-8.14063 11.0938,-8.39063 10.5625,-8.39063 C10.0417,-8.39063 9.61979,-8.17188 9.29688,-7.73438 C8.91146,-7.16146 8.71875,-6.11458 8.71875,-4.59375 "/>
</g>

<g fill="#212121" fill-opacity="1" stroke="none" transform="matrix(0.75,0,0,0.75,307.75,199.125)"
font-family="MS Shell Dlg 2" font-size="8.25" font-weight="400" font-style="normal" 
>
<path vector-effect="none" fill-rule="evenodd" d="M0.3125,-2.15625 L0.3125,-3.03125 L3.01563,-3.03125 L3.01563,-2.15625 L0.3125,-2.15625 M6.23438,0 L6.23438,-1.71875 L3.125,-1.71875 L3.125,-2.51563 L6.39063,-7.15625 L7.10938,-7.15625 L7.10938,-2.51563 L8.07813,-2.51563 L8.07813,-1.71875 L7.10938,-1.71875 L7.10938,0 L6.23438,0 M6.23438,-2.51563 L6.23438,-5.75 L3.98438,-2.51563 L6.23438,-2.51563"/>
</g>

<g fill="#212121" fill-opacity="1" stroke="none" transform="matrix(0,-0.75,0.75,0,9,116.25)"
font-family="MS Shell Dlg 2" font-size="8.25" font-weight="400" font-style="normal" 
>
<path vector-effect="none" fill-rule="evenodd" d="M3.9375,0 L0.0625,-10.0156 L1.5,-10.0156 L4.10938,-2.73438 C4.31771,-2.15104 4.48958,-1.60417 4.625,-1.09375 C4.78125,-1.64583 4.96354,-2.19271 5.17188,-2.73438 L7.875,-10.0156 L9.23438,-10.0156 L5.3125,0 L3.9375,0 M9.46875,-3.625 C9.46875,-4.96875 9.84375,-5.96875 10.5938,-6.625 C11.2083,-7.15625 11.9688,-7.42188 12.875,-7.42188 C13.8646,-7.42188 14.6771,-7.09635 15.3125,-6.44531 C15.9479,-5.79427 16.2656,-4.89063 16.2656,-3.73438 C16.2656,-2.79688 16.125,-2.0599 15.8438,-1.52344 C15.5625,-0.986979 15.1536,-0.570313 14.6172,-0.273438 C14.0807,0.0234375 13.5,0.171875 12.875,0.171875 C11.8542,0.171875 11.0313,-0.15625 10.4063,-0.8125 C9.78125,-1.46875 9.46875,-2.40625 9.46875,-3.625 M10.7344,-3.625 C10.7344,-2.69792 10.9375,-2.0026 11.3438,-1.53906 C11.75,-1.07552 12.2604,-0.84375 12.875,-0.84375 C13.4792,-0.84375 13.9844,-1.07813 14.3906,-1.54688 C14.7969,-2.01563 15,-2.72396 15,-3.67188 C15,-4.56771 14.7969,-5.2474 14.3906,-5.71094 C13.9844,-6.17448 13.4792,-6.40625 12.875,-6.40625 C12.2604,-6.40625 11.75,-6.17708 11.3438,-5.71875 C10.9375,-5.26042 10.7344,-4.5625 10.7344,-3.625 M17.8906,0 L17.8906,-10.0156 L19.125,-10.0156 L19.125,0 L17.8906,0 M23.6094,-1.09375 L23.7813,-0.015625 C23.4375,0.0572917 23.1302,0.09375 22.8594,0.09375 C22.4115,0.09375 22.0651,0.0234375 21.8203,-0.117188 C21.5755,-0.257813 21.4036,-0.442708 21.3047,-0.671875 C21.2057,-0.901042 21.1563,-1.38542 21.1563,-2.125 L21.1563,-6.29688 L20.25,-6.29688 L20.25,-7.26563 L21.1563,-7.26563 L21.1563,-9.0625 L22.375,-9.79688 L22.375,-7.26563 L23.6094,-7.26563 L23.6094,-6.29688 L22.375,-6.29688 L22.375,-2.0625 C22.375,-1.70833 22.3958,-1.48177 22.4375,-1.38281 C22.4792,-1.28385 22.5495,-1.20313 22.6484,-1.14063 C22.7474,-1.07813 22.8854,-1.04688 23.0625,-1.04688 C23.2083,-1.04688 23.3906,-1.0625 23.6094,-1.09375 M29.6563,-0.890625 C29.2083,-0.505208 28.7734,-0.231771 28.3516,-0.0703125 C27.9297,0.0911458 27.474,0.171875 26.9844,0.171875 C26.1927,0.171875 25.5807,-0.0234375 25.1484,-0.414063 C24.7161,-0.804688 24.5,-1.30729 24.5,-1.92188 C24.5,-2.27604 24.5807,-2.59896 24.7422,-2.89063 C24.9036,-3.18229 25.1172,-3.41667 25.3828,-3.59375 C25.6484,-3.77083 25.9427,-3.90625 26.2656,-4 C26.5052,-4.0625 26.8698,-4.125 27.3594,-4.1875 C28.3594,-4.30208 29.0938,-4.44271 29.5625,-4.60938 C29.5625,-4.77604 29.5625,-4.88021 29.5625,-4.92188 C29.5625,-5.43229 29.4479,-5.78646 29.2188,-5.98438 C28.9063,-6.26563 28.4375,-6.40625 27.8125,-6.40625 C27.2396,-6.40625 26.8151,-6.30469 26.5391,-6.10156 C26.263,-5.89844 26.0573,-5.54167 25.9219,-5.03125 L24.7188,-5.1875 C24.8229,-5.70833 25.0026,-6.125 25.2578,-6.4375 C25.513,-6.75 25.8776,-6.99219 26.3516,-7.16406 C26.8255,-7.33594 27.375,-7.42188 28,-7.42188 C28.6146,-7.42188 29.1146,-7.34896 29.5,-7.20313 C29.8854,-7.05729 30.1693,-6.875 30.3516,-6.65625 C30.5339,-6.4375 30.6615,-6.15625 30.7344,-5.8125 C30.776,-5.60417 30.7969,-5.22917 30.7969,-4.6875 L30.7969,-3.04688 C30.7969,-1.90104 30.8229,-1.17708 30.875,-0.875 C30.9271,-0.572917 31.0313,-0.28125 31.1875,0 L29.9063,0 C29.7813,-0.260417 29.6979,-0.557292 29.6563,-0.890625 M29.5625,-3.64063 C29.1146,-3.46354 28.4427,-3.30729 27.5469,-3.17188 C27.0469,-3.09896 26.6901,-3.01823 26.4766,-2.92969 C26.263,-2.84115 26.099,-2.70833 25.9844,-2.53125 C25.8698,-2.35417 25.8125,-2.16146 25.8125,-1.95313 C25.8125,-1.61979 25.9375,-1.34375 26.1875,-1.125 C26.4375,-0.90625 26.8021,-0.796875 27.2813,-0.796875 C27.7604,-0.796875 28.1823,-0.901042 28.5469,-1.10938 C28.9115,-1.31771 29.1823,-1.60417 29.3594,-1.96875 C29.4948,-2.23958 29.5625,-2.64583 29.5625,-3.1875 L29.5625,-3.64063 M32.7031,0.609375 L33.8906,0.78125 C33.9427,1.14583 34.0833,1.41667 34.3125,1.59375 C34.6146,1.8125 35.0313,1.92188 35.5625,1.92188 C36.1354,1.92188 36.5755,1.8099 36.8828,1.58594 C37.1901,1.36198 37.401,1.04167 37.5156,0.625 C37.5781,0.375 37.6042,-0.151042 37.5938,-0.953125 C37.0625,-0.317708 36.3958,0 35.5938,0 C34.5938,0 33.8203,-0.359375 33.2734,-1.07813 C32.7266,-1.79688 32.4531,-2.66146 32.4531,-3.67188 C32.4531,-4.35938 32.5781,-4.9974 32.8281,-5.58594 C33.0781,-6.17448 33.4401,-6.6276 33.9141,-6.94531 C34.388,-7.26302 34.9479,-7.42188 35.5938,-7.42188 C36.4479,-7.42188 37.1563,-7.07813 37.7188,-6.39063 L37.7188,-7.26563 L38.8438,-7.26563 L38.8438,-0.984375 C38.8438,0.151042 38.7292,0.953125 38.5,1.42188 C38.2708,1.89063 37.9063,2.26302 37.4063,2.53906 C36.9063,2.8151 36.2917,2.95313 35.5625,2.95313 C34.6979,2.95313 34,2.75781 33.4688,2.36719 C32.9375,1.97656 32.6823,1.39063 32.7031,0.609375 M33.7188,-3.76563 C33.7188,-2.80729 33.9063,-2.10938 34.2813,-1.67188 C34.6563,-1.23438 35.1302,-1.01563 35.7031,-1.01563 C36.2656,-1.01563 36.7396,-1.23438 37.125,-1.67188 C37.5104,-2.10938 37.7031,-2.79167 37.7031,-3.71875 C37.7031,-4.60417 37.5052,-5.27344 37.1094,-5.72656 C36.7135,-6.17969 36.2396,-6.40625 35.6875,-6.40625 C35.1354,-6.40625 34.6693,-6.1849 34.2891,-5.74219 C33.9089,-5.29948 33.7188,-4.64063 33.7188,-3.76563 M45.8906,-2.34375 L47.1719,-2.1875 C46.9635,-1.4375 46.5885,-0.856771 46.0469,-0.445313 C45.5052,-0.0338542 44.8125,0.171875 43.9688,0.171875 C42.9063,0.171875 42.0651,-0.15625 41.4453,-0.8125 C40.8255,-1.46875 40.5156,-2.38542 40.5156,-3.5625 C40.5156,-4.79167 40.8307,-5.74219 41.4609,-6.41406 C42.0911,-7.08594 42.9063,-7.42188 43.9063,-7.42188 C44.875,-7.42188 45.6667,-7.09115 46.2813,-6.42969 C46.8958,-5.76823 47.2031,-4.83854 47.2031,-3.64063 C47.2031,-3.56771 47.2031,-3.45833 47.2031,-3.3125 L41.7813,-3.3125 C41.8333,-2.52083 42.0599,-1.91146 42.4609,-1.48438 C42.862,-1.05729 43.3698,-0.84375 43.9844,-0.84375 C44.4323,-0.84375 44.8151,-0.963542 45.1328,-1.20313 C45.4505,-1.44271 45.7031,-1.82292 45.8906,-2.34375 M41.8594,-4.32813 L45.9063,-4.32813 C45.8542,-4.94271 45.6979,-5.40104 45.4375,-5.70313 C45.0521,-6.17188 44.5469,-6.40625 43.9219,-6.40625 C43.349,-6.40625 42.8724,-6.21875 42.4922,-5.84375 C42.112,-5.46875 41.901,-4.96354 41.8594,-4.32813 M55.2813,2.95313 C54.5938,2.08854 54.0156,1.08333 53.5469,-0.0625 C53.0781,-1.20833 52.8438,-2.39583 52.8438,-3.625 C52.8438,-4.70833 53.0208,-5.75 53.375,-6.75 C53.7813,-7.90625 54.4167,-9.05208 55.2813,-10.1875 L56.1563,-10.1875 C55.6042,-9.23958 55.2396,-8.5625 55.0625,-8.15625 C54.7813,-7.53125 54.5625,-6.875 54.4063,-6.1875 C54.2083,-5.34375 54.1094,-4.48958 54.1094,-3.625 C54.1094,-1.42708 54.7917,0.765625 56.1563,2.95313 L55.2813,2.95313 M60.9375,0 L57.0625,-10.0156 L58.5,-10.0156 L61.1094,-2.73438 C61.3177,-2.15104 61.4896,-1.60417 61.625,-1.09375 C61.7813,-1.64583 61.9635,-2.19271 62.1719,-2.73438 L64.875,-10.0156 L66.2344,-10.0156 L62.3125,0 L60.9375,0 M67.7344,2.95313 L66.8438,2.95313 C68.2083,0.765625 68.8906,-1.42708 68.8906,-3.625 C68.8906,-4.47917 68.7917,-5.32813 68.5938,-6.17188 C68.4375,-6.85938 68.224,-7.51563 67.9531,-8.14063 C67.776,-8.54688 67.4063,-9.22917 66.8438,-10.1875 L67.7344,-10.1875 C68.5885,-9.05208 69.2188,-7.90625 69.625,-6.75 C69.9792,-5.75 70.1563,-4.70833 70.1563,-3.625 C70.1563,-2.39583 69.9193,-1.20833 69.4453,-0.0625 C68.9714,1.08333 68.401,2.08854 67.7344,2.95313 "/>
</g>

<g fill="#212121" fill-opacity="1" stroke="#212121" stroke-opacity="1" stroke-width="0.666667" stroke-linecap="square" stroke-linejoin="round" transform="matrix(0.75,0,0,0.75,-11,-11.625)"
font-family="MS Shell Dlg 2" font-size="8.25" font-weight="400" font-style="normal" 
>
<polyline fill="none" vector-effect="none" points="62,249 62,22 " />
<polyline fill="none" vector-effect="none" points="434,249 434,22 " />
<polyline fill="none" vector-effect="none" points="62,249 65.72,249 " />
<polyline fill="none" vector-effect="none" points="430.28,249 434,249 " />
<polyline fill="none" vector-effect="none" points="62,192.25 65.72,192.25 " />
<polyline fill="none" vector-effect="none" points="430.28,192.25 434,192.25 " />
<polyline fill="none" vector-effect="none" points="62,135.5 65.72,135.5 " />
<polyline fill="none" vector-effect="none" points="430.28,135.5 434,135.5 " />
<polyline fill="none" vector-effect="none" points="62,78.75 65.72,78.75 " />
<polyline fill="none" vector-effect="none" points="430.28,78.75 434,78.75 " />
<polyline fill="none" vector-effect="none" points="62,22 65.72,22 " />
<polyline fill="none" vector-effect="none" points="430.28,22 434,22 " />
</g>

<g fill="#212121" fill-opacity="1" stroke="none" transform="matrix(0.75,0,0,0.75,23.25,178.5)"
font-family="MS Shell Dlg 2" font-size="8.25" font-weight="400" font-style="normal" 
>
<path vector-effect="none" fill-rule="evenodd" d="M0.40625,-2.79688 L0.40625,-3.9375 L3.92188,-3.9375 L3.92188,-2.79688 L0.40625,-2.79688 M8.84375,0 L7.70313,0 L7.70313,-7.28125 C7.42188,-7.02083 7.0599,-6.75781 6.61719,-6.49219 C6.17448,-6.22656 5.77604,-6.03125 5.42188,-5.90625 L5.42188,-7.01563 C6.05729,-7.30729 6.61458,-7.66667 7.09375,-8.09375 C7.57292,-8.52083 7.91146,-8.9375 8.10938,-9.34375 L8.84375,-9.34375 L8.84375,0"/>
</g>

<g fill="#212121" fill-opacity="1" stroke="none" transform="matrix(0.75,0,0,0.75,15,135.938)"
font-family="MS Shell Dlg 2" font-size="8.25" font-weight="400" font-style="normal" 
>
<path vector-effect="none" fill-rule="evenodd" d="M0.40625,-2.79688 L0.40625,-3.9375 L3.92188,-3.9375 L3.92188,-2.79688 L0.40625,-2.79688 M4.54688,-4.59375 C4.54688,-5.6875 4.65885,-6.57031 4.88281,-7.24219 C5.10677,-7.91406 5.44271,-8.43229 5.89063,-8.79688 C6.33854,-9.16146 6.90104,-9.34375 7.57813,-9.34375 C8.07813,-9.34375 8.51563,-9.24219 8.89063,-9.03906 C9.26563,-8.83594 9.57552,-8.54688 9.82031,-8.17188 C10.0651,-7.79688 10.2578,-7.33594 10.3984,-6.78906 C10.5391,-6.24219 10.6094,-5.51042 10.6094,-4.59375 C10.6094,-3.5 10.4974,-2.61719 10.2734,-1.94531 C10.0495,-1.27344 9.71354,-0.755208 9.26563,-0.390625 C8.81771,-0.0260417 8.25521,0.15625 7.57813,0.15625 C6.68229,0.15625 5.97396,-0.166667 5.45313,-0.8125 C4.84896,-1.58333 4.54688,-2.84375 4.54688,-4.59375 M5.71875,-4.59375 C5.71875,-3.0625 5.89583,-2.04427 6.25,-1.53906 C6.60417,-1.03385 7.04688,-0.78125 7.57813,-0.78125 C8.09896,-0.78125 8.53906,-1.03385 8.89844,-1.53906 C9.25781,-2.04427 9.4375,-3.0625 9.4375,-4.59375 C9.4375,-6.125 9.25781,-7.14063 8.89844,-7.64063 C8.53906,-8.14063 8.09375,-8.39063 7.5625,-8.39063 C7.04167,-8.39063 6.61979,-8.17188 6.29688,-7.73438 C5.91146,-7.16146 5.71875,-6.11458 5.71875,-4.59375 M12.1875,0 L12.1875,-1.29688 L13.4844,-1.29688 L13.4844,0 L12.1875,0 M15.5469,-2.4375 L16.7344,-2.54688 C16.8281,-1.95313 17.0365,-1.51042 17.3594,-1.21875 C17.6823,-0.927083 18.0729,-0.78125 18.5313,-0.78125 C19.0833,-0.78125 19.5495,-0.989583 19.9297,-1.40625 C20.3099,-1.82292 20.5,-2.36979 20.5,-3.04688 C20.5,-3.70313 20.3177,-4.21875 19.9531,-4.59375 C19.5885,-4.96875 19.1094,-5.15625 18.5156,-5.15625 C18.1406,-5.15625 17.8047,-5.07292 17.5078,-4.90625 C17.2109,-4.73958 16.9792,-4.52604 16.8125,-4.26563 L15.75,-4.40625 L16.6406,-9.17188 L21.2656,-9.17188 L21.2656,-8.09375 L17.5625,-8.09375 L17.0625,-5.59375 C17.6146,-5.97917 18.1979,-6.17188 18.8125,-6.17188 C19.625,-6.17188 20.3099,-5.89063 20.8672,-5.32813 C21.4245,-4.76563 21.7031,-4.04167 21.7031,-3.15625 C21.7031,-2.3125 21.4583,-1.58333 20.9688,-0.96875 C20.375,-0.21875 19.5625,0.15625 18.5313,0.15625 C17.6875,0.15625 16.9974,-0.0807292 16.4609,-0.554688 C15.9245,-1.02865 15.6198,-1.65625 15.5469,-2.4375 "/>
</g>

<g fill="#212121" fill-opacity="1" stroke="none" transform="matrix(0.75,0,0,0.75,26.25,93.375)"
font-family="MS Shell Dlg 2" font-size="8.25" font-weight="400" font-style="normal" 
>
<path vector-effect="none" fill-rule="evenodd" d="M0.546875,-4.59375 C0.546875,-5.6875 0.658854,-6.57031 0.882813,-7.24219 C1.10677,-7.91406 1.44271,-8.43229 1.89063,-8.79688 C2.33854,-9.16146 2.90104,-9.34375 3.57813,-9.34375 C4.07813,-9.34375 4.51563,-9.24219 4.89063,-9.03906 C5.26563,-8.83594 5.57552,-8.54688 5.82031,-8.17188 C6.0651,-7.79688 6.25781,-7.33594 6.39844,-6.78906 C6.53906,-6.24219 6.60938,-5.51042 6.60938,-4.59375 C6.60938,-3.5 6.4974,-2.61719 6.27344,-1.94531 C6.04948,-1.27344 5.71354,-0.755208 5.26563,-0.390625 C4.81771,-0.0260417 4.25521,0.15625 3.57813,0.15625 C2.68229,0.15625 1.97396,-0.166667 1.45313,-0.8125 C0.848958,-1.58333 0.546875,-2.84375 0.546875,-4.59375 M1.71875,-4.59375 C1.71875,-3.0625 1.89583,-2.04427 2.25,-1.53906 C2.60417,-1.03385 3.04688,-0.78125 3.57813,-0.78125 C4.09896,-0.78125 4.53906,-1.03385 4.89844,-1.53906 C5.25781,-2.04427 5.4375,-3.0625 5.4375,-4.59375 C5.4375,-6.125 5.25781,-7.14063 4.89844,-7.64063 C4.53906,-8.14063 4.09375,-8.39063 3.5625,-8.39063 C3.04167,-8.39063 2.61979,-8.17188 2.29688,-7.73438 C1.91146,-7.16146 1.71875,-6.11458 1.71875,-4.59375 "/>
</g>

<g fill="#212121" fill-opacity="1" stroke="none" transform="matrix(0.75,0,0,0.75,18,50.8125)"
font-family="MS Shell Dlg 2" font-size="8.25" font-weight="400" font-style="normal" 
>
<path vector-effect="none" fill-rule="evenodd" d="M0.546875,-4.59375 C0.546875,-5.6875 0.658854,-6.57031 0.882813,-7.24219 C1.10677,-7.91406 1.44271,-8.43229 1.89063,-8.79688 C2.33854,-9.16146 2.90104,-9.34375 3.57813,-9.34375 C4.07813,-9.34375 4.51563,-9.24219 4.89063,-9.03906 C5.26563,-8.83594 5.57552,-8.54688 5.82031,-8.17188 C6.0651,-7.79688 6.25781,-7.33594 6.39844,-6.78906 C6.53906,-6.24219 6.60938,-5.51042 6.60938,-4.59375 C6.60938,-3.5 6.4974,-2.61719 6.27344,-1.94531 C6.04948,-1.27344 5.71354,-0.755208 5.26563,-0.390625 C4.81771,-0.0260417 4.25521,0.15625 3.57813,0.15625 C2.68229,0.15625 1.97396,-0.166667 1.45313,-0.8125 C0.848958,-1.58333 0.546875,-2.84375 0.546875,-4.59375 M1.71875,-4.59375 C1.71875,-3.0625 1.89583,-2.04427 2.25,-1.53906 C2.60417,-1.03385 3.04688,-0.78125 3.57813,-0.78125 C4.09896,-0.78125 4.53906,-1.03385 4.89844,-1.53906 C5.25781,-2.04427 5.4375,-3.0625 5.4375,-4.59375 C5.4375,-6.125 5.25781,-7.14063 4.89844,-7.64063 C4.53906,-8.14063 4.09375,-8.39063 3.5625,-8.39063 C3.04167,-8.39063 2.61979,-8.17188 2.29688,-7.73438 C1.91146,-7.16146 1.71875,-6.11458 1.71875,-4.59375 M8.1875,0 L8.1875,-1.29688 L9.48438,-1.29688 L9.48438,0 L8.1875,0 M11.5469,-2.4375 L12.7344,-2.54688 C12.8281,-1.95313 13.0365,-1.51042 13.3594,-1.21875 C13.6823,-0.927083 14.0729,-0.78125 14.5313,-0.78125 C15.0833,-0.78125 15.5495,-0.989583 15.9297,-1.40625 C16.3099,-1.82292 16.5,-2.36979 16.5,-3.04688 C16.5,-3.70313 16.3177,-4.21875 15.9531,-4.59375 C15.5885,-4.96875 15.1094,-5.15625 14.5156,-5.15625 C14.1406,-5.15625 13.8047,-5.07292 13.5078,-4.90625 C13.2109,-4.73958 12.9792,-4.52604 12.8125,-4.26563 L11.75,-4.40625 L12.6406,-9.17188 L17.2656,-9.17188 L17.2656,-8.09375 L13.5625,-8.09375 L13.0625,-5.59375 C13.6146,-5.97917 14.1979,-6.17188 14.8125,-6.17188 C15.625,-6.17188 16.3099,-5.89063 16.8672,-5.32813 C17.4245,-4.76563 17.7031,-4.04167 17.7031,-3.15625 C17.7031,-2.3125 17.4583,-1.58333 16.9688,-0.96875 C16.375,-0.21875 15.5625,0.15625 14.5313,0.15625 C13.6875,0.15625 12.9974,-0.0807292 12.4609,-0.554688 C11.9245,-1.02865 11.6198,-1.65625 11.5469,-2.4375 "/>
</g>

<g fill="#212121" fill-opacity="1" stroke="none" transform="matrix(0.75,0,0,0.75,26.25,8.25)"
font-family="MS Shell Dlg 2" font-size="8.25" font-weight="400" font-style="normal" 
>
<path vector-effect="none" fill-rule="evenodd" d="M4.84375,0 L3.70313,0 L3.70313,-7.28125 C3.42188,-7.02083 3.0599,-6.75781 2.61719,-6.49219 C2.17448,-6.22656 1.77604,-6.03125 1.42188,-5.90625 L1.42188,-7.01563 C2.05729,-7.30729 2.61458,-7.66667 3.09375,-8.09375 C3.57292,-8.52083 3.91146,-8.9375 4.10938,-9.34375 L4.84375,-9.34375 L4.84375,0"/>
</g>

<g fill="none" stroke="#1171be" stroke-opacity="1" stroke-width="0.666667" stroke-linecap="butt" stroke-linejoin="round" transform="matrix(0.75,0,0,0.75,-11,-11.625)"
font-family="MS Shell Dlg 2" font-size="8.25" font-weight="400" font-style="normal" 
>
<polyline fill="none" vector-effect="none" points="62,22 62.0866,249 62.1731,249 62.2597,22 62.3463,22 62.4328,249 62.5194,249 62.6059,22 62.6925,22 62.7791,249 62.8656,249 62.9522,22 63.0388,22 63.1253,249 63.2119,249 63.2984,22 63.385,22 63.4716,249 63.5581,249 63.6447,22 63.7313,22 63.8178,249 63.9044,22 63.991,249 64.0775,249 64.1641,22 64.2506,22 64.3372,249 64.4238,22 64.5103,249 64.5969,22 64.6835,249 64.77,22 64.8566,249 64.9431,22 65.0297,249 65.1163,22 65.2028,249 65.2894,22 65.376,249 65.4625,22 65.5491,249 65.6357,22 65.7222,249 65.8088,22 65.8953,249 65.9819,22 66.0685,22 66.155,249 66.2416,249 66.3282,22 66.4147,22 66.5013,249 66.5878,249 66.6744,22 66.761,22 66.8475,249 66.9341,249 67.0207,22 67.1072,22 67.1938,249 67.2803,22 67.3669,249 67.4535,22 67.54,249 67.6266,22 67.7132,249 67.7997,22 67.8863,249 67.9729,22 68.0594,22 68.146,249 68.2325,249 68.3191,22 68.4057,22 68.4922,249 68.5788,249 68.6654,22 68.7519,22 68.8385,249 68.925,22 69.0116,249 69.0982,22 69.1847,249 69.2713,22 69.3579,249 69.4444,22 69.531,249 69.6176,22 69.7041,22 69.7907,249 69.8772,249 69.9638,22 70.0504,22 70.1369,249 70.2235,22 70.3101,249 70.3966,22 70.4832,249 70.5697,22 70.6563,249 70.7429,22 70.8294,249 70.916,22 71.0026,22 71.0891,249 71.1757,22 71.2623,249 71.3488,249 71.4354,22 71.5219,22 71.6085,249 71.6951,22 71.7816,22 71.8682,249 71.9548,249 72.0413,22 72.1279,249 72.2144,22 72.301,22 72.3876,249 72.4741,22 72.5607,249 72.6473,22 72.7338,249 72.8204,22 72.907,22 72.9935,249 73.0801,249 73.1666,22 73.2532,22 73.3398,249 73.4263,22 73.5129,249 73.5995,22 73.686,249 73.7726,22 73.8591,249 73.9457,22 74.0323,22 74.1188,249 74.2054,22 74.292,249 74.3785,249 74.4651,22 74.5517,22 74.6382,22 74.7248,249 74.8113,22 74.8979,249 74.9845,249 75.071,22 75.1576,22 75.2442,249 75.3307,22 75.4173,22 75.5038,249 75.5904,249 75.677,22 75.7635,22 75.8501,249 75.9367,22 76.0232,249 76.1098,22 76.1964,249 76.2829,22 76.3695,22 76.456,249 76.5426,22 76.6292,249 76.7157,22 76.8023,249 76.8889,22 76.9754,249 77.062,22 77.1485,22 77.2351,249 77.3217,22 77.4082,249 77.4948,22 77.5814,249 77.6679,22 77.7545,22 77.841,249 77.9276,22 78.0142,249 78.1007,22 78.1873,249 78.2739,22 78.3604,22 78.447,249 78.5336,249 78.6201,22 78.7067,22 78.7932,22 78.8798,249 78.9664,249 79.0529,22 79.1395,22 79.2261,249 79.3126,22 79.3992,249 79.4857,22 79.5723,22 79.6589,249 79.7454,22 79.832,249 79.9186,22 80.0051,249 80.0917,22 80.1783,22 80.2648,249 80.3514,249 80.4379,22 80.5245,22 80.6111,22 80.6976,249 80.7842,249 80.8708,22 80.9573,22 81.0439,22 81.1304,249 81.217,249 81.3036,22 81.3901,22 81.4767,249 81.5633,22 81.6498,249 81.7364,22 81.823,22 81.9095,249 81.9961,249 82.0826,22 82.1692,22 82.2558,22 82.3423,249 82.4289,22 82.5155,249 82.602,22 82.6886,249 82.7751,22 82.8617,249 82.9483,22 83.0348,22 83.1214,22 83.208,249 83.2945,249 83.3811,22 83.4677,22 83.5542,249 83.6408,22 83.7273,249 83.8139,22 83.9005,22 83.987,249 84.0736,22 84.1602,249 84.2467,22 84.3333,22 84.4198,249 84.5064,22 84.593,249 84.6795,22 84.7661,22 84.8527,249 84.9392,249 85.0258,22 85.1124,22 85.1989,22 85.2855,249 85.372,22 85.4586,249 85.5452,22 85.6317,22 85.7183,249 85.8049,249 85.8914,22 85.978,22 86.0645,22 86.1511,249 86.2377,22 86.3242,249 86.4108,22 86.4974,249 86.5839,22 86.6705,22 86.757,249 86.8436,22 86.9302,22 87.0167,249 87.1033,22 87.1899,249 87.2764,22 87.363,249 87.4496,22 87.5361,22 87.6227,249 87.7092,22 87.7958,22 87.8824,249 87.9689,22 88.0555,249 88.1421,22 88.2286,22 88.3152,249 88.4017,22 88.4883,249 88.5749,22 88.6614,22 88.748,249 88.8346,22 88.9211,249 89.0077,22 89.0943,22 89.1808,249 89.2674,22 89.3539,249 89.4405,22 89.5271,22 89.6136,249 89.7002,22 89.7868,22 89.8733,249 89.9599,22 90.0464,249 90.133,22 90.2196,22 90.3061,249 90.3927,22 90.4793,249 90.5658,22 90.6524,22 90.739,249 90.8255,22 90.9121,22 90.9986,249 91.0852,22 91.1718,249 91.2583,22 91.3449,22 91.4315,249 91.518,22 91.6046,22 91.6911,249 91.7777,249 91.8643,22 91.9508,22 92.0374,22 92.124,22 92.2105,249 92.2971,249 92.3837,22 92.4702,22 92.5568,249 92.6433,22 92.7299,22 92.8165,249 92.903,22 92.9896,249 93.0762,22 93.1627,22 93.2493,249 93.3358,22 93.4224,22 93.509,249 93.5955,22 93.6821,249 93.7687,22 93.8552,22 93.9418,249 94.0284,22 94.1149,22 94.2015,249 94.288,22 94.3746,22 94.4612,249 94.5477,249 94.6343,22 94.7209,22 94.8074,22 94.894,22 94.9805,249 95.0671,249 95.1537,22 95.2402,22 95.3268,22 95.4134,249 95.4999,22 95.5865,249 95.673,22 95.7596,22 95.8462,249 95.9327,22 96.0193,249 96.1059,22 96.1924,22 96.279,22 96.3656,249 96.4521,249 96.5387,22 96.6252,22 96.7118,22 96.7984,22 96.8849,249 96.9715,249 97.0581,22 97.1446,22 97.2312,249 97.3177,22 97.4043,22 97.4909,22 97.5774,249 97.664,249 97.7506,22 97.8371,22 97.9237,22 98.0103,249 98.0968,22 98.1834,22 98.2699,249 98.3565,22 98.4431,249 98.5296,22 98.6162,22 98.7028,22 98.7893,249 98.8759,249 98.9624,22 99.049,22 99.1356,22 99.2221,249 99.3087,22 99.3953,22 99.4818,249 99.5684,22 99.655,22 99.7415,249 99.8281,249 99.9146,22 100.001,22 100.088,22 100.174,22 100.261,249 100.347,22 100.434,249 100.521,22 100.607,22 100.694,249 100.78,22 100.867,22 100.953,249 101.04,22 101.127,22 101.213,249 101.3,22 101.386,249 101.473,22 101.559,22 101.646,22 101.732,249 101.819,22 101.906,249 101.992,22 102.079,22 102.165,22 102.252,249 102.338,249 102.425,22 102.512,22 102.598,22 102.685,22 102.771,249 102.858,22 102.944,249 103.031,22 103.117,22 103.204,249 103.291,22 103.377,22 103.464,249 103.55,22 103.637,22 103.723,249 103.81,22 103.897,22 103.983,249 104.07,22 104.156,22 104.243,249 104.329,22 104.416,22 104.502,249 104.589,22 104.676,249 104.762,22 104.849,22 104.935,22 105.022,249 105.108,22 105.195,22 105.282,249 105.368,22 105.455,22 105.541,249 105.628,22 105.714,22 105.801,249 105.887,22 105.974,22 106.061,249 106.147,22 106.234,249 106.32,22 106.407,22 106.493,22 106.58,22 106.667,249 106.753,249 106.84,22 106.926,22 107.013,22 107.099,22 107.186,249 107.273,249 107.359,22 107.446,22 107.532,22 107.619,22 107.705,249 107.792,22 107.878,249 107.965,22 108.052,22 108.138,249 108.225,22 108.311,22 108.398,22 108.484,249 108.571,22 108.658,249 108.744,22 108.831,22 108.917,22 109.004,249 109.09,22 109.177,249 109.263,22 109.35,22 109.437,22 109.523,249 109.61,22 109.696,22 109.783,249 109.869,22 109.956,22 110.043,249 110.129,22 110.216,22 110.302,249 110.389,22 110.475,22 110.562,22 110.648,249 110.735,22 110.822,249 110.908,22 110.995,22 111.081,22 111.168,249 111.254,22 111.341,22 111.428,249 111.514,22 111.601,22 111.687,249 111.774,22 111.86,22 111.947,249 112.033,22 112.12,22 112.207,22 112.293,249 112.38,22 112.466,249 112.553,22 112.639,22 112.726,22 112.813,249 112.899,22 112.986,22 113.072,249 113.159,22 113.245,22 113.332,249 113.418,22 113.505,22 113.592,22 113.678,249 113.765,22 113.851,22 113.938,249 114.024,22 114.111,249 114.198,22 114.284,22 114.371,22 114.457,22 114.544,249 114.63,22 114.717,249 114.803,22 114.89,22 114.977,22 115.063,249 115.15,22 115.236,22 115.323,22 115.409,249 115.496,249 115.583,22 115.669,22 115.756,22 115.842,22 115.929,22 116.015,249 116.102,249 116.189,22 116.275,22 116.362,22 116.448,22 116.535,249 116.621,22 116.708,22 116.794,249 116.881,22 116.968,249 117.054,22 117.141,22 117.227,22 117.314,22 117.4,249 117.487,22 117.574,22 117.66,249 117.747,22 117.833,249 117.92,22 118.006,22 118.093,22 118.179,22 118.266,249 118.353,22 118.439,22 118.526,249 118.612,22 118.699,22 118.785,249 118.872,22 118.959,22 119.045,22 119.132,249 119.218,22 119.305,249 119.391,22 119.478,22 119.564,22 119.651,22 119.738,249 119.824,22 119.911,22 119.997,249 120.084,22 120.17,22 120.257,249 120.344,22 120.43,22 120.517,22 120.603,249 120.69,22 120.776,249 120.863,22 120.949,22 121.036,22 121.123,22 121.209,249 121.296,22 121.382,22 121.469,249 121.555,22 121.642,22 121.729,22 121.815,249 121.902,22 121.988,249 122.075,22 122.161,22 122.248,22 122.334,22 122.421,249 122.508,22 122.594,22 122.681,249 122.767,22 122.854,22 122.94,249 123.027,22 123.114,22 123.2,22 123.287,249 123.373,22 123.46,22 123.546,249 123.633,22 123.719,22 123.806,22 123.893,22 123.979,249 124.066,249 124.152,22 124.239,22 124.325,22 124.412,22 124.499,22 124.585,249 124.672,22 124.758,249 124.845,22 124.931,22 125.018,22 125.105,249 125.191,22 125.278,22 125.364,22 125.451,249 125.537,22 125.624,22 125.71,249 125.797,22 125.884,22 125.97,22 126.057,249 126.143,22 126.23,22 126.316,249 126.403,22 126.49,22 126.576,22 126.663,249 126.749,22 126.836,22 126.922,22 127.009,249 127.095,22 127.182,22 127.269,249 127.355,22 127.442,22 127.528,22 127.615,249 127.701,22 127.788,22 127.875,249 127.961,22 128.048,22 128.134,22 128.221,249 128.307,22 128.394,22 128.48,22 128.567,249 128.654,22 128.74,22 128.827,249 128.913,22 129,22 129.086,22 129.173,249 129.26,22 129.346,22 129.433,22 129.519,249 129.606,22 129.692,22 129.779,249 129.865,22 129.952,22 130.039,22 130.125,249 130.212,22 130.298,22 130.385,22 130.471,249 130.558,22 130.645,22 130.731,249 130.818,22 130.904,22 130.991,22 131.077,249 131.164,22 131.25,22 131.337,22 131.424,249 131.51,22 131.597,22 131.683,249 131.77,22 131.856,22 131.943,22 132.03,22 132.116,249 132.203,22 132.289,249 132.376,22 132.462,22 132.549,22 132.635,22 132.722,249 132.809,22 132.895,22 132.982,22 133.068,249 133.155,22 133.241,249 133.328,22 133.415,22 133.501,22 133.588,22 133.674,22 133.761,249 133.847,22 133.934,249 134.021,22 134.107,22 134.194,22 134.28,22 134.367,249 134.453,22 134.54,22 134.626,249 134.713,22 134.8,22 134.886,22 134.973,249 135.059,22 135.146,22 135.232,22 135.319,249 135.406,22 135.492,22 135.579,249 135.665,22 135.752,22 135.838,22 135.925,22 136.011,249 136.098,22 136.185,22 136.271,249 136.358,22 136.444,22 136.531,22 136.617,249 136.704,22 136.791,22 136.877,249 136.964,22 137.05,22 137.137,22 137.223,22 137.31,249 137.396,22 137.483,22 137.57,22 137.656,249 137.743,22 137.829,22 137.916,249 138.002,22 138.089,22 138.176,22 138.262,249 138.349,22 138.435,22 138.522,22 138.608,249 138.695,22 138.781,22 138.868,22 138.955,249 139.041,22 139.128,22 139.214,22 139.301,249 139.387,22 139.474,22 139.561,249 139.647,22 139.734,22 139.82,22 139.907,22 139.993,249 140.08,22 140.166,22 140.253,249 140.34,22 140.426,22 140.513,22 140.599,22 140.686,249 140.772,22 140.859,249 140.946,22 141.032,22 141.119,22 141.205,22 141.292,22 141.378,249 141.465,22 141.551,249 141.638,22 141.725,22 141.811,22 141.898,22 141.984,249 142.071,22 142.157,22 142.244,22 142.331,249 142.417,22 142.504,22 142.59,22 142.677,249 142.763,22 142.85,22 142.937,249 143.023,22 143.11,22 143.196,22 143.283,22 143.369,249 143.456,22 143.542,22 143.629,249 143.716,22 143.802,22 143.889,22 143.975,249 144.062,22 144.148,22 144.235,22 144.322,22 144.408,249 144.495,22 144.581,22 144.668,249 144.754,22 144.841,22 144.927,22 145.014,249 145.101,22 145.187,22 145.274,22 145.36,249 145.447,22 145.533,22 145.62,22 145.707,249 145.793,22 145.88,22 145.966,22 146.053,249 146.139,22 146.226,22 146.312,22 146.399,249 146.486,22 146.572,22 146.659,22 146.745,249 146.832,22 146.918,22 147.005,22 147.092,249 147.178,22 147.265,22 147.351,22 147.438,249 147.524,22 147.611,22 147.697,249 147.784,22 147.871,22 147.957,22 148.044,22 148.13,249 148.217,22 148.303,22 148.39,22 148.477,249 148.563,22 148.65,22 148.736,22 148.823,249 148.909,22 148.996,22 149.082,249 149.169,22 149.256,22 149.342,22 149.429,22 149.515,249 149.602,22 149.688,22 149.775,22 149.862,249 149.948,22 150.035,22 150.121,249 150.208,22 150.294,22 150.381,22 150.467,22 150.554,249 150.641,22 150.727,22 150.814,22 150.9,249 150.987,22 151.073,22 151.16,249 151.247,22 151.333,22 151.42,22 151.506,22 151.593,249 151.679,22 151.766,22 151.853,22 151.939,249 152.026,22 152.112,22 152.199,249 152.285,22 152.372,22 152.458,22 152.545,22 152.632,249 152.718,22 152.805,22 152.891,249 152.978,22 153.064,22 153.151,22 153.238,22 153.324,249 153.411,22 153.497,22 153.584,22 153.67,249 153.757,22 153.843,22 153.93,249 154.017,22 154.103,22 154.19,22 154.276,22 154.363,249 154.449,22 154.536,22 154.623,249 154.709,22 154.796,22 154.882,22 154.969,22 155.055,249 155.142,22 155.228,22 155.315,22 155.402,249 155.488,22 155.575,22 155.661,249 155.748,22 155.834,22 155.921,22 156.008,22 156.094,249 156.181,22 156.267,22 156.354,249 156.44,22 156.527,22 156.613,22 156.7,22 156.787,249 156.873,22 156.96,22 157.046,22 157.133,249 157.219,22 157.306,22 157.393,249 157.479,22 157.566,22 157.652,22 157.739,22 157.825,249 157.912,22 157.998,22 158.085,249 158.172,22 158.258,22 158.345,22 158.431,22 158.518,249 158.604,22 158.691,22 158.778,249 158.864,22 158.951,22 159.037,22 159.124,22 159.21,249 159.297,22 159.383,22 159.47,22 159.557,249 159.643,22 159.73,22 159.816,249 159.903,22 159.989,22 160.076,22 160.163,22 160.249,249 160.336,22 160.422,22 160.509,249 160.595,22 160.682,22 160.769,22 160.855,22 160.942,249 161.028,22 161.115,22 161.201,249 161.288,22 161.374,22 161.461,22 161.548,22 161.634,249 161.721,22 161.807,22 161.894,249 161.98,22 162.067,22 162.154,22 162.24,249 162.327,22 162.413,22 162.5,22 162.586,22 162.673,249 162.759,22 162.846,22 162.933,249 163.019,22 163.106,22 163.192,22 163.279,249 163.365,22 163.452,22 163.539,22 163.625,22 163.712,249 163.798,22 163.885,249 163.971,22 164.058,22 164.144,22 164.231,22 164.318,22 164.404,249 164.491,22 164.577,22 164.664,249 164.75,22 164.837,22 164.924,22 165.01,249 165.097,22 165.183,22 165.27,22 165.356,249 165.443,22 165.529,22 165.616,22 165.703,249 165.789,22 165.876,22 165.962,22 166.049,249 166.135,22 166.222,22 166.309,22 166.395,249 166.482,22 166.568,22 166.655,249 166.741,22 166.828,22 166.914,22 167.001,22 167.088,249 167.174,22 167.261,22 167.347,22 167.434,249 167.52,22 167.607,22 167.694,249 167.78,22 167.867,22 167.953,22 168.04,249 168.126,22 168.213,22 168.299,22 168.386,22 168.473,249 168.559,22 168.646,22 168.732,249 168.819,22 168.905,22 168.992,22 169.079,249 169.165,22 169.252,22 169.338,22 169.425,249 169.511,22 169.598,22 169.685,22 169.771,249 169.858,22 169.944,22 170.031,249 170.117,22 170.204,22 170.29,22 170.377,22 170.464,249 170.55,22 170.637,22 170.723,249 170.81,22 170.896,22 170.983,22 171.07,22 171.156,249 171.243,22 171.329,22 171.416,249 171.502,22 171.589,22 171.675,22 171.762,249 171.849,22 171.935,22 172.022,22 172.108,249 172.195,22 172.281,22 172.368,249 172.455,22 172.541,22 172.628,22 172.714,22 172.801,249 172.887,22 172.974,22 173.06,22 173.147,249 173.234,22 173.32,249 173.407,22 173.493,22 173.58,22 173.666,22 173.753,22 173.84,249 173.926,22 174.013,249 174.099,22 174.186,22 174.272,22 174.359,22 174.445,249 174.532,22 174.619,22 174.705,249 174.792,22 174.878,22 174.965,22 175.051,22 175.138,249 175.225,22 175.311,249 175.398,22 175.484,22 175.571,22 175.657,22 175.744,22 175.83,249 175.917,249 176.004,22 176.09,22 176.177,22 176.263,22 176.35,22 176.436,249 176.523,22 176.61,22 176.696,249 176.783,22 176.869,22 176.956,22 177.042,249 177.129,22 177.215,22 177.302,249 177.389,22 177.475,22 177.562,22 177.648,22 177.735,249 177.821,22 177.908,249 177.995,22 178.081,22 178.168,22 178.254,22 178.341,22 178.427,249 178.514,249 178.601,22 178.687,22 178.774,22 178.86,22 178.947,22 179.033,249 179.12,22 179.206,22 179.293,249 179.38,22 179.466,22 179.553,249 179.639,22 179.726,22 179.812,22 179.899,249 179.986,22 180.072,22 180.159,22 180.245,249 180.332,22 180.418,22 180.505,22 180.591,249 180.678,22 180.765,22 180.851,249 180.938,22 181.024,22 181.111,22 181.197,249 181.284,22 181.371,22 181.457,249 181.544,22 181.63,22 181.717,22 181.803,249 181.89,22 181.976,22 182.063,22 182.15,249 182.236,22 182.323,22 182.409,249 182.496,22 182.582,22 182.669,22 182.756,22 182.842,249 182.929,249 183.015,22 183.102,22 183.188,22 183.275,22 183.361,22 183.448,249 183.535,22 183.621,22 183.708,249 183.794,22 183.881,22 183.967,249 184.054,22 184.141,22 184.227,22 184.314,249 184.4,22 184.487,22 184.573,22 184.66,249 184.746,22 184.833,22 184.92,249 185.006,22 185.093,22 185.179,249 185.266,22 185.352,22 185.439,22 185.526,22 185.612,249 185.699,22 185.785,249 185.872,22 185.958,22 186.045,22 186.132,22 186.218,249 186.305,22 186.391,249 186.478,22 186.564,22 186.651,22 186.737,22 186.824,249 186.911,22 186.997,249 187.084,22 187.17,22 187.257,22 187.343,22 187.43,249 187.517,22 187.603,249 187.69,22 187.776,22 187.863,22 187.949,22 188.036,249 188.122,22 188.209,249 188.296,22 188.382,22 188.469,22 188.555,249 188.642,22 188.728,22 188.815,22 188.902,249 188.988,22 189.075,22 189.161,249 189.248,22 189.334,22 189.421,22 189.507,249 189.594,22 189.681,249 189.767,22 189.854,22 189.94,22 190.027,22 190.113,249 190.2,22 190.287,249 190.373,22 190.46,22 190.546,22 190.633,22 190.719,249 190.806,22 190.892,249 190.979,22 191.066,22 191.152,22 191.239,249 191.325,22 191.412,22 191.498,22 191.585,249 191.672,22 191.758,249 191.845,22 191.931,22 192.018,22 192.104,249 192.191,22 192.277,22 192.364,22 192.451,249 192.537,22 192.624,249 192.71,22 192.797,22 192.883,22 192.97,22 193.057,249 193.143,22 193.23,249 193.316,22 193.403,22 193.489,22 193.576,249 193.662,22 193.749,22 193.836,249 193.922,22 194.009,22 194.095,249 194.182,22 194.268,22 194.355,22 194.442,249 194.528,22 194.615,22 194.701,249 194.788,22 194.874,22 194.961,249 195.048,22 195.134,22 195.221,22 195.307,249 195.394,22 195.48,22 195.567,249 195.653,22 195.74,22 195.827,249 195.913,22 196,22 196.086,249 196.173,22 196.259,22 196.346,22 196.433,249 196.519,22 196.606,249 196.692,22 196.779,22 196.865,22 196.952,22 197.038,249 197.125,22 197.212,249 197.298,22 197.385,22 197.471,249 197.558,22 197.644,22 197.731,22 197.818,249 197.904,22 197.991,22 198.077,249 198.164,22 198.25,22 198.337,249 198.423,22 198.51,22 198.597,249 198.683,22 198.77,22 198.856,22 198.943,249 199.029,22 199.116,249 199.203,22 199.289,22 199.376,22 199.462,249 199.549,22 199.635,22 199.722,249 199.808,22 199.895,22 199.982,249 200.068,22 200.155,22 200.241,249 200.328,22 200.414,22 200.501,249 200.588,22 200.674,22 200.761,22 200.847,249 200.934,22 201.02,249 201.107,22 201.193,22 201.28,22 201.367,249 201.453,22 201.54,249 201.626,22 201.713,22 201.799,22 201.886,249 201.973,22 202.059,22 202.146,249 202.232,22 202.319,22 202.405,249 202.492,22 202.578,22 202.665,249 202.752,22 202.838,22 202.925,249 203.011,22 203.098,22 203.184,249 203.271,22 203.358,22 203.444,22 203.531,249 203.617,249 203.704,22 203.79,22 203.877,22 203.964,22 204.05,249 204.137,22 204.223,249 204.31,22 204.396,22 204.483,249 204.569,22 204.656,22 204.743,22 204.829,249 204.916,22 205.002,249 205.089,22 205.175,22 205.262,249 205.349,22 205.435,22 205.522,249 205.608,22 205.695,22 205.781,22 205.868,249 205.954,249 206.041,22 206.128,22 206.214,22 206.301,22 206.387,249 206.474,22 206.56,249 206.647,22 206.734,22 206.82,249 206.907,22 206.993,22 207.08,249 207.166,22 207.253,22 207.339,249 207.426,22 207.513,22 207.599,249 207.686,22 207.772,249 207.859,22 207.945,22 208.032,22 208.119,249 208.205,22 208.292,22 208.378,249 208.465,22 208.551,249 208.638,22 208.724,22 208.811,249 208.898,22 208.984,22 209.071,22 209.157,249 209.244,249 209.33,22 209.417,22 209.504,22 209.59,22 209.677,249 209.763,249 209.85,22 209.936,22 210.023,22 210.109,249 210.196,22 210.283,22 210.369,249 210.456,22 210.542,249 210.629,22 210.715,22 210.802,249 210.889,22 210.975,22 211.062,22 211.148,249 211.235,249 211.321,22 211.408,22 211.494,22 211.581,249 211.668,22 211.754,249 211.841,22 211.927,22 212.014,22 212.1,249 212.187,22 212.274,249 212.36,22 212.447,22 212.533,249 212.62,22 212.706,249 212.793,22 212.88,22 212.966,22 213.053,249 213.139,22 213.226,249 213.312,22 213.399,22 213.485,249 213.572,22 213.659,22 213.745,249 213.832,22 213.918,249 214.005,22 214.091,22 214.178,22 214.265,249 214.351,249 214.438,22 214.524,22 214.611,22 214.697,249 214.784,22 214.87,22 214.957,249 215.044,249 215.13,22 215.217,22 215.303,22 215.39,22 215.476,249 215.563,249 215.65,22 215.736,22 215.823,249 215.909,22 215.996,22 216.082,249 216.169,22 216.255,22 216.342,249 216.429,22 216.515,249 216.602,22 216.688,22 216.775,249 216.861,22 216.948,22 217.035,249 217.121,22 217.208,249 217.294,22 217.381,22 217.467,249 217.554,22 217.64,22 217.727,249 217.814,22 217.9,249 217.987,22 218.073,22 218.16,249 218.246,22 218.333,249 218.42,22 218.506,22 218.593,22 218.679,249 218.766,249 218.852,22 218.939,22 219.025,22 219.112,249 219.199,22 219.285,249 219.372,22 219.458,249 219.545,22 219.631,22 219.718,22 219.805,249 219.891,249 219.978,22 220.064,22 220.151,22 220.237,249 220.324,22 220.41,249 220.497,22 220.584,22 220.67,249 220.757,249 220.843,22 220.93,22 221.016,22 221.103,22 221.19,249 221.276,249 221.363,22 221.449,249 221.536,22 221.622,22 221.709,22 221.796,249 221.882,22 221.969,249 222.055,22 222.142,249 222.228,22 222.315,22 222.401,249 222.488,22 222.575,22 222.661,249 222.748,22 222.834,249 222.921,22 223.007,249 223.094,22 223.181,22 223.267,249 223.354,22 223.44,22 223.527,249 223.613,22 223.7,249 223.786,22 223.873,22 223.96,249 224.046,249 224.133,22 224.219,22 224.306,22 224.392,249 224.479,22 224.566,249 224.652,22 224.739,22 224.825,249 224.912,249 224.998,22 225.085,22 225.171,22 225.258,249 225.345,22 225.431,249 225.518,22 225.604,249 225.691,22 225.777,22 225.864,249 225.951,22 226.037,249 226.124,22 226.21,22 226.297,249 226.383,22 226.47,249 226.556,22 226.643,22 226.73,249 226.816,22 226.903,249 226.989,22 227.076,249 227.162,22 227.249,22 227.336,249 227.422,22 227.509,249 227.595,22 227.682,22 227.768,249 227.855,22 227.941,249 228.028,22 228.115,249 228.201,22 228.288,22 228.374,249 228.461,22 228.547,249 228.634,22 228.721,22 228.807,249 228.894,22 228.98,249 229.067,22 229.153,249 229.24,22 229.326,22 229.413,249 229.5,22 229.586,249 229.673,22 229.759,249 229.846,22 229.932,22 230.019,249 230.106,22 230.192,249 230.279,22 230.365,22 230.452,249 230.538,249 230.625,22 230.712,22 230.798,22 230.885,249 230.971,249 231.058,22 231.144,22 231.231,249 231.317,22 231.404,249 231.491,22 231.577,249 231.664,22 231.75,22 231.837,249 231.923,22 232.01,249 232.097,22 232.183,22 232.27,249 232.356,249 232.443,22 232.529,22 232.616,249 232.702,22 232.789,22 232.876,249 232.962,249 233.049,22 233.135,22 233.222,249 233.308,22 233.395,249 233.482,22 233.568,22 233.655,249 233.741,249 233.828,22 233.914,22 234.001,249 234.087,22 234.174,249 234.261,22 234.347,22 234.434,249 234.52,249 234.607,22 234.693,22 234.78,22 234.867,249 234.953,249 235.04,22 235.126,249 235.213,22 235.299,22 235.386,249 235.472,22 235.559,249 235.646,22 235.732,249 235.819,22 235.905,249 235.992,22 236.078,22 236.165,249 236.252,22 236.338,249 236.425,22 236.511,249 236.598,22 236.684,249 236.771,22 236.857,22 236.944,249 237.031,249 237.117,22 237.204,22 237.29,249 237.377,22 237.463,249 237.55,22 237.637,249 237.723,22 237.81,22 237.896,249 237.983,249 238.069,22 238.156,22 238.242,249 238.329,22 238.416,249 238.502,22 238.589,249 238.675,22 238.762,22 238.848,249 238.935,249 239.022,22 239.108,22 239.195,249 239.281,22 239.368,249 239.454,249 239.541,22 239.628,22 239.714,22 239.801,249 239.887,249 239.974,22 240.06,249 240.147,22 240.233,22 240.32,249 240.407,22 240.493,249 240.58,249 240.666,22 240.753,22 240.839,22 240.926,249 241.013,249 241.099,249 241.186,22 241.272,22 241.359,22 241.445,249 241.532,22 241.618,249 241.705,249 241.792,22 241.878,22 241.965,249 242.051,249 242.138,22 242.224,22 242.311,22 242.398,249 242.484,249 242.571,249 242.657,22 242.744,22 242.83,22 242.917,249 243.003,249 243.09,22 243.177,249 243.263,22 243.35,22 243.436,249 243.523,249 243.609,22 243.696,22 243.783,249 243.869,249 243.956,22 244.042,22 244.129,249 244.215,22 244.302,249 244.388,22 244.475,249 244.562,22 244.648,249 244.735,249 244.821,22 244.908,22 244.994,22 245.081,249 245.168,249 245.254,22 245.341,249 245.427,22 245.514,249 245.6,22 245.687,249 245.773,22 245.86,249 245.947,22 246.033,22 246.12,249 246.206,249 246.293,22 246.379,249 246.466,22 246.553,22 246.639,249 246.726,249 246.812,22 246.899,22 246.985,249 247.072,249 247.158,22 247.245,249 247.332,22 247.418,22 247.505,249 247.591,249 247.678,22 247.764,22 247.851,249 247.938,249 248.024,22 248.111,22 248.197,249 248.284,249 248.37,22 248.457,22 248.544,249 248.63,249 248.717,22 248.803,249 248.89,22 248.976,22 249.063,249 249.149,249 249.236,22 249.323,22 249.409,249 249.496,249 249.582,22 249.669,249 249.755,22 249.842,22 249.929,249 250.015,249 250.102,22 250.188,249 250.275,22 250.361,249 250.448,22 250.534,249 250.621,22 250.708,249 250.794,22 250.881,22 250.967,249 251.054,249 251.14,249 251.227,22 251.314,22 251.4,249 251.487,22 251.573,249 251.66,22 251.746,249 251.833,22 251.919,249 252.006,249 252.093,22 252.179,22 252.266,249 252.352,249 252.439,22 252.525,22 252.612,249 252.699,249 252.785,22 252.872,22 252.958,249 253.045,249 253.131,22 253.218,249 253.304,22 253.391,249 253.478,22 253.564,249 253.651,22 253.737,249 253.824,249 253.91,22 253.997,22 254.084,249 254.17,22 254.257,249 254.343,249 254.43,22 254.516,22 254.603,249 254.689,249 254.776,22 254.863,249 254.949,22 255.036,249 255.122,22 255.209,249 255.295,22 255.382,249 255.469,249 255.555,22 255.642,22 255.728,249 255.815,22 255.901,249 255.988,249 256.074,22 256.161,249 256.248,22 256.334,249 256.421,22 256.507,249 256.594,22 256.68,249 256.767,22 256.854,249 256.94,249 257.027,22 257.113,249 257.2,22 257.286,22 257.373,249 257.46,249 257.546,22 257.633,249 257.719,249 257.806,22 257.892,22 257.979,249 258.065,22 258.152,249 258.239,249 258.325,22 258.412,249 258.498,22 258.585,249 258.671,22 258.758,249 258.845,22 258.931,249 259.018,249 259.104,22 259.191,22 259.277,249 259.364,249 259.45,22 259.537,249 259.624,249 259.71,22 259.797,22 259.883,249 259.97,22 260.056,249 260.143,249 260.23,22 260.316,249 260.403,22 260.489,249 260.576,249 260.662,22 260.749,22 260.835,249 260.922,249 261.009,22 261.095,22 261.182,249 261.268,249 261.355,249 261.441,22 261.528,22 261.615,249 261.701,249 261.788,22 261.874,249 261.961,22 262.047,249 262.134,22 262.22,249 262.307,249 262.394,22 262.48,249 262.567,22 262.653,249 262.74,22 262.826,249 262.913,22 263,249 263.086,249 263.173,22 263.259,249 263.346,22 263.432,249 263.519,22 263.605,249 263.692,249 263.779,22 263.865,22 263.952,249 264.038,249 264.125,249 264.211,22 264.298,22 264.385,249 264.471,249 264.558,22 264.644,249 264.731,22 264.817,249 264.904,249 264.991,22 265.077,22 265.164,249 265.25,249 265.337,249 265.423,22 265.51,22 265.596,249 265.683,249 265.77,22 265.856,249 265.943,22 266.029,249 266.116,22 266.202,249 266.289,249 266.376,22 266.462,249 266.549,22 266.635,249 266.722,249 266.808,22 266.895,249 266.981,22 267.068,249 267.155,22 267.241,249 267.328,249 267.414,22 267.501,249 267.587,22 267.674,249 267.761,249 267.847,22 267.934,22 268.02,249 268.107,249 268.193,249 268.28,22 268.366,22 268.453,249 268.54,249 268.626,249 268.713,22 268.799,22 268.886,249 268.972,249 269.059,22 269.146,249 269.232,22 269.319,249 269.405,249 269.492,22 269.578,249 269.665,22 269.751,249 269.838,249 269.925,22 270.011,249 270.098,22 270.184,249 270.271,249 270.357,22 270.444,249 270.531,22 270.617,249 270.704,22 270.79,249 270.877,249 270.963,22 271.05,249 271.136,249 271.223,22 271.31,22 271.396,249 271.483,249 271.569,249 271.656,22 271.742,22 271.829,249 271.916,249 272.002,249 272.089,22 272.175,249 272.262,22 272.348,249 272.435,22 272.521,249 272.608,249 272.695,22 272.781,249 272.868,22 272.954,249 273.041,249 273.127,22 273.214,249 273.301,22 273.387,249 273.474,249 273.56,22 273.647,249 273.733,249 273.82,22 273.906,249 273.993,22 274.08,249 274.166,22 274.253,249 274.339,249 274.426,22 274.512,249 274.599,249 274.686,22 274.772,249 274.859,22 274.945,249 275.032,249 275.118,22 275.205,249 275.292,22 275.378,249 275.465,249 275.551,22 275.638,249 275.724,22 275.811,249 275.897,249 275.984,249 276.071,22 276.157,22 276.244,249 276.33,249 276.417,22 276.503,249 276.59,249 276.677,22 276.763,249 276.85,249 276.936,22 277.023,22 277.109,249 277.196,249 277.282,249 277.369,22 277.456,249 277.542,249 277.629,22 277.715,22 277.802,249 277.888,249 277.975,249 278.062,22 278.148,249 278.235,249 278.321,22 278.408,22 278.494,249 278.581,249 278.667,249 278.754,22 278.841,249 278.927,22 279.014,249 279.1,249 279.187,22 279.273,249 279.36,22 279.447,249 279.533,249 279.62,249 279.706,22 279.793,22 279.879,249 279.966,249 280.052,249 280.139,22 280.226,249 280.312,249 280.399,22 280.485,22 280.572,249 280.658,249 280.745,249 280.832,22 280.918,249 281.005,249 281.091,22 281.178,22 281.264,249 281.351,249 281.438,249 281.524,249 281.611,22 281.697,22 281.784,249 281.87,249 281.957,249 282.043,22 282.13,22 282.217,249 282.303,249 282.39,249 282.476,249 282.563,22 282.649,22 282.736,249 282.823,249 282.909,249 282.996,22 283.082,22 283.169,249 283.255,249 283.342,249 283.428,249 283.515,22 283.602,22 283.688,249 283.775,249 283.861,249 283.948,22 284.034,249 284.121,22 284.208,249 284.294,249 284.381,249 284.467,22 284.554,22 284.64,249 284.727,249 284.813,249 284.9,22 284.987,249 285.073,249 285.16,22 285.246,249 285.333,22 285.419,249 285.506,249 285.593,249 285.679,22 285.766,22 285.852,249 285.939,249 286.025,249 286.112,249 286.198,22 286.285,22 286.372,249 286.458,249 286.545,249 286.631,22 286.718,249 286.804,249 286.891,22 286.978,249 287.064,22 287.151,249 287.237,249 287.324,249 287.41,22 287.497,22 287.583,249 287.67,249 287.757,249 287.843,249 287.93,22 288.016,249 288.103,22 288.189,249 288.276,249 288.363,22 288.449,249 288.536,249 288.622,22 288.709,249 288.795,22 288.882,249 288.968,249 289.055,249 289.142,249 289.228,22 289.315,22 289.401,249 289.488,249 289.574,249 289.661,22 289.748,249 289.834,22 289.921,249 290.007,249 290.094,249 290.18,22 290.267,249 290.353,22 290.44,249 290.527,249 290.613,249 290.7,22 290.786,249 290.873,249 290.959,22 291.046,249 291.133,22 291.219,249 291.306,249 291.392,249 291.479,22 291.565,249 291.652,22 291.738,249 291.825,249 291.912,249 291.998,22 292.085,249 292.171,22 292.258,249 292.344,249 292.431,249 292.518,22 292.604,249 292.691,22 292.777,249 292.864,249 292.95,249 293.037,22 293.124,249 293.21,249 293.297,22 293.383,249 293.47,249 293.556,22 293.643,249 293.729,249 293.816,22 293.903,249 293.989,22 294.076,249 294.162,249 294.249,249 294.335,249 294.422,22 294.509,249 294.595,22 294.682,249 294.768,249 294.855,22 294.941,249 295.028,249 295.114,249 295.201,22 295.288,22 295.374,249 295.461,249 295.547,249 295.634,249 295.72,249 295.807,22 295.894,22 295.98,249 296.067,249 296.153,249 296.24,22 296.326,249 296.413,249 296.499,22 296.586,249 296.673,249 296.759,22 296.846,249 296.932,249 297.019,249 297.105,22 297.192,249 297.279,22 297.365,249 297.452,249 297.538,249 297.625,22 297.711,249 297.798,249 297.884,22 297.971,249 298.058,22 298.144,249 298.231,249 298.317,249 298.404,249 298.49,22 298.577,249 298.664,22 298.75,249 298.837,249 298.923,249 299.01,22 299.096,249 299.183,249 299.27,22 299.356,249 299.443,249 299.529,22 299.616,249 299.702,249 299.789,249 299.875,22 299.962,249 300.049,22 300.135,249 300.222,249 300.308,249 300.395,22 300.481,249 300.568,249 300.655,22 300.741,249 300.828,249 300.914,249 301.001,22 301.087,249 301.174,22 301.26,249 301.347,249 301.434,249 301.52,249 301.607,22 301.693,22 301.78,249 301.866,249 301.953,249 302.04,249 302.126,249 302.213,22 302.299,22 302.386,249 302.472,249 302.559,249 302.645,249 302.732,22 302.819,249 302.905,22 302.992,249 303.078,249 303.165,249 303.251,22 303.338,249 303.424,249 303.511,22 303.598,249 303.684,249 303.771,249 303.857,22 303.944,249 304.03,249 304.117,22 304.204,249 304.29,249 304.377,22 304.463,249 304.55,249 304.636,249 304.723,22 304.81,249 304.896,249 304.983,22 305.069,249 305.156,249 305.242,249 305.329,22 305.415,249 305.502,22 305.589,249 305.675,249 305.762,249 305.848,249 305.935,22 306.021,249 306.108,249 306.195,22 306.281,249 306.368,249 306.454,22 306.541,249 306.627,249 306.714,249 306.8,22 306.887,249 306.974,22 307.06,249 307.147,249 307.233,249 307.32,249 307.406,22 307.493,249 307.58,249 307.666,22 307.753,249 307.839,249 307.926,249 308.012,22 308.099,249 308.185,22 308.272,249 308.359,249 308.445,249 308.532,249 308.618,22 308.705,249 308.791,249 308.878,22 308.965,249 309.051,249 309.138,22 309.224,249 309.311,249 309.397,249 309.484,22 309.57,249 309.657,249 309.744,249 309.83,22 309.917,249 310.003,22 310.09,249 310.176,249 310.263,249 310.35,249 310.436,22 310.523,249 310.609,249 310.696,22 310.782,249 310.869,249 310.956,249 311.042,22 311.129,249 311.215,249 311.302,22 311.388,249 311.475,249 311.561,249 311.648,22 311.735,249 311.821,249 311.908,22 311.994,249 312.081,249 312.167,249 312.254,22 312.341,249 312.427,249 312.514,22 312.6,249 312.687,249 312.773,249 312.86,22 312.946,249 313.033,249 313.12,249 313.206,22 313.293,249 313.379,249 313.466,22 313.552,249 313.639,249 313.726,249 313.812,22 313.899,249 313.985,249 314.072,249 314.158,22 314.245,249 314.331,22 314.418,249 314.505,249 314.591,249 314.678,249 314.764,249 314.851,22 314.937,249 315.024,22 315.111,249 315.197,249 315.284,249 315.37,22 315.457,249 315.543,249 315.63,249 315.716,22 315.803,249 315.89,249 315.976,22 316.063,249 316.149,249 316.236,249 316.322,249 316.409,22 316.496,249 316.582,22 316.669,249 316.755,249 316.842,249 316.928,249 317.015,22 317.101,249 317.188,249 317.275,22 317.361,249 317.448,249 317.534,249 317.621,22 317.707,249 317.794,249 317.881,249 317.967,22 318.054,249 318.14,249 318.227,22 318.313,249 318.4,249 318.486,249 318.573,22 318.66,249 318.746,249 318.833,249 318.919,22 319.006,249 319.092,249 319.179,22 319.266,249 319.352,249 319.439,249 319.525,249 319.612,22 319.698,249 319.785,249 319.871,22 319.958,249 320.045,249 320.131,249 320.218,22 320.304,249 320.391,249 320.477,22 320.564,249 320.651,249 320.737,249 320.824,249 320.91,22 320.997,249 321.083,249 321.17,22 321.257,249 321.343,249 321.43,249 321.516,22 321.603,249 321.689,249 321.776,249 321.862,22 321.949,249 322.036,249 322.122,22 322.209,249 322.295,249 322.382,249 322.468,249 322.555,22 322.642,249 322.728,249 322.815,22 322.901,249 322.988,249 323.074,249 323.161,22 323.247,249 323.334,249 323.421,249 323.507,22 323.594,249 323.68,249 323.767,249 323.853,22 323.94,249 324.027,249 324.113,22 324.2,249 324.286,249 324.373,249 324.459,249 324.546,22 324.632,249 324.719,249 324.806,22 324.892,249 324.979,249 325.065,249 325.152,22 325.238,249 325.325,249 325.412,249 325.498,22 325.585,249 325.671,249 325.758,249 325.844,22 325.931,249 326.017,249 326.104,249 326.191,22 326.277,249 326.364,249 326.45,22 326.537,249 326.623,249 326.71,249 326.797,249 326.883,22 326.97,249 327.056,249 327.143,22 327.229,249 327.316,249 327.402,249 327.489,249 327.576,22 327.662,249 327.749,249 327.835,22 327.922,249 328.008,249 328.095,249 328.182,22 328.268,249 328.355,249 328.441,249 328.528,22 328.614,249 328.701,249 328.788,249 328.874,22 328.961,249 329.047,249 329.134,249 329.22,22 329.307,249 329.393,249 329.48,22 329.567,249 329.653,249 329.74,249 329.826,249 329.913,22 329.999,249 330.086,249 330.173,249 330.259,22 330.346,249 330.432,249 330.519,22 330.605,249 330.692,249 330.778,249 330.865,249 330.952,22 331.038,249 331.125,249 331.211,249 331.298,22 331.384,249 331.471,22 331.558,249 331.644,249 331.731,249 331.817,249 331.904,249 331.99,249 332.077,22 332.163,22 332.25,249 332.337,249 332.423,249 332.51,249 332.596,249 332.683,22 332.769,249 332.856,249 332.943,22 333.029,249 333.116,249 333.202,249 333.289,22 333.375,249 333.462,249 333.548,249 333.635,249 333.722,22 333.808,249 333.895,22 333.981,249 334.068,249 334.154,249 334.241,249 334.328,249 334.414,22 334.501,249 334.587,249 334.674,22 334.76,249 334.847,249 334.933,249 335.02,22 335.107,249 335.193,249 335.28,249 335.366,22 335.453,249 335.539,249 335.626,249 335.713,22 335.799,249 335.886,249 335.972,249 336.059,22 336.145,249 336.232,249 336.319,249 336.405,22 336.492,249 336.578,249 336.665,249 336.751,22 336.838,249 336.924,249 337.011,249 337.098,22 337.184,249 337.271,249 337.357,249 337.444,22 337.53,249 337.617,249 337.704,249 337.79,22 337.877,249 337.963,249 338.05,249 338.136,22 338.223,249 338.309,249 338.396,249 338.483,22 338.569,249 338.656,249 338.742,249 338.829,22 338.915,249 339.002,249 339.089,249 339.175,22 339.262,249 339.348,249 339.435,249 339.521,22 339.608,249 339.694,249 339.781,249 339.868,22 339.954,249 340.041,249 340.127,249 340.214,22 340.3,249 340.387,249 340.474,249 340.56,22 340.647,249 340.733,249 340.82,22 340.906,249 340.993,249 341.079,249 341.166,249 341.253,249 341.339,22 341.426,249 341.512,22 341.599,249 341.685,249 341.772,249 341.859,249 341.945,249 342.032,22 342.118,249 342.205,22 342.291,249 342.378,249 342.464,249 342.551,249 342.638,249 342.724,22 342.811,249 342.897,22 342.984,249 343.07,249 343.157,249 343.244,249 343.33,249 343.417,22 343.503,249 343.59,22 343.676,249 343.763,249 343.849,249 343.936,249 344.023,22 344.109,249 344.196,249 344.282,249 344.369,22 344.455,249 344.542,249 344.629,249 344.715,22 344.802,249 344.888,249 344.975,249 345.061,22 345.148,249 345.234,249 345.321,249 345.408,22 345.494,249 345.581,249 345.667,249 345.754,22 345.84,249 345.927,249 346.014,249 346.1,22 346.187,249 346.273,249 346.36,22 346.446,249 346.533,249 346.62,249 346.706,249 346.793,249 346.879,22 346.966,249 347.052,22 347.139,249 347.225,249 347.312,249 347.399,249 347.485,22 347.572,249 347.658,249 347.745,249 347.831,22 347.918,249 348.005,249 348.091,249 348.178,22 348.264,249 348.351,249 348.437,22 348.524,249 348.61,249 348.697,249 348.784,249 348.87,22 348.957,249 349.043,249 349.13,249 349.216,22 349.303,249 349.39,249 349.476,22 349.563,249 349.649,249 349.736,249 349.822,249 349.909,22 349.995,249 350.082,249 350.169,22 350.255,249 350.342,249 350.428,249 350.515,249 350.601,22 350.688,249 350.775,249 350.861,22 350.948,249 351.034,249 351.121,249 351.207,249 351.294,22 351.38,249 351.467,249 351.554,22 351.64,249 351.727,249 351.813,249 351.9,22 351.986,249 352.073,249 352.16,249 352.246,249 352.333,22 352.419,249 352.506,22 352.592,249 352.679,249 352.766,249 352.852,249 352.939,249 353.025,22 353.112,249 353.198,22 353.285,249 353.371,249 353.458,249 353.545,249 353.631,249 353.718,22 353.804,249 353.891,22 353.977,249 354.064,249 354.151,249 354.237,249 354.324,22 354.41,249 354.497,249 354.583,22 354.67,249 354.756,249 354.843,249 354.93,249 355.016,22 355.103,249 355.189,249 355.276,22 355.362,249 355.449,249 355.536,249 355.622,249 355.709,22 355.795,249 355.882,22 355.968,249 356.055,249 356.141,249 356.228,249 356.315,249 356.401,22 356.488,249 356.574,22 356.661,249 356.747,249 356.834,249 356.921,249 357.007,22 357.094,249 357.18,249 357.267,249 357.353,22 357.44,249 357.526,249 357.613,22 357.7,249 357.786,249 357.873,249 357.959,249 358.046,22 358.132,249 358.219,22 358.306,249 358.392,249 358.479,249 358.565,249 358.652,249 358.738,22 358.825,249 358.911,22 358.998,249 359.085,249 359.171,249 359.258,249 359.344,22 359.431,249 359.517,249 359.604,22 359.691,249 359.777,249 359.864,249 359.95,249 360.037,22 360.123,249 360.21,22 360.296,249 360.383,249 360.47,249 360.556,249 360.643,249 360.729,22 360.816,249 360.902,22 360.989,249 361.076,249 361.162,249 361.249,249 361.335,22 361.422,249 361.508,22 361.595,249 361.681,249 361.768,249 361.855,249 361.941,249 362.028,22 362.114,249 362.201,22 362.287,249 362.374,249 362.461,249 362.547,249 362.634,22 362.72,249 362.807,249 362.893,22 362.98,249 363.066,249 363.153,249 363.24,22 363.326,249 363.413,249 363.499,249 363.586,22 363.672,249 363.759,249 363.846,22 363.932,249 364.019,249 364.105,249 364.192,22 364.278,249 364.365,249 364.452,249 364.538,22 364.625,249 364.711,249 364.798,249 364.884,22 364.971,249 365.057,249 365.144,22 365.231,249 365.317,249 365.404,249 365.49,22 365.577,249 365.663,249 365.75,249 365.837,22 365.923,249 366.01,249 366.096,22 366.183,249 366.269,249 366.356,249 366.442,22 366.529,249 366.616,249 366.702,249 366.789,22 366.875,249 366.962,22 367.048,249 367.135,249 367.222,249 367.308,249 367.395,249 367.481,22 367.568,249 367.654,22 367.741,249 367.827,249 367.914,249 368.001,249 368.087,22 368.174,249 368.26,22 368.347,249 368.433,249 368.52,249 368.607,249 368.693,22 368.78,249 368.866,249 368.953,22 369.039,249 369.126,249 369.212,249 369.299,22 369.386,249 369.472,249 369.559,22 369.645,249 369.732,249 369.818,249 369.905,22 369.992,249 370.078,249 370.165,22 370.251,249 370.338,249 370.424,249 370.511,249 370.597,22 370.684,22 370.771,249 370.857,249 370.944,249 371.03,249 371.117,249 371.203,22 371.29,249 371.377,249 371.463,22 371.55,249 371.636,249 371.723,22 371.809,249 371.896,249 371.982,249 372.069,22 372.156,249 372.242,249 372.329,22 372.415,249 372.502,249 372.588,249 372.675,22 372.762,249 372.848,249 372.935,22 373.021,249 373.108,249 373.194,249 373.281,22 373.367,249 373.454,249 373.541,22 373.627,249 373.714,249 373.8,249 373.887,22 373.973,249 374.06,249 374.147,22 374.233,249 374.32,249 374.406,249 374.493,22 374.579,249 374.666,249 374.753,22 374.839,249 374.926,249 375.012,249 375.099,22 375.185,249 375.272,22 375.358,249 375.445,249 375.532,249 375.618,249 375.705,22 375.791,249 375.878,249 375.964,22 376.051,249 376.138,249 376.224,22 376.311,249 376.397,249 376.484,249 376.57,22 376.657,249 376.743,249 376.83,22 376.917,249 377.003,249 377.09,249 377.176,22 377.263,249 377.349,22 377.436,249 377.523,249 377.609,249 377.696,249 377.782,22 377.869,249 377.955,249 378.042,22 378.128,249 378.215,22 378.302,249 378.388,249 378.475,249 378.561,249 378.648,22 378.734,249 378.821,249 378.908,22 378.994,249 379.081,22 379.167,249 379.254,249 379.34,249 379.427,249 379.513,22 379.6,249 379.687,249 379.773,22 379.86,249 379.946,249 380.033,22 380.119,249 380.206,249 380.293,22 380.379,249 380.466,249 380.552,249 380.639,22 380.725,249 380.812,22 380.898,249 380.985,249 381.072,249 381.158,249 381.245,22 381.331,249 381.418,22 381.504,249 381.591,249 381.678,249 381.764,22 381.851,249 381.937,249 382.024,22 382.11,249 382.197,249 382.284,22 382.37,249 382.457,249 382.543,22 382.63,249 382.716,249 382.803,249 382.889,22 382.976,249 383.063,249 383.149,22 383.236,249 383.322,249 383.409,22 383.495,249 383.582,249 383.669,22 383.755,249 383.842,249 383.928,249 384.015,22 384.101,249 384.188,22 384.274,249 384.361,249 384.448,249 384.534,249 384.621,22 384.707,22 384.794,249 384.88,249 384.967,249 385.054,249 385.14,22 385.227,249 385.313,22 385.4,249 385.486,249 385.573,249 385.659,22 385.746,249 385.833,22 385.919,249 386.006,249 386.092,249 386.179,22 386.265,249 386.352,249 386.439,22 386.525,249 386.612,249 386.698,22 386.785,249 386.871,249 386.958,22 387.044,249 387.131,249 387.218,249 387.304,22 387.391,249 387.477,22 387.564,249 387.65,249 387.737,22 387.824,249 387.91,249 387.997,249 388.083,22 388.17,249 388.256,249 388.343,22 388.429,249 388.516,22 388.603,249 388.689,249 388.776,249 388.862,22 388.949,249 389.035,249 389.122,22 389.209,249 389.295,249 389.382,22 389.468,249 389.555,22 389.641,249 389.728,249 389.814,249 389.901,249 389.988,22 390.074,22 390.161,249 390.247,249 390.334,249 390.42,22 390.507,249 390.594,249 390.68,22 390.767,249 390.853,249 390.94,22 391.026,249 391.113,249 391.199,22 391.286,249 391.373,249 391.459,22 391.546,249 391.632,249 391.719,22 391.805,249 391.892,249 391.979,22 392.065,249 392.152,249 392.238,22 392.325,249 392.411,22 392.498,249 392.585,249 392.671,249 392.758,22 392.844,249 392.931,249 393.017,22 393.104,249 393.19,249 393.277,22 393.364,249 393.45,22 393.537,249 393.623,249 393.71,249 393.796,22 393.883,249 393.97,22 394.056,249 394.143,249 394.229,22 394.316,249 394.402,249 394.489,249 394.575,22 394.662,22 394.749,249 394.835,249 394.922,249 395.008,249 395.095,22 395.181,22 395.268,249 395.355,249 395.441,249 395.528,22 395.614,249 395.701,249 395.787,22 395.874,249 395.96,22 396.047,249 396.134,249 396.22,249 396.307,22 396.393,22 396.48,249 396.566,249 396.653,249 396.74,249 396.826,22 396.913,22 396.999,249 397.086,249 397.172,249 397.259,22 397.345,249 397.432,249 397.519,22 397.605,22 397.692,249 397.778,249 397.865,249 397.951,249 398.038,22 398.125,249 398.211,22 398.298,249 398.384,22 398.471,249 398.557,249 398.644,249 398.73,22 398.817,249 398.904,22 398.99,249 399.077,249 399.163,22 399.25,249 399.336,249 399.423,22 399.51,249 399.596,22 399.683,249 399.769,249 399.856,249 399.942,22 400.029,22 400.116,249 400.202,249 400.289,249 400.375,22 400.462,249 400.548,249 400.635,22 400.721,249 400.808,22 400.895,249 400.981,249 401.068,22 401.154,249 401.241,22 401.327,249 401.414,249 401.501,249 401.587,22 401.674,249 401.76,22 401.847,249 401.933,249 402.02,22 402.106,249 402.193,22 402.28,249 402.366,249 402.453,22 402.539,249 402.626,249 402.712,22 402.799,249 402.886,22 402.972,249 403.059,249 403.145,249 403.232,22 403.318,22 403.405,249 403.491,249 403.578,249 403.665,22 403.751,249 403.838,22 403.924,249 404.011,249 404.097,22 404.184,249 404.271,22 404.357,249 404.444,249 404.53,22 404.617,249 404.703,249 404.79,22 404.876,249 404.963,22 405.05,249 405.136,249 405.223,22 405.309,249 405.396,22 405.482,249 405.569,249 405.656,22 405.742,249 405.829,249 405.915,22 406.002,249 406.088,22 406.175,249 406.262,249 406.348,22 406.435,249 406.521,249 406.608,22 406.694,22 406.781,249 406.867,249 406.954,249 407.041,22 407.127,249 407.214,22 407.3,249 407.387,249 407.473,22 407.56,249 407.647,22 407.733,249 407.82,249 407.906,22 407.993,249 408.079,22 408.166,249 408.252,249 408.339,22 408.426,249 408.512,22 408.599,249 408.685,249 408.772,22 408.858,249 408.945,249 409.032,22 409.118,22 409.205,249 409.291,249 409.378,249 409.464,22 409.551,249 409.637,22 409.724,249 409.811,22 409.897,249 409.984,249 410.07,249 410.157,22 410.243,22 410.33,249 410.417,249 410.503,22 410.59,249 410.676,22 410.763,249 410.849,249 410.936,22 411.022,249 411.109,22 411.196,249 411.282,249 411.369,22 411.455,249 411.542,22 411.628,249 411.715,249 411.802,22 411.888,249 411.975,22 412.061,249 412.148,249 412.234,22 412.321,22 412.407,249 412.494,249 412.581,249 412.667,22 412.754,249 412.84,22 412.927,249 413.013,22 413.1,249 413.187,249 413.273,22 413.36,249 413.446,22 413.533,249 413.619,249 413.706,22 413.792,22 413.879,249 413.966,249 414.052,249 414.139,22 414.225,249 414.312,22 414.398,22 414.485,249 414.572,249 414.658,249 414.745,22 414.831,249 414.918,22 415.004,249 415.091,22 415.177,249 415.264,249 415.351,22 415.437,249 415.524,22 415.61,249 415.697,22 415.783,249 415.87,249 415.957,22 416.043,249 416.13,22 416.216,249 416.303,22 416.389,249 416.476,249 416.563,22 416.649,249 416.736,22 416.822,249 416.909,249 416.995,22 417.082,22 417.168,249 417.255,249 417.342,22 417.428,249 417.515,249 417.601,22 417.688,22 417.774,249 417.861,249 417.948,249 418.034,22 418.121,22 418.207,249 418.294,22 418.38,249 418.467,249 418.553,22 418.64,249 418.727,249 418.813,22 418.9,22 418.986,249 419.073,249 419.159,22 419.246,249 419.333,22 419.419,249 419.506,22 419.592,249 419.679,249 419.765,22 419.852,249 419.938,22 420.025,249 420.112,22 420.198,249 420.285,22 420.371,249 420.458,249 420.544,22 420.631,249 420.718,22 420.804,249 420.891,22 420.977,249 421.064,249 421.15,22 421.237,22 421.323,249 421.41,249 421.497,22 421.583,249 421.67,22 421.756,249 421.843,249 421.929,22 422.016,22 422.103,249 422.189,249 422.276,22 422.362,249 422.449,22 422.535,249 422.622,22 422.708,249 422.795,249 422.882,22 422.968,22 423.055,249 423.141,249 423.228,22 423.314,249 423.401,22 423.488,249 423.574,22 423.661,249 423.747,249 423.834,22 423.92,22 424.007,249 424.094,249 424.18,22 424.267,249 424.353,22 424.44,249 424.526,22 424.613,249 424.699,249 424.786,22 424.873,22 424.959,249 425.046,249 425.132,22 425.219,22 425.305,249 425.392,249 425.479,249 425.565,22 425.652,22 425.738,249 425.825,22 425.911,249 425.998,22 426.084,249 426.171,249 426.258,22 426.344,22 426.431,249 426.517,249 426.604,22 426.69,249 426.777,22 426.863,249 426.95,22 427.037,249 427.123,249 427.21,22 427.296,22 427.383,249 427.469,22 427.556,249 427.643,249 427.729,22 427.816,249 427.902,22 427.989,22 428.075,249 428.162,249 428.249,22 428.335,249 428.422,22 428.508,249 428.595,22 428.681,249 428.768,249 428.854,22 428.941,22 429.028,249 429.114,22 429.201,249 429.287,249 429.374,22 429.46,22 429.547,249 429.634,249 429.72,22 429.807,22 429.893,249 429.98,249 430.066,22 430.153,249 430.239,22 430.326,249 430.413,22 430.499,22 430.586,249 430.672,249 430.759,249 430.845,22 430.932,22 431.019,249 431.105,22 431.192,249 431.278,22 431.365,249 431.451,22 431.538,249 431.624,22 431.711,249 431.798,249 431.884,22 431.971,22 432.057,249 432.144,22 432.23,249 432.317,249 432.404,22 432.49,22 432.577,249 432.663,22 432.75,249 432.836,249 432.923,22 433.009,22 433.096,249 433.183,249 433.269,22 433.356,22 433.442,249 433.529,249 433.615,22 433.702,22 433.789,249 433.875,249 " />
</g>
</g>
</svg>
